<svg width="74" height="93" viewBox="0 0 74 93" fill="none" xmlns="http://www.w3.org/2000/svg">
<path fill-rule="evenodd" clip-rule="evenodd" d="M14.4305 51.5576C14.4299 51.5577 14.4295 51.5578 14.215 50.5811C14.0005 49.6043 14.0002 49.6044 14 49.6044L14 49.6044L14.0016 49.6041L14.0107 49.602L14.0522 49.5925C14.0901 49.5837 14.1482 49.5699 14.2252 49.551C14.3792 49.5131 14.6084 49.4544 14.9022 49.3732C15.4901 49.2106 16.335 48.9578 17.351 48.5996C19.3865 47.882 22.0915 46.7476 24.7883 45.0798C30.1138 41.7864 35.2581 36.5197 35.41 28.3716C35.408 28.2484 35.4069 28.1247 35.4069 28.0003L35.4135 28.0003L37.4069 28.0003L37.4135 28.0003C37.4135 28.1247 37.4124 28.2484 37.4104 28.3716C37.5623 36.5197 42.7066 41.7864 48.0321 45.0798C50.7289 46.7476 53.4339 47.882 55.4694 48.5996C56.4854 48.9578 57.3303 49.2106 57.9181 49.3732C58.2119 49.4545 58.4412 49.5131 58.5952 49.551C58.6721 49.5699 58.7302 49.5837 58.7682 49.5925L58.8097 49.602L58.8188 49.6041L58.8203 49.6044L58.8204 49.6044C58.8202 49.6044 58.8199 49.6043 58.6054 50.5811C58.3909 51.5578 58.3905 51.5577 58.3899 51.5576L58.3884 51.5572L58.3839 51.5562L58.3689 51.5529L58.3153 51.5406C58.2692 51.5298 58.2027 51.5141 58.117 51.493C57.9458 51.4508 57.6982 51.3874 57.385 51.3008C56.7588 51.1276 55.8695 50.8613 54.8044 50.4858C52.6777 49.736 49.8331 48.5451 46.9802 46.7809C43.3348 44.5265 39.6128 41.2911 37.4069 36.8017L37.4069 93L35.4069 93L35.4069 36.8151C33.2002 41.2975 29.482 44.5287 25.8402 46.7809C22.9873 48.5451 20.1427 49.736 18.016 50.4858C16.9509 50.8613 16.0615 51.1276 15.4354 51.3008C15.1222 51.3874 14.8746 51.4508 14.7033 51.493C14.6177 51.5141 14.5512 51.5298 14.5051 51.5406L14.4515 51.5529L14.4364 51.5562L14.4319 51.5572L14.4305 51.5576Z" fill="#8668E3"/>
<circle cx="37" cy="37" r="36.5" transform="rotate(-180 37 37)" stroke="white" stroke-opacity="0.3"/>
</svg>
