<svg width="44" height="64" viewBox="0 0 44 64" fill="none" xmlns="http://www.w3.org/2000/svg">
<g clip-path="url(#clip0_7_5711)">
<path fill-rule="evenodd" clip-rule="evenodd" d="M43.5582 22.9752C43.5587 22.9754 43.5591 22.9755 43.7793 22C43.9995 21.0245 43.9998 21.0246 44 21.0247C43.9999 21.0246 44.0001 21.0247 44 21.0246L43.9985 21.0243L43.9896 21.0223L43.9486 21.0126C43.9111 21.0036 43.8537 20.9897 43.7775 20.9704C43.6252 20.9318 43.3983 20.8722 43.1074 20.7895C42.5255 20.6241 41.6888 20.3668 40.6825 20.0022C38.6666 19.2718 35.9872 18.1169 33.3157 16.419C27.965 13.0182 22.7793 7.53745 22.7793 -0.999999L20.7793 -0.999999C20.7793 7.53745 15.5936 13.0182 10.2429 16.419C7.57142 18.1169 4.89201 19.2718 2.87614 20.0022C1.86985 20.3668 1.03316 20.6241 0.451181 20.7895C0.160302 20.8722 -0.0666262 20.9318 -0.218932 20.9704C-0.295073 20.9897 -0.352538 21.0036 -0.389979 21.0126L-0.430953 21.0223L-0.439856 21.0243L-0.441363 21.0247C-0.441161 21.0246 -0.440871 21.0245 -0.220702 22C-0.000536507 22.9755 -8.25578e-05 22.9754 0.000459129 22.9752L0.00195831 22.9749L0.00646346 22.9739L0.0214323 22.9704L0.0747923 22.9578C0.120603 22.9469 0.186677 22.9308 0.271669 22.9093C0.441629 22.8663 0.687353 22.8016 0.998033 22.7133C1.61919 22.5367 2.50124 22.2652 3.55745 21.8825C5.66658 21.1183 8.48717 19.9046 11.3157 18.1069C14.9211 15.8153 18.5938 12.5346 20.7793 7.99181L20.7793 64L22.7793 64L22.7793 7.99191C24.9649 12.5346 28.6375 15.8154 32.2429 18.1069C35.0714 19.9046 37.892 21.1183 40.0012 21.8825C41.0574 22.2652 41.9394 22.5367 42.5606 22.7133C42.8713 22.8016 43.117 22.8663 43.2869 22.9093C43.3719 22.9308 43.438 22.9469 43.4838 22.9578L43.5372 22.9704L43.5521 22.9739L43.5567 22.9749L43.5582 22.9752Z" fill="#8668E3"/>
</g>
<defs>
<clipPath id="clip0_7_5711">
<rect width="44" height="64" fill="white"/>
</clipPath>
</defs>
</svg>
