<svg width="44" height="64" viewBox="0 0 44 64" fill="none" xmlns="http://www.w3.org/2000/svg">
<g clip-path="url(#clip0_7_5710)">
<path fill-rule="evenodd" clip-rule="evenodd" d="M43.5582 40.0248C43.5587 40.0246 43.5591 40.0245 43.7793 41C43.9995 41.9755 43.9998 41.9754 44 41.9753C43.9999 41.9754 44.0001 41.9753 44 41.9754L43.9985 41.9757L43.9896 41.9777L43.9486 41.9874C43.9111 41.9964 43.8537 42.0103 43.7775 42.0296C43.6252 42.0682 43.3983 42.1278 43.1074 42.2105C42.5255 42.3759 41.6888 42.6332 40.6825 42.9978C38.6666 43.7282 35.9872 44.8831 33.3157 46.581C27.965 49.9818 22.7793 55.4626 22.7793 64L20.7793 64C20.7793 55.4626 15.5936 49.9818 10.2429 46.581C7.57142 44.8831 4.89201 43.7282 2.87614 42.9978C1.86985 42.6332 1.03316 42.3759 0.451181 42.2105C0.160302 42.1278 -0.0666262 42.0682 -0.218932 42.0296C-0.295073 42.0103 -0.352538 41.9964 -0.389979 41.9874L-0.430953 41.9777L-0.439856 41.9757L-0.441363 41.9753C-0.441161 41.9754 -0.440871 41.9755 -0.220702 41C-0.000536507 40.0245 -8.25578e-05 40.0246 0.000459129 40.0248L0.00195831 40.0251L0.00646346 40.0261L0.0214323 40.0296L0.0747923 40.0422C0.120603 40.0531 0.186677 40.0692 0.271669 40.0907C0.441629 40.1337 0.687353 40.1984 0.998033 40.2867C1.61919 40.4633 2.50124 40.7348 3.55745 41.1175C5.66658 41.8817 8.48717 43.0954 11.3157 44.8931C14.9211 47.1846 18.5938 50.4654 20.7793 55.0081L20.7793 -1L22.7793 -1L22.7793 55.0082C24.9648 50.4654 28.6375 47.1846 32.2429 44.8931C35.0714 43.0954 37.892 41.8817 40.0012 41.1175C41.0574 40.7348 41.9394 40.4633 42.5606 40.2867C42.8713 40.1984 43.117 40.1337 43.2869 40.0907C43.3719 40.0692 43.438 40.0531 43.4838 40.0422L43.5372 40.0296L43.5521 40.0261L43.5567 40.0251L43.5582 40.0248Z" fill="#8668E3"/>
</g>
<defs>
<clipPath id="clip0_7_5710">
<rect width="44" height="64" fill="white"/>
</clipPath>
</defs>
</svg>
