<svg width="32" height="32" viewBox="0 0 32 32" fill="none" xmlns="http://www.w3.org/2000/svg">
<g clip-path="url(#clip0_3_5465)">
<path d="M31.5163 19.8719C29.3793 28.4439 20.6973 33.6599 12.1253 31.5219C3.55531 29.3869 -1.6607 20.7049 0.477305 12.1329C2.6133 3.55993 11.2953 -1.65607 19.8643 0.479934C28.4373 2.61693 33.6533 11.2999 31.5163 19.8719V19.8719Z" fill="#F7931A"/>
<path d="M23.0512 13.7219C23.3692 11.5929 21.7482 10.4489 19.5312 9.68493L20.2512 6.80093L18.4952 6.36293L17.7952 9.17093C17.3273 9.05631 16.8583 8.94631 16.3882 8.84093L17.0932 6.01393L15.3392 5.57593L14.6192 8.45893C14.245 8.37492 13.8717 8.28725 13.4992 8.19593L13.5002 8.18693L11.0802 7.58193L10.6122 9.45693C10.6122 9.45693 11.9152 9.75593 11.8872 9.77393C12.5982 9.95193 12.7272 10.4219 12.7052 10.7949L11.8862 14.0809C11.9362 14.0929 11.9992 14.1109 12.0692 14.1389L11.8832 14.0929L10.7352 18.6959C10.6482 18.9119 10.4282 19.2359 9.9312 19.1129C9.9482 19.1379 8.6552 18.7939 8.6552 18.7939L7.7832 20.8039L10.0682 21.3739C10.4932 21.4799 10.9092 21.5919 11.3192 21.6969L10.5932 24.6139L12.3462 25.0509L13.0662 22.1649C13.5452 22.2949 14.0102 22.4149 14.4652 22.5279L13.7482 25.4009L15.5032 25.8379L16.2302 22.9259C19.2232 23.4929 21.4742 23.2649 22.4222 20.5569C23.1852 18.3769 22.3842 17.1199 20.8092 16.2999C21.9562 16.0349 22.8202 15.2799 23.0502 13.7219H23.0512ZM19.0402 19.3469C18.4972 21.5269 14.8272 20.3479 13.6372 20.0519L14.6012 16.1879C15.7912 16.4849 19.6072 17.0729 19.0402 19.3469V19.3469ZM19.5832 13.6899C19.0882 15.6739 16.0332 14.6659 15.0422 14.4189L15.9162 10.9139C16.9062 11.1609 20.0982 11.6219 19.5832 13.6909V13.6899Z" fill="white"/>
</g>
<defs>
<clipPath id="clip0_3_5465">
<rect width="32" height="32" fill="white"/>
</clipPath>
</defs>
</svg>
