<svg width="26" height="26" viewBox="0 0 26 26" fill="none" xmlns="http://www.w3.org/2000/svg">
<mask id="path-1-outside-1_110_4621" maskUnits="userSpaceOnUse" x="0" y="0" width="26" height="26" fill="black">
<rect fill="white" width="26" height="26"/>
<path fill-rule="evenodd" clip-rule="evenodd" d="M23.5878 14.143V4.14271C23.5784 4.09566 23.5784 4.04711 23.5878 3.99991C23.5885 2.94588 23.042 1.96886 22.1487 1.42681C21.2553 0.88475 20.1462 0.857279 19.2277 1.35432C18.3092 1.85155 17.7161 2.8004 17.6658 3.85328L17.6613 3.85428C17.256 3.96327 16.8975 4.20467 16.6417 4.54098C16.386 4.87731 16.2472 5.28982 16.2468 5.7142C16.2467 5.82787 16.2912 5.93702 16.3706 6.01737C16.4502 6.09773 16.5579 6.14293 16.6704 6.14277H19.635C19.7473 6.14293 19.8552 6.09773 19.9346 6.01737C20.014 5.93702 20.0587 5.82787 20.0585 5.7142C20.058 5.26655 19.9037 4.83309 19.6219 4.48809C19.3402 4.14309 18.9487 3.90785 18.5145 3.82282C18.5749 3.08101 19.0118 2.42409 19.6681 2.08797C20.3244 1.7518 21.1061 1.78462 21.7328 2.17452C22.3594 2.56441 22.7411 3.2555 22.7408 3.99997C22.7502 4.04718 22.7502 4.09573 22.7408 4.14277V14.1426L2.41177 14.1428C1.95005 14.1428 1.51742 14.3713 1.25336 14.7548C0.989484 15.1382 0.927447 15.6281 1.08742 16.0665C1.2474 16.5048 1.60903 16.8362 2.05606 16.9541L2.05821 16.9544C2.34177 18.3627 3.62159 23.4284 7.35307 23.4284H18.6471C22.3785 23.4284 23.6582 18.3627 23.942 16.9544L23.9439 16.9541C24.391 16.8362 24.7526 16.5048 24.9126 16.0665C25.0726 15.6281 25.0105 15.1382 24.7466 14.7548C24.4826 14.3713 24.0496 14.143 23.5878 14.143ZM19.1239 5.28571H17.1813C17.292 5.02957 17.4973 4.82718 17.7533 4.72188C18.0094 4.61658 18.2959 4.61658 18.5518 4.72188C18.8079 4.82718 19.0131 5.02958 19.1239 5.28571ZM18.6468 22.5713H7.35272C4.45673 22.5713 3.27189 18.4836 2.93709 16.9999H23.0628C22.7296 18.4834 21.5477 22.5713 18.6468 22.5713ZM23.588 16.1427H2.41193C2.10008 16.1427 1.84729 15.8869 1.84729 15.5713C1.84729 15.2558 2.10008 15 2.41193 15H23.588C23.8998 15 24.1526 15.2558 24.1526 15.5713C24.1526 15.8869 23.8998 16.1427 23.588 16.1427Z"/>
<path d="M9.11736 24.1429H7.28216C7.04857 24.1434 6.85947 24.335 6.85947 24.5714C6.85947 24.8078 7.04856 24.9995 7.28216 25H9.11736C9.35096 24.9995 9.54006 24.8078 9.54006 24.5714C9.54006 24.335 9.35097 24.1434 9.11736 24.1429Z"/>
<path d="M16.8821 24.1429H18.7173C18.9509 24.1434 19.14 24.335 19.14 24.5714C19.14 24.8078 18.9509 24.9995 18.7173 25H16.8821C16.6485 24.9995 16.4594 24.8078 16.4594 24.5714C16.4594 24.335 16.6485 24.1434 16.8821 24.1429Z"/>
<path d="M3.11777 13.7144C3.2301 13.7146 3.33797 13.6694 3.41738 13.589C3.49679 13.5087 3.54145 13.3995 3.54129 13.2859C3.54096 12.3346 3.93139 11.4259 4.61894 10.7774C5.30665 10.1288 6.2298 9.79869 7.16752 9.86581C8.10523 9.93294 8.97311 10.3913 9.56371 11.1314C10.0519 11.7408 10.318 12.5014 10.3176 13.2859C10.3176 13.5226 10.5072 13.7144 10.7411 13.7144C10.9751 13.7144 11.1647 13.5226 11.1647 13.2859C11.165 12.6234 11.0131 11.97 10.7213 11.3772C10.9731 11.2691 11.2439 11.2136 11.5175 11.2143C12.0603 11.2148 12.5808 11.4331 12.9646 11.8215C13.3485 12.2099 13.5642 12.7366 13.5645 13.2859C13.5645 13.5226 13.7541 13.7144 13.988 13.7144C14.222 13.7144 14.4115 13.5226 14.4115 13.2859C14.4106 12.5094 14.1053 11.7651 13.5629 11.2162C13.0202 10.6672 12.2848 10.3583 11.5175 10.3572C11.0834 10.3562 10.6548 10.4548 10.2638 10.6458C9.53542 9.70293 8.45032 9.11129 7.27141 9.01422C6.09249 8.91712 4.9273 9.3236 4.05777 10.135C3.18824 10.9465 2.69391 12.0889 2.69425 13.2859C2.69408 13.3995 2.73859 13.5087 2.81816 13.5891C2.89757 13.6694 3.00527 13.7146 3.11777 13.7144Z"/>
<path d="M17.7292 7.42848V10.9999C17.7292 11.2366 17.5396 11.4284 17.3057 11.4284C17.0718 11.4284 16.8822 11.2366 16.8822 10.9999V7.42848C16.8822 7.19176 17.0718 6.99991 17.3057 6.99991C17.5396 6.99991 17.7292 7.19176 17.7292 7.42848Z"/>
<path d="M18.9998 9.71414C19.1121 9.71414 19.2198 9.6691 19.2992 9.58875C19.3787 9.50839 19.4233 9.39924 19.4233 9.28557V7.42848C19.4233 7.19176 19.2337 6.99991 18.9998 6.99991C18.7659 6.99991 18.5763 7.19176 18.5763 7.42848V9.28557C18.5763 9.39924 18.6208 9.50839 18.7002 9.58875C18.7796 9.6691 18.8875 9.71414 18.9998 9.71414Z"/>
<path d="M18.9998 13.4286C18.7659 13.4286 18.5763 13.2367 18.5763 13V11.1429C18.5763 10.9062 18.7659 10.7143 18.9998 10.7143C19.2337 10.7143 19.4233 10.9062 19.4233 11.1429V13C19.4233 13.2367 19.2337 13.4286 18.9998 13.4286Z"/>
</mask>
<path fill-rule="evenodd" clip-rule="evenodd" d="M23.5878 14.143V4.14271C23.5784 4.09566 23.5784 4.04711 23.5878 3.99991C23.5885 2.94588 23.042 1.96886 22.1487 1.42681C21.2553 0.88475 20.1462 0.857279 19.2277 1.35432C18.3092 1.85155 17.7161 2.8004 17.6658 3.85328L17.6613 3.85428C17.256 3.96327 16.8975 4.20467 16.6417 4.54098C16.386 4.87731 16.2472 5.28982 16.2468 5.7142C16.2467 5.82787 16.2912 5.93702 16.3706 6.01737C16.4502 6.09773 16.5579 6.14293 16.6704 6.14277H19.635C19.7473 6.14293 19.8552 6.09773 19.9346 6.01737C20.014 5.93702 20.0587 5.82787 20.0585 5.7142C20.058 5.26655 19.9037 4.83309 19.6219 4.48809C19.3402 4.14309 18.9487 3.90785 18.5145 3.82282C18.5749 3.08101 19.0118 2.42409 19.6681 2.08797C20.3244 1.7518 21.1061 1.78462 21.7328 2.17452C22.3594 2.56441 22.7411 3.2555 22.7408 3.99997C22.7502 4.04718 22.7502 4.09573 22.7408 4.14277V14.1426L2.41177 14.1428C1.95005 14.1428 1.51742 14.3713 1.25336 14.7548C0.989484 15.1382 0.927447 15.6281 1.08742 16.0665C1.2474 16.5048 1.60903 16.8362 2.05606 16.9541L2.05821 16.9544C2.34177 18.3627 3.62159 23.4284 7.35307 23.4284H18.6471C22.3785 23.4284 23.6582 18.3627 23.942 16.9544L23.9439 16.9541C24.391 16.8362 24.7526 16.5048 24.9126 16.0665C25.0726 15.6281 25.0105 15.1382 24.7466 14.7548C24.4826 14.3713 24.0496 14.143 23.5878 14.143ZM19.1239 5.28571H17.1813C17.292 5.02957 17.4973 4.82718 17.7533 4.72188C18.0094 4.61658 18.2959 4.61658 18.5518 4.72188C18.8079 4.82718 19.0131 5.02958 19.1239 5.28571ZM18.6468 22.5713H7.35272C4.45673 22.5713 3.27189 18.4836 2.93709 16.9999H23.0628C22.7296 18.4834 21.5477 22.5713 18.6468 22.5713ZM23.588 16.1427H2.41193C2.10008 16.1427 1.84729 15.8869 1.84729 15.5713C1.84729 15.2558 2.10008 15 2.41193 15H23.588C23.8998 15 24.1526 15.2558 24.1526 15.5713C24.1526 15.8869 23.8998 16.1427 23.588 16.1427Z" fill="#6AC0E3"/>
<path d="M9.11736 24.1429H7.28216C7.04857 24.1434 6.85947 24.335 6.85947 24.5714C6.85947 24.8078 7.04856 24.9995 7.28216 25H9.11736C9.35096 24.9995 9.54006 24.8078 9.54006 24.5714C9.54006 24.335 9.35097 24.1434 9.11736 24.1429Z" fill="#6AC0E3"/>
<path d="M16.8821 24.1429H18.7173C18.9509 24.1434 19.14 24.335 19.14 24.5714C19.14 24.8078 18.9509 24.9995 18.7173 25H16.8821C16.6485 24.9995 16.4594 24.8078 16.4594 24.5714C16.4594 24.335 16.6485 24.1434 16.8821 24.1429Z" fill="#6AC0E3"/>
<path d="M3.11777 13.7144C3.2301 13.7146 3.33797 13.6694 3.41738 13.589C3.49679 13.5087 3.54145 13.3995 3.54129 13.2859C3.54096 12.3346 3.93139 11.4259 4.61894 10.7774C5.30665 10.1288 6.2298 9.79869 7.16752 9.86581C8.10523 9.93294 8.97311 10.3913 9.56371 11.1314C10.0519 11.7408 10.318 12.5014 10.3176 13.2859C10.3176 13.5226 10.5072 13.7144 10.7411 13.7144C10.9751 13.7144 11.1647 13.5226 11.1647 13.2859C11.165 12.6234 11.0131 11.97 10.7213 11.3772C10.9731 11.2691 11.2439 11.2136 11.5175 11.2143C12.0603 11.2148 12.5808 11.4331 12.9646 11.8215C13.3485 12.2099 13.5642 12.7366 13.5645 13.2859C13.5645 13.5226 13.7541 13.7144 13.988 13.7144C14.222 13.7144 14.4115 13.5226 14.4115 13.2859C14.4106 12.5094 14.1053 11.7651 13.5629 11.2162C13.0202 10.6672 12.2848 10.3583 11.5175 10.3572C11.0834 10.3562 10.6548 10.4548 10.2638 10.6458C9.53542 9.70293 8.45032 9.11129 7.27141 9.01422C6.09249 8.91712 4.9273 9.3236 4.05777 10.135C3.18824 10.9465 2.69391 12.0889 2.69425 13.2859C2.69408 13.3995 2.73859 13.5087 2.81816 13.5891C2.89757 13.6694 3.00527 13.7146 3.11777 13.7144Z" fill="#6AC0E3"/>
<path d="M17.7292 7.42848V10.9999C17.7292 11.2366 17.5396 11.4284 17.3057 11.4284C17.0718 11.4284 16.8822 11.2366 16.8822 10.9999V7.42848C16.8822 7.19176 17.0718 6.99991 17.3057 6.99991C17.5396 6.99991 17.7292 7.19176 17.7292 7.42848Z" fill="#6AC0E3"/>
<path d="M18.9998 9.71414C19.1121 9.71414 19.2198 9.6691 19.2992 9.58875C19.3787 9.50839 19.4233 9.39924 19.4233 9.28557V7.42848C19.4233 7.19176 19.2337 6.99991 18.9998 6.99991C18.7659 6.99991 18.5763 7.19176 18.5763 7.42848V9.28557C18.5763 9.39924 18.6208 9.50839 18.7002 9.58875C18.7796 9.6691 18.8875 9.71414 18.9998 9.71414Z" fill="#6AC0E3"/>
<path d="M18.9998 13.4286C18.7659 13.4286 18.5763 13.2367 18.5763 13V11.1429C18.5763 10.9062 18.7659 10.7143 18.9998 10.7143C19.2337 10.7143 19.4233 10.9062 19.4233 11.1429V13C19.4233 13.2367 19.2337 13.4286 18.9998 13.4286Z" fill="#6AC0E3"/>
<path fill-rule="evenodd" clip-rule="evenodd" d="M23.5878 14.143V4.14271C23.5784 4.09566 23.5784 4.04711 23.5878 3.99991C23.5885 2.94588 23.042 1.96886 22.1487 1.42681C21.2553 0.88475 20.1462 0.857279 19.2277 1.35432C18.3092 1.85155 17.7161 2.8004 17.6658 3.85328L17.6613 3.85428C17.256 3.96327 16.8975 4.20467 16.6417 4.54098C16.386 4.87731 16.2472 5.28982 16.2468 5.7142C16.2467 5.82787 16.2912 5.93702 16.3706 6.01737C16.4502 6.09773 16.5579 6.14293 16.6704 6.14277H19.635C19.7473 6.14293 19.8552 6.09773 19.9346 6.01737C20.014 5.93702 20.0587 5.82787 20.0585 5.7142C20.058 5.26655 19.9037 4.83309 19.6219 4.48809C19.3402 4.14309 18.9487 3.90785 18.5145 3.82282C18.5749 3.08101 19.0118 2.42409 19.6681 2.08797C20.3244 1.7518 21.1061 1.78462 21.7328 2.17452C22.3594 2.56441 22.7411 3.2555 22.7408 3.99997C22.7502 4.04718 22.7502 4.09573 22.7408 4.14277V14.1426L2.41177 14.1428C1.95005 14.1428 1.51742 14.3713 1.25336 14.7548C0.989484 15.1382 0.927447 15.6281 1.08742 16.0665C1.2474 16.5048 1.60903 16.8362 2.05606 16.9541L2.05821 16.9544C2.34177 18.3627 3.62159 23.4284 7.35307 23.4284H18.6471C22.3785 23.4284 23.6582 18.3627 23.942 16.9544L23.9439 16.9541C24.391 16.8362 24.7526 16.5048 24.9126 16.0665C25.0726 15.6281 25.0105 15.1382 24.7466 14.7548C24.4826 14.3713 24.0496 14.143 23.5878 14.143ZM19.1239 5.28571H17.1813C17.292 5.02957 17.4973 4.82718 17.7533 4.72188C18.0094 4.61658 18.2959 4.61658 18.5518 4.72188C18.8079 4.82718 19.0131 5.02958 19.1239 5.28571ZM18.6468 22.5713H7.35272C4.45673 22.5713 3.27189 18.4836 2.93709 16.9999H23.0628C22.7296 18.4834 21.5477 22.5713 18.6468 22.5713ZM23.588 16.1427H2.41193C2.10008 16.1427 1.84729 15.8869 1.84729 15.5713C1.84729 15.2558 2.10008 15 2.41193 15H23.588C23.8998 15 24.1526 15.2558 24.1526 15.5713C24.1526 15.8869 23.8998 16.1427 23.588 16.1427Z" stroke="#6AC0E3" stroke-width="0.4" mask="url(#path-1-outside-1_110_4621)"/>
<path d="M9.11736 24.1429H7.28216C7.04857 24.1434 6.85947 24.335 6.85947 24.5714C6.85947 24.8078 7.04856 24.9995 7.28216 25H9.11736C9.35096 24.9995 9.54006 24.8078 9.54006 24.5714C9.54006 24.335 9.35097 24.1434 9.11736 24.1429Z" stroke="#6AC0E3" stroke-width="0.4" mask="url(#path-1-outside-1_110_4621)"/>
<path d="M16.8821 24.1429H18.7173C18.9509 24.1434 19.14 24.335 19.14 24.5714C19.14 24.8078 18.9509 24.9995 18.7173 25H16.8821C16.6485 24.9995 16.4594 24.8078 16.4594 24.5714C16.4594 24.335 16.6485 24.1434 16.8821 24.1429Z" stroke="#6AC0E3" stroke-width="0.4" mask="url(#path-1-outside-1_110_4621)"/>
<path d="M3.11777 13.7144C3.2301 13.7146 3.33797 13.6694 3.41738 13.589C3.49679 13.5087 3.54145 13.3995 3.54129 13.2859C3.54096 12.3346 3.93139 11.4259 4.61894 10.7774C5.30665 10.1288 6.2298 9.79869 7.16752 9.86581C8.10523 9.93294 8.97311 10.3913 9.56371 11.1314C10.0519 11.7408 10.318 12.5014 10.3176 13.2859C10.3176 13.5226 10.5072 13.7144 10.7411 13.7144C10.9751 13.7144 11.1647 13.5226 11.1647 13.2859C11.165 12.6234 11.0131 11.97 10.7213 11.3772C10.9731 11.2691 11.2439 11.2136 11.5175 11.2143C12.0603 11.2148 12.5808 11.4331 12.9646 11.8215C13.3485 12.2099 13.5642 12.7366 13.5645 13.2859C13.5645 13.5226 13.7541 13.7144 13.988 13.7144C14.222 13.7144 14.4115 13.5226 14.4115 13.2859C14.4106 12.5094 14.1053 11.7651 13.5629 11.2162C13.0202 10.6672 12.2848 10.3583 11.5175 10.3572C11.0834 10.3562 10.6548 10.4548 10.2638 10.6458C9.53542 9.70293 8.45032 9.11129 7.27141 9.01422C6.09249 8.91712 4.9273 9.3236 4.05777 10.135C3.18824 10.9465 2.69391 12.0889 2.69425 13.2859C2.69408 13.3995 2.73859 13.5087 2.81816 13.5891C2.89757 13.6694 3.00527 13.7146 3.11777 13.7144Z" stroke="#6AC0E3" stroke-width="0.4" mask="url(#path-1-outside-1_110_4621)"/>
<path d="M17.7292 7.42848V10.9999C17.7292 11.2366 17.5396 11.4284 17.3057 11.4284C17.0718 11.4284 16.8822 11.2366 16.8822 10.9999V7.42848C16.8822 7.19176 17.0718 6.99991 17.3057 6.99991C17.5396 6.99991 17.7292 7.19176 17.7292 7.42848Z" stroke="#6AC0E3" stroke-width="0.4" mask="url(#path-1-outside-1_110_4621)"/>
<path d="M18.9998 9.71414C19.1121 9.71414 19.2198 9.6691 19.2992 9.58875C19.3787 9.50839 19.4233 9.39924 19.4233 9.28557V7.42848C19.4233 7.19176 19.2337 6.99991 18.9998 6.99991C18.7659 6.99991 18.5763 7.19176 18.5763 7.42848V9.28557C18.5763 9.39924 18.6208 9.50839 18.7002 9.58875C18.7796 9.6691 18.8875 9.71414 18.9998 9.71414Z" stroke="#6AC0E3" stroke-width="0.4" mask="url(#path-1-outside-1_110_4621)"/>
<path d="M18.9998 13.4286C18.7659 13.4286 18.5763 13.2367 18.5763 13V11.1429C18.5763 10.9062 18.7659 10.7143 18.9998 10.7143C19.2337 10.7143 19.4233 10.9062 19.4233 11.1429V13C19.4233 13.2367 19.2337 13.4286 18.9998 13.4286Z" stroke="#6AC0E3" stroke-width="0.4" mask="url(#path-1-outside-1_110_4621)"/>
</svg>
