<svg width="24" height="24" viewBox="0 0 24 24" fill="none" xmlns="http://www.w3.org/2000/svg">
<g clip-path="url(#clip0_110_4542)">
<path d="M9.25024 11.3335H11.2502V12.6668H9.25024V11.3335Z" fill="#6AC0E3"/>
<path d="M16.8835 9.44686C15.7011 7.51206 14.0882 5.87627 12.1702 4.66686C11.2841 4.10529 10.274 3.76916 9.22816 3.68781C8.18229 3.60646 7.1324 3.78238 6.17016 4.20019C5.3285 4.5972 4.59612 5.19311 4.03628 5.93647C3.47644 6.67983 3.10596 7.54829 2.95683 8.46686C2.9035 8.78019 2.8635 9.08019 2.8235 9.37353C2.19933 9.4747 1.63141 9.79437 1.22112 10.2755C0.810819 10.7566 0.584835 11.3679 0.583496 12.0002V16.0869C0.583496 16.4405 0.723972 16.7796 0.97402 17.0297C1.22407 17.2797 1.56321 17.4202 1.91683 17.4202V12.0002C1.91683 11.6466 2.05731 11.3074 2.30735 11.0574C2.5574 10.8073 2.89654 10.6669 3.25016 10.6669H15.7368C17.0217 10.6686 18.2534 11.1798 19.162 12.0884C20.0705 12.9969 20.5817 14.2287 20.5835 15.5135V16.0002H19.2502C18.9686 15.3136 18.4441 14.7547 17.7768 14.4302C17.1094 14.1056 16.3459 14.0382 15.632 14.2406C14.9181 14.4431 14.3037 14.9013 13.9061 15.5279C13.5085 16.1545 13.3555 16.9055 13.4763 17.6377C13.5971 18.3699 13.9832 19.032 14.5611 19.4976C15.1389 19.9632 15.8679 20.1998 16.609 20.1622C17.3502 20.1246 18.0515 19.8154 18.5792 19.2937C19.1069 18.7719 19.4241 18.0742 19.4702 17.3335H20.5835C20.9371 17.3335 21.2763 17.193 21.5263 16.943C21.7764 16.693 21.9168 16.3538 21.9168 16.0002V15.5135C21.9141 14.0748 21.4101 12.682 20.4915 11.5748C19.5728 10.4675 18.297 9.71507 16.8835 9.44686ZM6.5835 9.33353H3.87016C3.87016 9.12686 3.93016 8.91353 3.97016 8.66686C4.08534 7.9345 4.38593 7.24377 4.84334 6.66034C5.30075 6.0769 5.89979 5.62016 6.5835 5.33353V9.33353ZM7.91683 9.33353V5.05353C9.16146 4.8919 10.4237 5.16508 11.4902 5.82686C12.946 6.73365 14.2025 7.92664 15.1835 9.33353H7.91683ZM16.4502 18.9202C16.1205 18.9202 15.7983 18.8224 15.5242 18.6393C15.2501 18.4562 15.0365 18.1959 14.9104 17.8913C14.7842 17.5868 14.7512 17.2517 14.8155 16.9284C14.8798 16.6051 15.0386 16.3081 15.2717 16.075C15.5047 15.8419 15.8017 15.6832 16.125 15.6189C16.4483 15.5546 16.7834 15.5876 17.088 15.7137C17.3925 15.8399 17.6528 16.0535 17.8359 16.3276C18.0191 16.6017 18.1168 16.9239 18.1168 17.2535C18.1168 17.6956 17.9412 18.1195 17.6287 18.432C17.3161 18.7446 16.8922 18.9202 16.4502 18.9202Z" fill="#6AC0E3"/>
<path d="M8.69651 16.0001C8.41495 15.3135 7.89045 14.7546 7.2231 14.4301C6.55575 14.1056 5.79226 14.0381 5.07834 14.2406C4.36442 14.443 3.75003 14.9013 3.35242 15.5279C2.95481 16.1544 2.80181 16.9055 2.92262 17.6376C3.04343 18.3698 3.42959 19.0319 4.00741 19.4975C4.58523 19.9631 5.31427 20.1997 6.05539 20.1621C6.79652 20.1245 7.49786 19.8153 8.02557 19.2936C8.55329 18.7719 8.87044 18.0741 8.91651 17.3335H12.4498V17.1668C12.4367 16.7735 12.4816 16.3803 12.5832 16.0001H8.69651ZM5.91651 18.9201C5.58687 18.9201 5.26464 18.8224 4.99056 18.6392C4.71648 18.4561 4.50285 18.1958 4.37671 17.8913C4.25056 17.5867 4.21756 17.2516 4.28187 16.9283C4.34617 16.605 4.50491 16.308 4.738 16.0749C4.97108 15.8419 5.26806 15.6831 5.59136 15.6188C5.91466 15.5545 6.24977 15.5875 6.55431 15.7137C6.85886 15.8398 7.11916 16.0534 7.30229 16.3275C7.48543 16.6016 7.58317 16.9238 7.58317 17.2535C7.58317 17.6955 7.40758 18.1194 7.09502 18.432C6.78246 18.7445 6.35854 18.9201 5.91651 18.9201Z" fill="#6AC0E3"/>
</g>
<defs>
<clipPath id="clip0_110_4542">
<rect width="24" height="24" fill="white"/>
</clipPath>
</defs>
</svg>
