<svg width="24" height="25" viewBox="0 0 24 25" fill="none" xmlns="http://www.w3.org/2000/svg">
<path d="M6 22.501V21.501M18 22.501V21.501M3 10.501C3 6.72998 3 4.84398 4.172 3.67298C5.343 2.50098 7.229 2.50098 11 2.50098H13C16.771 2.50098 18.657 2.50098 19.828 3.67298C21 4.84398 21 6.72998 21 10.501V13.501C21 17.272 21 19.158 19.828 20.329C18.657 21.501 16.771 21.501 13 21.501H11C7.229 21.501 5.343 21.501 4.172 20.329C3.108 19.266 3.01 17.615 3 14.501M3 9.50098H12M21 9.50098H16" stroke="#6AC0E3" stroke-width="1.5" stroke-linecap="round"/>
<path d="M15 15.501C15 16.2966 14.6839 17.0597 14.1213 17.6223C13.5587 18.1849 12.7956 18.501 12 18.501C11.2044 18.501 10.4413 18.1849 9.87868 17.6223C9.31607 17.0597 9 16.2966 9 15.501C9 14.7053 9.31607 13.9423 9.87868 13.3797C10.4413 12.817 11.2044 12.501 12 12.501C12.7956 12.501 13.5587 12.817 14.1213 13.3797C14.6839 13.9423 15 14.7053 15 15.501Z" stroke="#6AC0E3" stroke-width="1.5"/>
<path d="M6.5 6.00098H9.5" stroke="#6AC0E3" stroke-width="1.5" stroke-linecap="round"/>
<path d="M15.5 6.00098C15.5 6.26619 15.3946 6.52055 15.2071 6.70808C15.0196 6.89562 14.7652 7.00098 14.5 7.00098C14.2348 7.00098 13.9804 6.89562 13.7929 6.70808C13.6054 6.52055 13.5 6.26619 13.5 6.00098C13.5 5.73576 13.6054 5.48141 13.7929 5.29387C13.9804 5.10633 14.2348 5.00098 14.5 5.00098C14.7652 5.00098 15.0196 5.10633 15.2071 5.29387C15.3946 5.48141 15.5 5.73576 15.5 6.00098ZM18.5 6.00098C18.5 6.26619 18.3946 6.52055 18.2071 6.70808C18.0196 6.89562 17.7652 7.00098 17.5 7.00098C17.2348 7.00098 16.9804 6.89562 16.7929 6.70808C16.6054 6.52055 16.5 6.26619 16.5 6.00098C16.5 5.73576 16.6054 5.48141 16.7929 5.29387C16.9804 5.10633 17.2348 5.00098 17.5 5.00098C17.7652 5.00098 18.0196 5.10633 18.2071 5.29387C18.3946 5.48141 18.5 5.73576 18.5 6.00098Z" fill="#6AC0E3"/>
</svg>
