<svg width="24" height="25" viewBox="0 0 24 25" fill="none" xmlns="http://www.w3.org/2000/svg">
<path d="M12 23.001H1.5V3.00098C1.5 3.00098 3.5 2.00098 6.75 2.00098C10 2.00098 12 3.00098 12 3.00098V23.001ZM12 23.001V13.001H12.25C12.25 13.001 14 14.001 17.25 14.001C20.5 14.001 22.25 13.001 22.25 13.001H22.5V23.001H12ZM1.5 10.001C1.5 10.001 3.5 9.00098 6.75 9.00098C10 9.00098 12 10.001 12 10.001M4 5.00098V7.00098M4 11.501V13.501M18.5 13.95V10.251C18.5 9.91946 18.3683 9.60151 18.1339 9.36709C17.8995 9.13267 17.5815 9.00098 17.25 9.00098C16.9185 9.00098 16.6005 9.13267 16.3661 9.36709C16.1317 9.60151 16 9.91946 16 10.251V10.501" stroke="#6AC0E3" stroke-width="1.5"/>
</svg>
