<svg width="24" height="25" viewBox="0 0 24 25" fill="none" xmlns="http://www.w3.org/2000/svg">
<path d="M15.4923 2.24159C15.0938 2.25378 14.7329 2.4755 14.2829 2.76378C13.7204 3.10831 13.0735 3.62159 12.361 4.24081C10.9126 5.49331 9.20163 7.20425 7.57507 8.99018C5.94851 10.7761 4.39976 12.6324 3.29117 14.1886C2.73007 14.9527 2.28663 15.6511 1.98851 16.2417C1.69226 16.823 1.47195 17.2683 1.63179 17.7746C1.79163 18.2761 2.22335 18.5199 2.80038 18.8246C3.38632 19.1339 4.14945 19.4433 5.04382 19.7527C6.83913 20.3714 9.17351 20.9996 11.536 21.5199C13.8844 22.0402 16.2704 22.4527 18.1594 22.6449C19.1016 22.7386 19.9219 22.7808 20.5829 22.748C21.2391 22.7152 21.7313 22.673 22.0876 22.2839C22.4438 21.8949 22.4344 21.398 22.411 20.7464C22.3876 20.0855 22.2704 19.2605 22.0923 18.3324C21.7313 16.4574 21.1079 14.1183 20.3813 11.8121C19.6501 9.50581 18.8251 7.23706 18.0423 5.49331C17.6532 4.63128 17.2735 3.89206 16.9173 3.3455C16.5657 2.79003 16.2891 2.38268 15.7735 2.26878C15.6751 2.24768 15.5813 2.23925 15.4923 2.24159ZM15.5907 3.0905C15.5907 3.10268 15.9094 3.33565 16.2094 3.80675C16.5329 4.29003 16.8891 4.99643 17.2735 5.84487C18.0282 7.53237 18.8579 9.78237 19.5798 12.0652C20.2969 14.3527 20.9063 16.6683 21.2626 18.4871C21.436 19.4058 21.5438 20.1886 21.5626 20.7746C21.5813 21.3605 21.4548 21.7308 21.4688 21.7167C21.4782 21.7027 21.1266 21.8667 20.5407 21.8949C19.9641 21.9277 19.1673 21.8949 18.2438 21.8011C16.3969 21.6183 14.0391 21.2105 11.7141 20.6996C9.38445 20.1839 7.07351 19.5605 5.32038 18.9511C4.44663 18.6464 3.71023 18.3417 3.20023 18.0699C2.68132 17.798 2.43007 17.498 2.43476 17.5167C2.43992 17.5402 2.47132 17.1417 2.7357 16.6214C3.00054 16.0964 3.42898 15.4261 3.97742 14.6761C5.0532 13.1714 6.58132 11.3246 8.19851 9.55737C9.81101 7.7855 11.5032 6.08862 12.9094 4.88581C13.6032 4.27128 14.236 3.78284 14.7282 3.4805C15.211 3.17112 15.5954 3.09612 15.5907 3.0905ZM14.9016 4.87972C14.7704 4.87972 14.6391 4.90128 14.5079 4.943C13.8048 5.16518 13.4204 5.89643 13.6454 6.59956C13.6735 6.68393 13.7063 6.76362 13.7485 6.83862C13.7485 6.848 13.7532 6.85268 13.7579 6.85737C13.7579 6.85737 13.7579 6.86206 13.7626 6.86206C13.8282 6.97456 13.9079 7.07768 14.011 7.17143C14.5501 7.66831 15.3798 7.63081 15.8766 7.08706C16.0876 6.85737 16.2048 6.57143 16.2235 6.2855C16.2329 6.12612 16.2141 5.96206 16.1626 5.80268C15.9844 5.23081 15.4641 4.87503 14.9016 4.87972ZM12.5485 7.448C12.1923 7.448 11.8313 7.59331 11.5688 7.88393C11.0766 8.42768 11.1094 9.25737 11.6532 9.75425C12.1969 10.2511 13.0266 10.2089 13.5188 9.66518C14.0157 9.12612 13.9829 8.29643 13.4391 7.79956C13.186 7.56518 12.8673 7.45268 12.5485 7.448ZM15.9516 8.20737C15.8204 8.20737 15.6891 8.22612 15.5579 8.26831C14.8548 8.49331 14.4751 9.22925 14.6954 9.93237C14.911 10.6121 15.6235 11.0011 16.3032 10.8089C16.3454 10.7949 16.3829 10.7855 16.4204 10.7714C17.0813 10.5277 17.4329 9.8105 17.2173 9.13081C17.0391 8.55893 16.5188 8.20268 15.9516 8.20737ZM10.2094 10.0308C10.0173 10.0261 9.83445 10.0636 9.67038 10.1386C9.66101 10.1386 9.65632 10.1433 9.65163 10.1433C9.64695 10.148 9.63757 10.1527 9.6282 10.1574C9.61413 10.1621 9.60007 10.1714 9.58132 10.1761L9.53913 10.2042C9.52507 10.2089 9.5157 10.2183 9.50632 10.223C9.39851 10.2886 9.30476 10.3683 9.2157 10.4621C9.15945 10.5277 9.10788 10.5933 9.0657 10.6636C9.05632 10.673 9.05163 10.6824 9.04695 10.6917C8.98132 10.8042 8.92976 10.9355 8.90163 11.0714C8.83132 11.3949 8.88288 11.7183 9.0282 11.9902C9.03288 11.9996 9.03757 12.0089 9.04695 12.023C9.11257 12.1355 9.19226 12.2386 9.29538 12.3324C9.83913 12.8292 10.6688 12.7871 11.1657 12.248C11.2313 12.173 11.2876 12.098 11.3391 12.0136C11.4001 11.9011 11.4516 11.7792 11.4798 11.6433C11.5829 11.1699 11.4282 10.7105 11.1094 10.4011L11.1048 10.3964L11.086 10.3777C11.0016 10.3027 10.9126 10.2371 10.8141 10.1855L10.8094 10.1808C10.7954 10.1761 10.786 10.1714 10.7719 10.1621C10.7579 10.1574 10.7438 10.1527 10.7344 10.1433C10.7251 10.1433 10.7157 10.1386 10.7063 10.1339C10.6876 10.1246 10.6641 10.1152 10.6407 10.1058C10.6173 10.0964 10.5891 10.0917 10.5657 10.0824C10.5563 10.0824 10.5469 10.0777 10.5423 10.0777L10.5001 10.0636C10.486 10.0636 10.4719 10.0589 10.4579 10.0542C10.4438 10.0542 10.4298 10.0496 10.4157 10.0496C10.4157 10.0496 10.411 10.0449 10.4063 10.0449C10.3407 10.0355 10.2751 10.0308 10.2094 10.0308ZM13.6173 10.7808C13.0032 10.7714 12.4501 11.1933 12.3094 11.8261C12.211 12.2761 12.3469 12.7261 12.6469 13.0308C12.6844 13.0683 12.7219 13.1011 12.7594 13.1386C12.9141 13.2652 13.1016 13.3589 13.3126 13.4058C13.5141 13.448 13.711 13.4433 13.8985 13.4011C13.9641 13.3777 14.0344 13.3542 14.1001 13.3355C14.4891 13.1761 14.7938 12.8339 14.8923 12.3933C15.0516 11.6761 14.6063 10.973 13.8844 10.8136C13.7954 10.7949 13.7063 10.7855 13.6173 10.7808ZM17.0063 11.5355C16.8751 11.5402 16.7438 11.5589 16.6126 11.6011C16.261 11.7089 15.9891 11.948 15.8344 12.248C15.7829 12.3511 15.7407 12.4589 15.7173 12.5761C15.7032 12.6324 15.6938 12.6886 15.6891 12.7449V12.8011C15.6798 12.9511 15.6985 13.1058 15.7501 13.2605C15.8204 13.4902 15.9469 13.6824 16.111 13.8324C16.111 13.8371 16.111 13.8371 16.1157 13.8371C16.186 13.9027 16.261 13.9636 16.3454 14.0105C16.3501 14.0152 16.3548 14.0152 16.3594 14.0199C16.4719 14.0808 16.5891 14.1277 16.7204 14.1558C17.4376 14.3152 18.136 13.8652 18.2954 13.1433C18.3376 12.9464 18.3376 12.7496 18.2954 12.5667C18.2954 12.5527 18.2907 12.5433 18.2907 12.5339C18.286 12.5292 18.286 12.5246 18.286 12.5199C18.2813 12.5011 18.2719 12.4777 18.2673 12.4589C18.0891 11.8917 17.5688 11.5308 17.0063 11.5355ZM7.83757 12.6042C7.48132 12.6042 7.12038 12.7496 6.85788 13.0402C6.37038 13.5746 6.39851 14.4042 6.93288 14.9011L6.95163 14.9199C7.49538 15.4074 8.32038 15.3605 8.80788 14.8261C9.29538 14.2917 9.27195 13.4808 8.75632 12.9792C8.73757 12.9652 8.72351 12.9558 8.70945 12.9417C8.45632 12.7167 8.14695 12.6089 7.83757 12.6042ZM11.2641 13.3589C10.6501 13.3496 10.0969 13.7714 9.95632 14.3996C9.85788 14.8496 9.99382 15.2949 10.2844 15.5996C10.3266 15.6371 10.3735 15.6792 10.4157 15.7214C10.5704 15.8433 10.7532 15.9371 10.9594 15.9792C11.1798 16.0261 11.3954 16.0214 11.5969 15.9652C11.6298 15.9511 11.6673 15.9417 11.7001 15.9324C12.1126 15.7824 12.436 15.4308 12.5391 14.9714C12.6376 14.5167 12.4969 14.0667 12.2016 13.7621C12.1641 13.7292 12.1266 13.6964 12.0891 13.6589C11.9344 13.5324 11.7469 13.4386 11.5313 13.3917C11.4423 13.373 11.3532 13.3636 11.2641 13.3589ZM14.6719 14.1089C14.5501 14.1089 14.4329 14.123 14.3251 14.1511C14.2735 14.1699 14.2266 14.1839 14.1798 14.198C13.7766 14.3527 13.4626 14.6996 13.3594 15.1542C13.261 15.6089 13.4016 16.0589 13.7016 16.3683C13.7391 16.3964 13.7719 16.4292 13.8048 16.4621C13.9641 16.5886 14.1516 16.6871 14.3673 16.7339C15.0844 16.8886 15.7829 16.4386 15.9423 15.7214C16.0407 15.2714 15.9048 14.8308 15.6141 14.5214C15.5673 14.4839 15.5251 14.4464 15.4876 14.4042C15.3329 14.2777 15.1454 14.1886 14.9391 14.1417C14.8501 14.123 14.761 14.1136 14.6719 14.1089ZM18.0563 14.8683C17.9251 14.8683 17.7938 14.8871 17.6626 14.9292C16.9594 15.1542 16.5798 15.8902 16.8001 16.5886C16.861 16.7902 16.9688 16.9636 17.1048 17.1089L17.2313 17.2214C17.5454 17.4792 17.9673 17.5824 18.3844 17.4746C18.436 17.4605 18.4829 17.4417 18.5344 17.4277C19.1907 17.1746 19.5329 16.4667 19.3219 15.7917C19.1391 15.2199 18.6235 14.8636 18.0563 14.8683ZM5.5032 15.1824C4.88445 15.173 4.33132 15.5949 4.19257 16.2277C4.03413 16.9449 4.47898 17.648 5.19851 17.8074C5.9157 17.9621 6.61413 17.5121 6.77351 16.7949C6.87195 16.3496 6.7407 15.9136 6.45476 15.6089C6.42663 15.5855 6.39851 15.5574 6.37038 15.5339C6.34226 15.5105 6.31882 15.4824 6.2907 15.4589C6.14538 15.3417 5.96726 15.2574 5.77038 15.2152C5.68132 15.1964 5.59226 15.1871 5.5032 15.1824ZM8.91101 15.9371C8.29226 15.9277 7.73913 16.3496 7.6032 16.9777C7.44382 17.6949 7.88913 18.398 8.60632 18.5574C9.32351 18.7167 10.0266 18.2667 10.1813 17.5449C10.2798 17.0902 10.1391 16.6449 9.84382 16.3355C9.80632 16.3027 9.76882 16.2699 9.73132 16.2324C9.57663 16.1058 9.38913 16.0121 9.1782 15.9652C9.08913 15.9464 9.00007 15.9371 8.91101 15.9371ZM12.3188 16.6871C12.1969 16.6871 12.0751 16.7011 11.9626 16.7292C11.9204 16.7433 11.8782 16.7574 11.8313 16.7714C11.4282 16.9261 11.1094 17.273 11.0063 17.7277C10.8469 18.4496 11.2923 19.1527 12.0141 19.3074C12.7313 19.4667 13.4298 19.0167 13.5891 18.2996C13.6876 17.8496 13.5516 17.4042 13.261 17.0996C13.2188 17.0621 13.1719 17.0199 13.1298 16.9777C12.9751 16.8558 12.7923 16.7667 12.586 16.7199C12.4969 16.7011 12.4079 16.6917 12.3188 16.6871ZM15.7266 17.4371C15.6001 17.4371 15.4735 17.4511 15.3563 17.4839C15.3235 17.498 15.2907 17.5074 15.2579 17.5167C14.8454 17.6667 14.5173 18.0183 14.4188 18.4824C14.2594 19.1996 14.7048 19.9027 15.4219 20.0621C16.1391 20.2214 16.8423 19.7714 16.9969 19.0496C17.1001 18.5949 16.9548 18.1449 16.6548 17.8355L16.5423 17.7371C16.3876 17.6105 16.2048 17.5167 15.9938 17.4699C15.9048 17.4511 15.8157 17.4417 15.7266 17.4371ZM19.1344 18.1917C19.0266 18.1917 18.9188 18.2011 18.8204 18.2246C18.7829 18.2386 18.7501 18.2527 18.7126 18.2621L18.6141 18.2902C18.2251 18.4496 17.9204 18.7917 17.8219 19.2324C17.6626 19.9496 18.1079 20.6527 18.8298 20.8121C19.5469 20.9714 20.2454 20.5214 20.4048 19.7996C20.5641 19.0824 20.1188 18.3792 19.4016 18.2199C19.3126 18.2011 19.2235 18.1917 19.1344 18.1917Z" fill="#6AC0E3"/>
</svg>
