<svg width="24" height="24" viewBox="0 0 24 24" fill="none" xmlns="http://www.w3.org/2000/svg">
<path d="M1.01857 10.2063C2.39911 8.64261 4.08964 7.39084 5.98004 6.5325C7.87043 5.67416 9.91829 5.22851 11.9902 5.22458C14.0621 5.22065 16.1116 5.65854 18.0052 6.5097C19.8987 7.36087 21.5939 8.60623 22.9802 10.1647C23.5076 10.7474 24.3604 9.87939 23.8354 9.29907C22.3368 7.62678 20.5083 6.29115 18.468 5.37841C16.4277 4.46567 14.221 3.9961 11.9902 4.00002C9.75954 4.00395 7.55443 4.48127 5.51729 5.40118C3.48015 6.32109 1.65624 7.66314 0.16333 9.34069C-0.359249 9.92224 0.493571 10.7903 1.01857 10.2063Z" fill="#6AC0E3"/>
<path d="M4.60915 13.4079C5.57248 12.3394 6.74406 11.4855 8.04963 10.9004C9.3552 10.3154 10.7663 10.0119 12.1935 10.0091C13.6207 10.0064 15.033 10.3045 16.3407 10.8845C17.6485 11.4646 18.8232 12.3139 19.7905 13.3788C20.3133 13.9553 21.1578 13.0947 20.6363 12.5206C19.557 11.3443 18.25 10.4066 16.7972 9.76637C15.3443 9.12614 13.7769 8.79709 12.193 8.79982C10.609 8.80256 9.0427 9.13702 7.59202 9.78227C6.14134 10.4275 4.83753 11.3697 3.76222 12.5497C3.24425 13.1251 4.08759 13.9869 4.60915 13.4079Z" fill="#6AC0E3"/>
<path d="M8.1776 16.2073C8.66168 15.6455 9.25128 15.1964 9.90882 14.8886C10.5663 14.5808 11.2774 14.421 11.9966 14.4195C12.7158 14.4181 13.4275 14.5748 14.0861 14.8799C14.7448 15.185 15.3361 15.6316 15.8223 16.1914C16.3296 16.7712 17.1462 15.9039 16.6412 15.3265C16.0467 14.6542 15.3274 14.1184 14.5282 13.7526C13.7291 13.3867 12.8671 13.1987 11.9961 13.2002C11.1251 13.2017 10.2637 13.3927 9.46562 13.7612C8.66757 14.1298 7.94996 14.668 7.35754 15.3424C6.85484 15.9223 7.67259 16.7896 8.1776 16.2073Z" fill="#6AC0E3"/>
<path d="M12.0498 19.5C12.8782 19.5 13.5498 18.8284 13.5498 18C13.5498 17.1716 12.8782 16.5 12.0498 16.5C11.2214 16.5 10.5498 17.1716 10.5498 18C10.5498 18.8284 11.2214 19.5 12.0498 19.5Z" fill="#6AC0E3"/>
</svg>
