<svg width="24" height="25" viewBox="0 0 24 25" fill="none" xmlns="http://www.w3.org/2000/svg">
<g clip-path="url(#clip0_110_4613)">
<path d="M17.1428 3.07227H6.85711C5.91033 3.07227 5.14282 3.83978 5.14282 4.78655V13.358C5.14282 14.3048 5.91033 15.0723 6.85711 15.0723H17.1428C18.0896 15.0723 18.8571 14.3048 18.8571 13.358V4.78655C18.8571 3.83978 18.0896 3.07227 17.1428 3.07227Z" stroke="#6AC0E3" stroke-width="1.5" stroke-linecap="round" stroke-linejoin="round"/>
<path d="M5.14289 8.21533H2.57146C2.11681 8.21533 1.68077 8.39594 1.35928 8.71744C1.03779 9.03893 0.857178 9.47496 0.857178 9.92962V17.6439C0.857178 18.0986 1.03779 18.5346 1.35928 18.8561C1.68077 19.1776 2.11681 19.3582 2.57146 19.3582H21.4286C21.8833 19.3582 22.3193 19.1776 22.6408 18.8561C22.9623 18.5346 23.1429 18.0986 23.1429 17.6439V9.92962C23.1429 9.47496 22.9623 9.03893 22.6408 8.71744C22.3193 8.39594 21.8833 8.21533 21.4286 8.21533H18.8572M6.85718 19.3582L6.00003 23.6439M17.1429 19.3582L18 23.6439" stroke="#6AC0E3" stroke-width="1.5" stroke-linecap="round" stroke-linejoin="round"/>
</g>
<defs>
<clipPath id="clip0_110_4613">
<rect width="24" height="24" fill="white" transform="translate(0 0.500977)"/>
</clipPath>
</defs>
</svg>
