<svg width="24" height="24" viewBox="0 0 24 24" fill="none" xmlns="http://www.w3.org/2000/svg">
<g clip-path="url(#clip0_110_4583)">
<path d="M3.42841 3.42857C3.42841 2.97391 3.60902 2.53788 3.93049 2.21639C4.25197 1.8949 4.68798 1.71429 5.14262 1.71429C5.59725 1.71429 6.03327 1.8949 6.35475 2.21639C6.67622 2.53788 6.85682 2.97391 6.85682 3.42857V12.0806C7.40709 12.144 7.97963 12.252 8.57103 12.4063V10.2857H17.1421V15.4337C17.7712 15.4423 18.3454 15.3789 18.8563 15.2794V3.42857C18.8563 2.51926 18.4951 1.64719 17.8521 1.00421C17.2092 0.361223 16.3371 0 15.4279 0C14.5186 0 13.6466 0.361223 13.0036 1.00421C12.3607 1.64719 11.9994 2.51926 11.9994 3.42857V4.28571C11.9994 4.51304 12.0897 4.73106 12.2505 4.89181C12.4112 5.05255 12.6292 5.14286 12.8565 5.14286C13.0839 5.14286 13.3019 5.05255 13.4626 4.89181C13.6233 4.73106 13.7136 4.51304 13.7136 4.28571V3.42857C13.7136 2.97391 13.8943 2.53788 14.2157 2.21639C14.5372 1.8949 14.9732 1.71429 15.4279 1.71429C15.8825 1.71429 16.3185 1.8949 16.64 2.21639C16.9615 2.53788 17.1421 2.97391 17.1421 3.42857V8.57143H8.57103V3.42857C8.57103 2.51926 8.20982 1.64719 7.56687 1.00421C6.92392 0.361223 6.05189 0 5.14262 0C4.23335 0 3.36132 0.361223 2.71836 1.00421C2.07541 1.64719 1.71421 2.51926 1.71421 3.42857V4.28571C1.71421 4.51304 1.80451 4.73106 1.96525 4.89181C2.12598 5.05255 2.34399 5.14286 2.57131 5.14286C2.79863 5.14286 3.01663 5.05255 3.17737 4.89181C3.33811 4.73106 3.42841 4.51304 3.42841 4.28571V3.42857ZM17.2706 18.8571C15.3679 18.8571 13.124 18.3977 10.7086 17.0057C4.84949 13.6269 1.59421 16.752 1.47422 16.8703C1.31174 17.0296 1.09325 17.1189 0.865674 17.1189C0.638101 17.1189 0.419607 17.0296 0.257131 16.8703C0.176138 16.794 0.111602 16.7019 0.0674907 16.5998C0.0233794 16.4976 0.000624741 16.3876 0.000624741 16.2763C0.000624741 16.165 0.0233794 16.0549 0.0674907 15.9528C0.111602 15.8506 0.176138 15.7586 0.257131 15.6823C0.438837 15.5006 4.51693 11.46 11.5829 15.5109C17.7163 19.044 22.4458 15.7166 22.6344 15.5794C22.82 15.4496 23.0486 15.3968 23.2723 15.4319C23.4961 15.4671 23.6975 15.5875 23.8343 15.768C24.1086 16.14 24.04 16.6663 23.6458 16.956C23.4915 17.0743 21.0059 18.8417 17.2706 18.8417V18.8571ZM10.7086 22.1486C13.1257 23.5423 15.3696 24 17.2706 24V23.9829C21.0076 23.9829 23.4898 22.2171 23.644 22.0971C23.7352 22.0321 23.8125 21.9496 23.8714 21.8544C23.9304 21.7592 23.9698 21.6532 23.9873 21.5427C24.0049 21.4321 24.0002 21.3191 23.9737 21.2103C23.9471 21.1016 23.8992 20.9992 23.8326 20.9091C23.6955 20.729 23.494 20.6088 23.2703 20.574C23.0466 20.5392 22.8181 20.5923 22.6327 20.7223C22.4441 20.8594 17.7163 24.1869 11.5829 20.6537C4.51693 16.6029 0.440551 20.6434 0.257131 20.8251C-0.0857103 21.1457 -0.0857103 21.6909 0.257131 22.0131C0.599972 22.3526 1.14852 22.3354 1.47422 22.0131C1.59421 21.8931 4.84949 18.768 10.7086 22.1486Z" fill="#6AC0E3"/>
</g>
<defs>
<clipPath id="clip0_110_4583">
<rect width="24" height="24" fill="white"/>
</clipPath>
</defs>
</svg>
