<svg width="33" height="32" viewBox="0 0 33 32" fill="none" xmlns="http://www.w3.org/2000/svg">
<path d="M15.7984 9.52987L16.6465 10.8872L17.4946 9.52987C18.4593 7.98579 20.1587 7 22.101 7C25.1315 7 27.6465 9.53491 27.6465 12.6667C27.6465 14.0379 27.0244 15.4998 25.96 16.9782C24.9025 18.4468 23.4715 19.8441 22.0063 21.0651C20.5459 22.2821 19.0805 23.3002 17.9776 24.015C17.4271 24.3718 16.9693 24.6515 16.6506 24.8412L16.6484 24.8426L16.6451 24.8406C16.3263 24.6494 15.8683 24.3677 15.3177 24.0087C14.2144 23.2894 12.7486 22.266 11.2877 21.0452C9.82202 19.8203 8.39039 18.4209 7.33256 16.9541C6.26714 15.4768 5.64648 14.0224 5.64648 12.6667C5.64648 9.53491 8.16144 7 11.1919 7C13.1342 7 14.8337 7.98579 15.7984 9.52987Z" stroke="#D32AC3" stroke-width="2"/>
</svg>
