<svg width="24" height="16" viewBox="0 0 24 16" fill="none" xmlns="http://www.w3.org/2000/svg">
<path d="M0.791849 0.000511923C0.578124 0.00282097 0.37426 0.0932582 0.225619 0.251623C0.0769781 0.409988 -0.00428735 0.623189 0.000174494 0.843872V15.1622C-0.00280166 15.3833 0.0801591 15.5963 0.230452 15.7539C0.380745 15.9113 0.586105 16 0.800206 16C1.0143 16 1.21947 15.9113 1.36996 15.7539C1.52025 15.5963 1.60321 15.3833 1.60024 15.1622V13.2347H22.4V15.1622H22.3998C22.3968 15.3833 22.4797 15.5963 22.63 15.7539C22.7805 15.9113 22.9857 16 23.1998 16C23.4139 16 23.6192 15.9113 23.7695 15.7539C23.9198 15.5963 24.0028 15.3833 23.9998 15.1622V6.90134C24.0043 6.67774 23.921 6.46185 23.7686 6.30293C23.6163 6.14399 23.4079 6.05567 23.1914 6.05798C22.9779 6.06028 22.774 6.15072 22.6252 6.30909C22.4766 6.46745 22.3955 6.68065 22.3998 6.90134V7.72742H17.3332C17.3054 7.72588 17.2775 7.72588 17.2498 7.72742C17.0372 7.7382 16.8376 7.83595 16.6952 7.99912C16.5525 8.1621 16.4785 8.37703 16.4896 8.59659C16.5006 8.81595 16.5958 9.02184 16.7541 9.16864C16.9124 9.31565 17.1208 9.39146 17.3332 9.37953H22.3998V11.5824H1.60006V9.37953H14.6665C14.8806 9.38261 15.0871 9.29698 15.2396 9.1417C15.3922 8.98642 15.4781 8.77456 15.4781 8.55349C15.4781 8.33221 15.3922 8.12035 15.2396 7.96508C15.0871 7.80982 14.8806 7.72418 14.6665 7.72745H1.60006V0.843405C1.60453 0.61981 1.52101 0.403914 1.36866 0.244998C1.21632 0.0860565 1.00818 -0.00226133 0.791673 4.40255e-05L0.791849 0.000511923ZM4.17518 2.77117C3.2431 2.77117 2.4003 3.51312 2.4003 4.5093V6.35078L2.40012 6.35097C2.4003 6.56994 2.48456 6.78006 2.63449 6.93494C2.7846 7.08984 2.98809 7.17682 3.20015 7.17701H9.06673C9.27897 7.17682 9.48247 7.08984 9.63239 6.93494C9.7825 6.78004 9.86677 6.56992 9.86677 6.35097V4.50949C9.86677 3.51331 9.02378 2.77136 8.09189 2.77136H4.17527L4.17518 2.77117ZM4.17518 4.42329H8.0918C8.24321 4.42329 8.26683 4.48852 8.26683 4.50931V5.5247H4.00013V4.50931C4.00013 4.48852 4.02375 4.42329 4.17516 4.42329H4.17518Z" fill="#6AC0E3"/>
</svg>
