<svg width="24" height="24" viewBox="0 0 24 24" fill="none" xmlns="http://www.w3.org/2000/svg">
<g clip-path="url(#clip0_46_5239)">
<path d="M5.37202 23.9973H0.39634V7.97769H5.37202V23.9973ZM2.8815 5.79246C1.29078 5.79246 0 4.4749 0 2.88419C0 1.29347 1.29078 0.00268555 2.8815 0.00268555C4.47222 0.00268555 5.763 1.29347 5.763 2.88419C5.763 4.4749 4.47222 5.79246 2.8815 5.79246ZM23.9946 23.9973H19.0297V16.1991C19.0297 14.3406 18.9922 11.9572 16.4428 11.9572C13.8558 11.9572 13.4595 13.9764 13.4595 16.0652V23.9973H8.48918V7.97769H13.2613V10.1629H13.331C13.9951 8.90427 15.6179 7.57599 18.0388 7.57599C23.0734 7.57599 24 10.8913 24 15.1975V23.9973H23.9946Z" fill="white"/>
</g>
<defs>
<clipPath id="clip0_46_5239">
<rect width="24" height="24" fill="white"/>
</clipPath>
</defs>
</svg>
