<svg width="64" height="64" viewBox="0 0 64 64" fill="none" xmlns="http://www.w3.org/2000/svg">
<path fill-rule="evenodd" clip-rule="evenodd" d="M4.79034 53.3974V31.6663C3.81659 32.0412 2.90535 32.0487 2.14785 31.7913C1.55785 31.5913 1.05786 31.2338 0.691607 30.7725C0.326609 30.31 0.0928601 29.7488 0.0216104 29.1288C-0.0858891 28.1688 0.20161 27.0825 1.02036 26.0625C1.06286 26.0125 1.10786 25.9638 1.16286 25.9213L24.9002 7.39262C25.2077 7.11012 25.6815 7.08012 26.0227 7.34637L47.7389 24.2288C46.0526 25.4813 44.3552 26.3013 42.6552 26.7875C41.7277 27.0525 40.7914 27.2238 39.8464 27.315C34.8977 23.27 26.8802 16.9376 25.649 15.9788C23.739 17.4301 7.11908 30.2275 7.11908 30.7675V53.4062L4.79034 53.3974ZM46.1939 40.8225C47.0826 41.335 47.6601 41.76 48.3489 42.5187C50.1339 39.645 52.0714 38.0537 54.5914 35.7937L54.8364 35.6987H57.5938C53.8976 39.805 51.0314 43.1899 48.4651 48.1399C47.1289 45.2837 45.9376 43.3112 43.2739 41.4825L46.1939 40.8225ZM63.9801 31.195C64.3638 45.8187 59.1838 53.6461 50.4364 56.8374L50.4339 56.8361L50.4314 56.8374C41.6852 53.6461 36.5039 45.8187 36.8877 31.195C41.6089 31.445 46.7939 30.1425 50.4314 27.0013C54.5314 30.1588 58.8238 31.4675 63.9801 31.195ZM61.4951 33.1625C61.8088 45.1037 57.5776 51.4949 50.4364 54.1011L50.4339 54.0999L50.4314 54.1011C43.2902 51.4949 39.0602 45.1037 39.3727 33.1625C43.2277 33.3662 47.4614 32.3025 50.4314 29.7375C53.7801 32.3162 57.2851 33.385 61.4951 33.1625ZM26.3515 30.3313V37.815H33.0665V37.7937C33.0665 35.7312 32.2215 33.855 30.8615 32.495C29.6752 31.3088 28.099 30.515 26.3515 30.3313ZM26.3515 39.3962V49.3212H33.0665V39.3962H26.3515ZM24.7715 49.3174V39.3962H18.0565V49.3212H24.7715V49.3174ZM24.7715 37.815V30.3313C23.019 30.5188 21.4465 31.3088 20.2615 32.495C18.9015 33.855 18.0565 35.7312 18.0565 37.7937V37.815H24.7715ZM14.8078 52.6162H36.3114V54.1961H14.8078V52.6162ZM25.5615 28.7088C28.0615 28.7088 30.3327 29.7325 31.9765 31.3763C33.624 33.0225 34.6427 35.2937 34.6427 37.79V50.8937H16.4753V37.79C16.4753 35.29 17.499 33.0187 19.1428 31.3763C20.7903 29.7325 23.0615 28.7088 25.5615 28.7088ZM39.0077 8.64011L46.1501 8.93136V18.5788L39.0077 13.8651V8.64011Z" fill="#73A5E3"/>
</svg>
