<svg width="64" height="64" viewBox="0 0 64 64" fill="none" xmlns="http://www.w3.org/2000/svg">
<g clip-path="url(#clip0_17_4981)">
<path d="M59.9996 40.9999C59.9996 40.011 59.7063 39.0444 59.157 38.2222C58.6076 37.4 57.8267 36.7591 56.9131 36.3807C55.9995 36.0023 54.9942 35.9033 54.0244 36.0962C53.0545 36.2891 52.1636 36.7653 51.4644 37.4645C50.7652 38.1638 50.289 39.0546 50.0961 40.0245C49.9032 40.9944 50.0022 41.9997 50.3806 42.9132C50.759 43.8268 51.3998 44.6077 52.2221 45.1571C53.0443 45.7065 54.0109 45.9997 54.9998 45.9997C56.3258 45.9997 57.5975 45.4729 58.5352 44.5353C59.4728 43.5976 59.9996 42.3259 59.9996 40.9999ZM54.9998 43.9998C54.4065 43.9998 53.8265 43.8238 53.3331 43.4942C52.8398 43.1646 52.4553 42.6961 52.2283 42.1479C52.0012 41.5998 51.9418 40.9966 52.0576 40.4147C52.1733 39.8327 52.459 39.2982 52.8786 38.8787C53.2981 38.4591 53.8326 38.1734 54.4145 38.0577C54.9965 37.9419 55.5996 38.0013 56.1478 38.2284C56.6959 38.4554 57.1645 38.8399 57.4941 39.3333C57.8237 39.8266 57.9997 40.4066 57.9997 40.9999C57.9997 41.7955 57.6836 42.5586 57.121 43.1211C56.5584 43.6837 55.7954 43.9998 54.9998 43.9998Z" fill="#73A5E3"/>
<path d="M58 56.5392C61.884 52.299 64.0264 46.7501 63.9997 40.9999C63.9874 36.3829 62.5905 31.8757 59.9897 28.061C57.3889 24.2462 53.7037 21.2992 49.4104 19.6008C48.08 13.5862 44.5758 8.27452 39.5699 4.68469C34.564 1.09486 28.409 -0.520354 22.2855 0.148885C16.1619 0.818125 10.5011 3.72469 6.38878 8.31104C2.27649 12.8974 0.00231325 18.8406 0.00249807 25.0006C-0.0174224 31.3771 2.42159 37.5158 6.81221 42.1399L0.312485 48.2696C0.166666 48.4076 0.0657879 48.5864 0.0229836 48.7826C-0.0198207 48.9788 -0.00256817 49.1833 0.0724951 49.3695C0.146595 49.5556 0.274856 49.7151 0.440663 49.8274C0.606471 49.9398 0.802185 49.9997 1.00246 49.9995H19.8516C21.5999 54.1611 24.5415 57.7116 28.3054 60.2031C32.0694 62.6945 36.4869 64.0154 41.0007 63.9989H62.9998C63.1972 63.9979 63.3899 63.9385 63.5536 63.8282C63.7173 63.7179 63.8447 63.5616 63.9198 63.3789C63.9963 63.1968 64.0173 62.9961 63.9799 62.8022C63.9425 62.6082 63.8485 62.4296 63.7098 62.289L58 56.5392ZM9.00211 42.8898C9.10143 42.7977 9.181 42.6864 9.236 42.5627C9.29101 42.4389 9.3203 42.3053 9.3221 42.1699C9.32158 42.0352 9.29386 41.9019 9.24059 41.7782C9.18732 41.6545 9.10961 41.5428 9.01211 41.4499C5.19577 37.7205 2.79492 32.7802 2.22082 27.4752C1.64672 22.1702 2.93509 16.8307 5.86525 12.3712C8.7954 7.91178 13.185 4.60994 18.2821 3.03129C23.3792 1.45265 28.8666 1.69545 33.8044 3.71811C38.7421 5.74077 42.8229 9.41741 45.3478 14.1182C47.8726 18.8191 48.6843 24.2515 47.6439 29.4851C46.6035 34.7186 43.7757 39.4276 39.6449 42.8053C35.5141 46.183 30.3374 48.0193 25.0014 47.9996H3.52235L9.00211 42.8898ZM44.0006 41.9999C44.0006 42.7955 43.6846 43.5585 43.122 44.1211C42.5594 44.6837 41.7964 44.9997 41.0007 44.9997C40.7152 44.9971 40.4318 44.9499 40.1608 44.8597C41.5263 43.8123 42.7826 42.6297 43.9106 41.3299C43.9658 41.5491 43.9959 41.7739 44.0006 41.9999ZM41.0007 61.999C37.0189 62.0209 33.1139 60.9027 29.7472 58.7764C26.3805 56.65 23.6928 53.6045 22.0016 49.9995H25.0014C29.7175 50.0024 34.3371 48.6637 38.3209 46.1397C38.3845 46.2134 38.4587 46.2774 38.5408 46.3297C39.2868 46.7675 40.1358 46.9987 41.0007 46.9996C42.3268 46.9996 43.5985 46.4729 44.5361 45.5352C45.4738 44.5976 46.0005 43.3259 46.0005 41.9999C45.9996 41.1349 45.7684 40.2859 45.3306 39.54C48.3753 35.3041 50.0091 30.2172 50.0004 25.0006C49.9977 23.9744 49.9342 22.9494 49.8104 21.9307C53.4436 23.6232 56.5195 26.3156 58.6782 29.6927C60.837 33.0697 61.9891 36.9918 61.9998 40.9999C62.0083 43.7588 61.469 46.492 60.4134 49.041C59.3577 51.59 57.8067 53.9041 55.8501 55.8493C55.6639 56.0366 55.5593 56.2901 55.5593 56.5542C55.5593 56.8184 55.6639 57.0718 55.8501 57.2592L60.5899 61.999H41.0007Z" fill="#73A5E3"/>
<path d="M11.0017 20.0007C10.0129 20.0007 9.04622 20.294 8.22401 20.8434C7.4018 21.3927 6.76096 22.1736 6.38254 23.0872C6.00412 24.0008 5.90511 25.0061 6.09802 25.9759C6.29094 26.9458 6.76713 27.8367 7.46636 28.5359C8.16559 29.2351 9.05647 29.7113 10.0263 29.9042C10.9962 30.0972 12.0015 29.9981 12.9151 29.6197C13.8287 29.2413 14.6095 28.6005 15.1589 27.7783C15.7083 26.956 16.0015 25.9894 16.0015 25.0005C16.0015 23.6745 15.4748 22.4028 14.5371 21.4651C13.5995 20.5275 12.3278 20.0007 11.0017 20.0007ZM11.0017 28.0004C10.4084 28.0004 9.82843 27.8245 9.3351 27.4948C8.84178 27.1652 8.45727 26.6967 8.23022 26.1485C8.00317 25.6004 7.94376 24.9972 8.05951 24.4153C8.17526 23.8334 8.46097 23.2988 8.88051 22.8793C9.30005 22.4598 9.83458 22.174 10.4165 22.0583C10.9984 21.9425 11.6016 22.0019 12.1497 22.229C12.6979 22.4561 13.1664 22.8406 13.496 23.3339C13.8257 23.8272 14.0016 24.4072 14.0016 25.0005C14.0016 25.7961 13.6856 26.5592 13.123 27.1218C12.5604 27.6843 11.7974 28.0004 11.0017 28.0004ZM30.0009 25.0005C30.0009 24.0117 29.7077 23.045 29.1583 22.2228C28.6089 21.4006 27.8281 20.7597 26.9145 20.3813C26.0009 20.0029 24.9956 19.9039 24.0257 20.0968C23.0559 20.2897 22.165 20.7659 21.4658 21.4651C20.7665 22.1644 20.2903 23.0552 20.0974 24.0251C19.9045 24.995 20.0035 26.0003 20.3819 26.9139C20.7604 27.8274 21.4012 28.6083 22.2234 29.1577C23.0456 29.7071 24.0123 30.0003 25.0011 30.0003C26.3272 30.0003 27.5989 29.4735 28.5365 28.5359C29.4742 27.5983 30.0009 26.3265 30.0009 25.0005ZM25.0011 28.0004C24.4078 28.0004 23.8278 27.8245 23.3345 27.4948C22.8412 27.1652 22.4567 26.6967 22.2296 26.1485C22.0026 25.6004 21.9432 24.9972 22.0589 24.4153C22.1747 23.8334 22.4604 23.2988 22.8799 22.8793C23.2995 22.4598 23.834 22.174 24.4159 22.0583C24.9978 21.9425 25.601 22.0019 26.1491 22.229C26.6973 22.4561 27.1658 22.8406 27.4954 23.3339C27.8251 23.8272 28.001 24.4072 28.001 25.0005C28.001 25.7961 27.685 26.5592 27.1224 27.1218C26.5598 27.6843 25.7968 28.0004 25.0011 28.0004ZM39.0005 30.0003C39.9894 30.0003 40.9561 29.7071 41.7783 29.1577C42.6005 28.6083 43.2413 27.8274 43.6197 26.9139C43.9982 26.0003 44.0972 24.995 43.9043 24.0251C43.7113 23.0552 43.2352 22.1644 42.5359 21.4651C41.8367 20.7659 40.9458 20.2897 39.976 20.0968C39.0061 19.9039 38.0008 20.0029 37.0872 20.3813C36.1736 20.7597 35.3928 21.4006 34.8434 22.2228C34.294 23.045 34.0008 24.0117 34.0008 25.0005C34.0008 26.3265 34.5275 27.5983 35.4652 28.5359C36.4028 29.4735 37.6745 30.0003 39.0005 30.0003ZM39.0005 22.0006C39.5939 22.0006 40.1739 22.1766 40.6672 22.5062C41.1605 22.8358 41.545 23.3044 41.7721 23.8525C41.9991 24.4007 42.0585 25.0038 41.9428 25.5858C41.827 26.1677 41.5413 26.7022 41.1218 27.1218C40.7022 27.5413 40.1677 27.827 39.5858 27.9428C39.0039 28.0585 38.4007 27.9991 37.8525 27.772C37.3044 27.545 36.8359 27.1605 36.5062 26.6672C36.1766 26.1738 36.0007 25.5938 36.0007 25.0005C36.0007 24.2049 36.3167 23.4419 36.8793 22.8793C37.4419 22.3167 38.2049 22.0006 39.0005 22.0006Z" fill="#73A5E3"/>
</g>
<defs>
<clipPath id="clip0_17_4981">
<rect width="64" height="64" fill="white"/>
</clipPath>
</defs>
</svg>
