<svg width="64" height="64" viewBox="0 0 64 64" fill="none" xmlns="http://www.w3.org/2000/svg">
<path d="M8.91193 55.3663H14.1303C14.223 56.0225 14.4355 56.6564 14.7553 57.2346L15.1475 58.071H6.00927V56.7137H5.99572V33.7981C4.77747 34.2664 3.6363 34.2773 2.68888 33.9544C1.94929 33.7044 1.32427 33.2565 0.86593 32.6783C0.407587 32.1007 0.116436 31.3976 0.0273712 30.6215C-0.108048 29.4184 0.251334 28.0595 1.2774 26.7829C1.32948 26.7204 1.38677 26.6579 1.45448 26.6058L31.1707 3.40949C31.5561 3.05531 32.1494 3.01885 32.5765 3.35219L62.3615 26.5068C62.4083 26.5433 62.4495 26.5798 62.4912 26.6266C63.8714 28.111 64.2152 29.7564 63.8818 31.147C63.7157 31.8346 63.3875 32.4491 62.9344 32.9591C62.4813 33.4695 61.9031 33.8653 61.2469 34.0992C60.2052 34.4747 58.9656 34.4638 57.7109 33.8705V55.3658H57.7124V58.0705H40.3095L40.4886 57.4012L40.4808 57.3991C40.5845 57.0111 40.6438 56.6132 40.6589 56.2147C40.8032 55.9465 40.9267 55.6626 41.0256 55.3658H54.7941V32.5898C54.7941 32.0637 34.363 15.9139 32.1082 14.1587C29.7181 15.9764 8.91193 31.996 8.91193 32.6731V55.3663ZM48.8305 4.97202L57.7728 5.33661V17.4139L48.8305 11.5133V4.97202ZM37.0276 37.569C36.5682 37.819 35.9948 37.6493 35.7474 37.1925C35.4979 36.7331 35.6677 36.1596 36.1271 35.9128C38.299 34.7341 39.3105 33.2106 39.5146 31.7205C39.6225 30.9246 39.499 30.1257 39.2001 29.3855C38.8943 28.636 38.4099 27.9543 37.7964 27.4053C36.6026 26.3381 34.9276 25.7766 33.1786 26.2115C32.4692 26.387 31.8556 26.7423 31.3186 27.2417C30.7478 27.7725 30.2546 28.4668 29.8223 29.2871C29.579 29.7501 29.0082 29.9257 28.5483 29.685C28.0858 29.4413 27.9097 28.8709 28.1503 28.411C28.6811 27.4053 29.3009 26.5417 30.0353 25.8568C30.8035 25.1443 31.6952 24.6323 32.7312 24.3761C35.1369 23.7807 37.4292 24.5396 39.0579 25.9959C39.8844 26.736 40.5418 27.6584 40.9553 28.6762C41.3715 29.7033 41.5413 30.8324 41.384 31.9767C41.1032 34.0185 39.7949 36.0669 37.0276 37.569ZM29.791 45.0249C26.2128 40.2186 26.1263 35.6654 30.4697 31.4335L27.342 29.7059C24.8367 28.7314 20.2408 35.9159 22.0174 37.8342L24.4544 41.4493L23.9518 42.4983C23.8128 42.8103 23.9487 43.0291 24.2883 43.1801L24.6185 43.2697L19.4788 54.6157L20.7622 57.3523L23.3289 56.5965L23.9888 55.3132L23.3565 54.1288L24.7508 53.8298L25.0748 53.2006L24.3466 52.0897L24.8248 51.1615L26.2159 50.9855L26.6696 50.1063L25.8925 49.0917L26.3889 48.1292L27.8082 47.8979L28.5394 45.4114L28.866 45.5906C29.4332 45.9348 29.7264 45.713 29.791 45.0249ZM36.525 48.0385L36.7802 50.362L35.4692 50.8803L35.1948 51.9074L36.151 52.7188L35.9015 53.6537L34.6062 54.11L34.3406 55.0975L35.2692 56.0074L35.0901 56.6767L33.8161 57.2538L34.6677 58.2564L34.3005 59.6226L32.0025 60.8784L30.2072 58.5242L32.4312 46.9437L31.602 46.7218C31.4322 46.6755 31.3275 46.4994 31.3739 46.3265L31.7223 45.0281C29.2113 43.1249 27.9681 39.8305 28.8316 36.6003C29.9421 32.4512 34.1307 29.9465 38.2834 30.8783C38.3016 31.1002 38.2985 31.3252 38.2677 31.5507C38.1912 32.1122 37.9474 32.6893 37.4969 33.2476C37.4354 33.3216 37.3703 33.3986 37.3026 33.4726C35.976 33.3861 34.7328 34.244 34.3755 35.5768C34.2208 36.1508 34.2552 36.7305 34.4369 37.2518C34.4802 37.4367 34.551 37.6159 34.6432 37.7914C34.8625 38.193 35.1828 38.4977 35.5594 38.692C35.8062 38.855 36.0838 38.979 36.3833 39.0623C37.8729 39.4602 39.4001 38.6024 39.8443 37.1373C40.2949 36.7393 40.6865 36.3201 41.023 35.8883C41.6772 35.0461 42.1241 34.1518 42.3897 33.2413C44.1913 35.1846 44.9835 37.9831 44.2465 40.7347C43.383 43.9645 40.6527 46.1979 37.5307 46.5895L37.1818 47.888C37.136 48.0578 36.9599 48.1625 36.787 48.1161L36.525 48.0385Z" fill="#73A5E3"/>
</svg>
