<svg width="64" height="64" viewBox="0 0 64 64" fill="none" xmlns="http://www.w3.org/2000/svg">
<g clip-path="url(#clip0_17_4974)">
<path d="M17.1875 0C7.71 0 0 7.71 0 17.1875C0 26.665 7.71 34.375 17.1875 34.375C26.665 34.375 34.375 26.665 34.375 17.1875C34.375 7.71 26.665 0 17.1875 0ZM17.1875 32.5C14.159 32.5 11.1985 31.6019 8.68033 29.9194C6.1622 28.2368 4.19956 25.8453 3.04059 23.0473C1.88163 20.2493 1.57839 17.1705 2.16923 14.2002C2.76006 11.2298 4.21844 8.50142 6.35993 6.35993C8.50142 4.21844 11.2298 2.76006 14.2002 2.16923C17.1705 1.57839 20.2493 1.88163 23.0473 3.04059C25.8453 4.19956 28.2368 6.1622 29.9194 8.68033C31.6019 11.1985 32.5 14.159 32.5 17.1875C32.4957 21.2473 30.881 25.1396 28.0103 28.0103C25.1396 30.881 21.2473 32.4957 17.1875 32.5ZM46.8125 29.625C37.335 29.625 29.625 37.335 29.625 46.8125C29.625 56.29 37.335 64 46.8125 64C56.29 64 64 56.29 64 46.8125C64 37.335 56.29 29.625 46.8125 29.625ZM46.8125 62.125C43.784 62.125 40.8235 61.2269 38.3053 59.5444C35.7872 57.8618 33.8246 55.4703 32.6656 52.6723C31.5066 49.8743 31.2034 46.7955 31.7942 43.8252C32.3851 40.8548 33.8434 38.1264 35.9849 35.9849C38.1264 33.8434 40.8548 32.3851 43.8252 31.7942C46.7955 31.2034 49.8743 31.5066 52.6723 32.6656C55.4703 33.8246 57.8618 35.7872 59.5444 38.3053C61.2269 40.8235 62.125 43.784 62.125 46.8125C62.1207 50.8723 60.506 54.7646 57.6353 57.6353C54.7646 60.506 50.8723 62.1207 46.8125 62.125Z" fill="#73A5E3"/>
<path d="M23.1248 13.4375C23.1234 12.431 22.7986 11.4516 22.1984 10.6437C21.5982 9.83574 20.7543 9.24201 19.7911 8.95V7.1875C19.7911 6.93886 19.6923 6.7004 19.5165 6.52459C19.3406 6.34877 19.1022 6.25 18.8536 6.25C18.6049 6.25 18.3665 6.34877 18.1906 6.52459C18.0148 6.7004 17.9161 6.93886 17.9161 7.1875V8.75H16.4586V7.1875C16.4586 6.93886 16.3598 6.7004 16.184 6.52459C16.0081 6.34877 15.7697 6.25 15.5211 6.25C15.2724 6.25 15.034 6.34877 14.8581 6.52459C14.6823 6.7004 14.5836 6.93886 14.5836 7.1875V8.75H12.1873C11.9387 8.75 11.7002 8.84877 11.5244 9.02459C11.3486 9.2004 11.2498 9.43886 11.2498 9.6875C11.2498 9.93614 11.3486 10.1746 11.5244 10.3504C11.7002 10.5262 11.9387 10.625 12.1873 10.625H13.7498V16.25H12.1873C11.9387 16.25 11.7002 16.3488 11.5244 16.5246C11.3486 16.7004 11.2498 16.9389 11.2498 17.1875C11.2498 17.4361 11.3486 17.6746 11.5244 17.8504C11.7002 18.0262 11.9387 18.125 12.1873 18.125H13.7498V23.75H12.1873C11.9387 23.75 11.7002 23.8488 11.5244 24.0246C11.3486 24.2004 11.2498 24.4389 11.2498 24.6875C11.2498 24.9361 11.3486 25.1746 11.5244 25.3504C11.7002 25.5262 11.9387 25.625 12.1873 25.625H14.5836V27.1875C14.5836 27.4361 14.6823 27.6746 14.8581 27.8504C15.034 28.0262 15.2724 28.125 15.5211 28.125C15.7697 28.125 16.0081 28.0262 16.184 27.8504C16.3598 27.6746 16.4586 27.4361 16.4586 27.1875V25.625H17.9161V27.1875C17.9161 27.4361 18.0148 27.6746 18.1906 27.8504C18.3665 28.0262 18.6049 28.125 18.8536 28.125C19.1022 28.125 19.3406 28.0262 19.5165 27.8504C19.6923 27.6746 19.7911 27.4361 19.7911 27.1875V25.425C20.6212 25.175 21.3658 24.6996 21.9419 24.0517C22.518 23.4037 22.9031 22.6087 23.0542 21.755C23.2054 20.9012 23.1168 20.0223 22.7982 19.2159C22.4797 18.4096 21.9437 17.7074 21.2498 17.1875C21.832 16.7509 22.3046 16.1848 22.6301 15.5339C22.9555 14.883 23.1249 14.1652 23.1248 13.4375ZM21.2498 20.9375C21.2491 21.6832 20.9526 22.3982 20.4253 22.9255C19.898 23.4528 19.183 23.7493 18.4373 23.75H15.6248V18.125H18.4373C19.183 18.1257 19.898 18.4222 20.4253 18.9495C20.9526 19.4768 21.2491 20.1918 21.2498 20.9375ZM18.4373 16.25H15.6248V10.625H18.4373C19.1832 10.625 19.8986 10.9213 20.426 11.4488C20.9535 11.9762 21.2498 12.6916 21.2498 13.4375C21.2498 14.1834 20.9535 14.8988 20.426 15.4262C19.8986 15.9537 19.1832 16.25 18.4373 16.25ZM48.5811 45.875H45.0436C44.7379 45.8821 44.4339 45.8281 44.1495 45.7161C43.865 45.604 43.6058 45.4363 43.3871 45.2226C43.1684 45.009 42.9947 44.7538 42.876 44.472C42.7574 44.1902 42.6963 43.8876 42.6963 43.5819C42.6963 43.2761 42.7574 42.9735 42.876 42.6917C42.9947 42.41 43.1684 42.1548 43.3871 41.9411C43.6058 41.7275 43.865 41.5597 44.1495 41.4477C44.4339 41.3356 44.7379 41.2816 45.0436 41.2887H50.8123C51.0609 41.2887 51.2994 41.19 51.4752 41.0142C51.651 40.8383 51.7498 40.5999 51.7498 40.3512C51.7498 40.1026 51.651 39.8642 51.4752 39.6883C51.2994 39.5125 51.0609 39.4137 50.8123 39.4137H49.2498V37.125C49.2498 36.8764 49.151 36.6379 48.9752 36.4621C48.7994 36.2863 48.5609 36.1875 48.3123 36.1875C48.0637 36.1875 47.8252 36.2863 47.6494 36.4621C47.4736 36.6379 47.3748 36.8764 47.3748 37.125V39.4188H46.2498V37.125C46.2498 36.8764 46.151 36.6379 45.9752 36.4621C45.7994 36.2863 45.5609 36.1875 45.3123 36.1875C45.0637 36.1875 44.8252 36.2863 44.6494 36.4621C44.4736 36.6379 44.3748 36.8764 44.3748 37.125V39.4725C43.3483 39.6483 42.4248 40.202 41.7861 41.0246C41.1473 41.8472 40.8396 42.879 40.9235 43.9171C41.0073 44.9552 41.4767 45.9242 42.2392 46.6336C43.0017 47.343 44.0021 47.7412 45.0436 47.75H48.5811C48.8867 47.7429 49.1907 47.7969 49.4751 47.9089C49.7596 48.021 50.0188 48.1887 50.2375 48.4024C50.4562 48.616 50.6299 48.8712 50.7486 49.153C50.8672 49.4348 50.9283 49.7374 50.9283 50.0431C50.9283 50.3489 50.8672 50.6515 50.7486 50.9333C50.6299 51.215 50.4562 51.4702 50.2375 51.6839C50.0188 51.8975 49.7596 52.0653 49.4751 52.1773C49.1907 52.2894 48.8867 52.3434 48.5811 52.3363H42.8123C42.5637 52.3363 42.3252 52.435 42.1494 52.6108C41.9736 52.7867 41.8748 53.0251 41.8748 53.2738C41.8748 53.5224 41.9736 53.7608 42.1494 53.9367C42.3252 54.1125 42.5637 54.2113 42.8123 54.2113H44.3748V56.5C44.3748 56.7486 44.4736 56.9871 44.6494 57.1629C44.8252 57.3387 45.0637 57.4375 45.3123 57.4375C45.5609 57.4375 45.7994 57.3387 45.9752 57.1629C46.151 56.9871 46.2498 56.7486 46.2498 56.5V54.2113H47.3748V56.5C47.3748 56.7486 47.4736 56.9871 47.6494 57.1629C47.8252 57.3387 48.0637 57.4375 48.3123 57.4375C48.5609 57.4375 48.7994 57.3387 48.9752 57.1629C49.151 56.9871 49.2498 56.7486 49.2498 56.5V54.1575C50.2825 53.9881 51.2137 53.4365 51.8584 52.6122C52.5032 51.7879 52.8143 50.7513 52.7301 49.7082C52.6459 48.6652 52.1725 47.6919 51.4038 46.9818C50.6352 46.2716 49.6275 45.8765 48.5811 45.875ZM39.2673 11.875H48.6423C49.7193 11.8763 50.7519 12.3048 51.5135 13.0663C52.275 13.8279 52.7035 14.8605 52.7048 15.9375V23.2362L49.8861 20.4175C49.7094 20.2418 49.4701 20.1435 49.2209 20.1442C48.9717 20.1449 48.733 20.2445 48.5573 20.4212C48.3816 20.5979 48.2833 20.8372 48.284 21.0864C48.2847 21.3356 48.3843 21.5743 48.5611 21.75L52.9798 26.1688C53.0669 26.2559 53.1702 26.325 53.284 26.3721C53.3978 26.4193 53.5198 26.4436 53.6429 26.4436C53.7661 26.4436 53.888 26.4193 54.0018 26.3721C54.1156 26.325 54.219 26.2559 54.3061 26.1688L58.7248 21.75C58.8144 21.6636 58.8859 21.5601 58.935 21.4458C58.9842 21.3314 59.0101 21.2084 59.0113 21.084C59.0124 20.9595 58.9888 20.836 58.9417 20.7208C58.8946 20.6055 58.825 20.5008 58.737 20.4128C58.6491 20.3247 58.5444 20.255 58.4292 20.2078C58.314 20.1607 58.1906 20.1369 58.0661 20.1379C57.9416 20.1389 57.8186 20.1647 57.7042 20.2138C57.5898 20.2629 57.4863 20.3343 57.3998 20.4237L54.5798 23.2425V15.9375C54.5781 14.3633 53.9521 12.854 52.8389 11.7409C51.7258 10.6277 50.2165 10.0017 48.6423 10H39.2673C39.0187 10 38.7802 10.0988 38.6044 10.2746C38.4286 10.4504 38.3298 10.6889 38.3298 10.9375C38.3298 11.1861 38.4286 11.4246 38.6044 11.6004C38.7802 11.7762 39.0187 11.875 39.2673 11.875ZM24.7323 52.125H15.3573C14.2803 52.1237 13.2477 51.6952 12.4861 50.9337C11.7246 50.1721 11.2961 49.1395 11.2948 48.0625V40.7637L14.1136 43.5825C14.2001 43.672 14.3036 43.7434 14.418 43.7924C14.5324 43.8415 14.6554 43.8673 14.7799 43.8684C14.9044 43.8694 15.0278 43.8456 15.143 43.7984C15.2582 43.7512 15.3628 43.6816 15.4508 43.5935C15.5388 43.5054 15.6083 43.4007 15.6554 43.2855C15.7025 43.1702 15.7262 43.0468 15.725 42.9223C15.7239 42.7978 15.698 42.6748 15.6488 42.5605C15.5996 42.4461 15.5281 42.3427 15.4386 42.2562L11.0198 37.8375C10.9327 37.7504 10.8294 37.6813 10.7156 37.6341C10.6018 37.587 10.4798 37.5627 10.3567 37.5627C10.2335 37.5627 10.1116 37.587 9.99777 37.6341C9.88399 37.6813 9.78062 37.7504 9.69355 37.8375L5.2748 42.2562C5.18522 42.3427 5.11375 42.4461 5.06457 42.5605C5.01538 42.6748 4.98946 42.7978 4.98832 42.9223C4.98718 43.0468 5.01084 43.1702 5.05793 43.2855C5.10501 43.4007 5.17457 43.5054 5.26256 43.5935C5.35054 43.6816 5.45518 43.7512 5.57037 43.7984C5.68556 43.8456 5.809 43.8694 5.93348 43.8684C6.05796 43.8673 6.18099 43.8415 6.2954 43.7924C6.4098 43.7434 6.51328 43.672 6.5998 43.5825L9.4198 40.7637V48.0625C9.42146 49.6367 10.0475 51.146 11.1607 52.2591C12.2738 53.3723 13.7831 53.9983 15.3573 54H24.7323C24.9809 54 25.2194 53.9012 25.3952 53.7254C25.571 53.5496 25.6698 53.3111 25.6698 53.0625C25.6698 52.8139 25.571 52.5754 25.3952 52.3996C25.2194 52.2238 24.9809 52.125 24.7323 52.125Z" fill="#73A5E3"/>
</g>
<defs>
<clipPath id="clip0_17_4974">
<rect width="64" height="64" fill="white"/>
</clipPath>
</defs>
</svg>
