<svg width="32" height="32" viewBox="0 0 32 32" fill="none" xmlns="http://www.w3.org/2000/svg">
<g clip-path="url(#clip0_3_5484)">
<path d="M16 0C24.8362 0 32 7.16384 32 16C32 24.8362 24.8358 32 16 32C7.16416 32 0 24.8381 0 16C0 7.16192 7.16288 0 16 0Z" fill="#53AE94"/>
<path d="M17.9742 13.868V11.4879H23.4171V7.86133H8.59594V11.4879H14.0395V13.8661C9.61546 14.0693 6.28906 14.9455 6.28906 15.9951C6.28906 17.0447 9.61706 17.9208 14.0395 18.1253V25.7493H17.9755V18.1247C22.3915 17.9208 25.7111 17.0453 25.7111 15.9967C25.7111 14.948 22.3915 14.0725 17.9755 13.8687M17.9755 17.4789V17.477C17.8644 17.484 17.2939 17.5183 16.0235 17.5183C15.0078 17.5183 14.2932 17.4895 14.0414 17.4764V17.4796C10.1329 17.3064 7.21546 16.6258 7.21546 15.8114C7.21546 14.997 10.1332 14.3173 14.0414 14.1439V16.8015C14.2974 16.8191 15.0295 16.8623 16.0401 16.8623C17.2539 16.8623 17.8641 16.8117 17.9761 16.8015V14.1439C21.8769 14.3176 24.7876 14.9989 24.7876 15.8104C24.7876 16.622 21.8756 17.3036 17.9761 17.4773" fill="white"/>
</g>
<defs>
<clipPath id="clip0_3_5484">
<rect width="32" height="32" fill="white"/>
</clipPath>
</defs>
</svg>
