<svg width="92" height="92" viewBox="0 0 92 92" fill="none" xmlns="http://www.w3.org/2000/svg">
<path fill-rule="evenodd" clip-rule="evenodd" d="M42.9331 4.21676C52.8998 3.06676 62.4831 6.51676 69.7665 13.0334C76.6665 19.1668 80.4998 27.9834 80.4998 37.1834C80.4998 44.0834 78.5831 50.6001 74.3665 56.3501L54.8165 83.5668C52.8998 86.6334 49.4498 88.1668 45.9998 88.1668C42.5498 88.1668 39.0998 86.6334 37.5665 83.9501L18.0165 56.7334C12.2665 49.0668 10.3498 39.8668 12.2665 30.6668C14.9498 16.4834 27.5998 5.36676 42.9331 4.21676ZM59.0332 37.1835C59.0332 44.3816 53.198 50.2169 45.9999 50.2169C38.8018 50.2169 32.9666 44.3816 32.9666 37.1835C32.9666 29.9854 38.8018 24.1502 45.9999 24.1502C53.198 24.1502 59.0332 29.9854 59.0332 37.1835Z" fill="url(#paint0_linear_0_1237)"/>
<defs>
<linearGradient id="paint0_linear_0_1237" x1="0.301535" y1="140.071" x2="103.099" y2="136.674" gradientUnits="userSpaceOnUse">
<stop stop-color="#D029C4"/>
<stop offset="1" stop-color="#46226E"/>
</linearGradient>
</defs>
</svg>
