<svg width="140" height="140" viewBox="0 0 140 140" fill="none" xmlns="http://www.w3.org/2000/svg">
<g clip-path="url(#clip0_13_4616)">
<circle cx="70" cy="70" r="69.5" stroke="#6AC0E3"/>
<circle cx="70.0007" cy="70.0002" r="59.6667" stroke="#6AC0E3" stroke-width="2"/>
</g>
<path d="M100.769 52.2469H39.2308C38.9043 52.2469 38.5913 52.1173 38.3605 51.8865C38.1297 51.6556 38 51.3426 38 51.0162C38 50.6898 38.1297 50.3767 38.3605 50.1459C38.5913 49.9151 38.9043 49.7854 39.2308 49.7854H100.769C101.096 49.7854 101.409 49.9151 101.64 50.1459C101.87 50.3767 102 50.6898 102 51.0162C102 51.3426 101.87 51.6556 101.64 51.8865C101.409 52.1173 101.096 52.2469 100.769 52.2469ZM80.5154 48.3439H80.0069C79.6805 48.3439 79.3675 48.2142 79.1366 47.9834C78.9058 47.7526 78.7762 47.4395 78.7762 47.1131C78.7762 46.7867 78.9058 46.4736 79.1366 46.2428C79.3675 46.012 79.6805 45.8823 80.0069 45.8823H80.5154C80.8418 45.8823 81.1549 46.012 81.3857 46.2428C81.6165 46.4736 81.7462 46.7867 81.7462 47.1131C81.7462 47.4395 81.6165 47.7526 81.3857 47.9834C81.1549 48.2142 80.8418 48.3439 80.5154 48.3439ZM86.6708 48.3439H86.1615C85.8351 48.3439 85.5221 48.2142 85.2913 47.9834C85.0604 47.7526 84.9308 47.4395 84.9308 47.1131C84.9308 46.7867 85.0604 46.4736 85.2913 46.2428C85.5221 46.012 85.8351 45.8823 86.1615 45.8823H86.6708C86.9972 45.8823 87.3102 46.012 87.5411 46.2428C87.7719 46.4736 87.9015 46.7867 87.9015 47.1131C87.9015 47.4395 87.7719 47.7526 87.5411 47.9834C87.3102 48.2142 86.9972 48.3439 86.6708 48.3439ZM92.8254 48.3439H92.3162C91.9897 48.3439 91.6767 48.2142 91.4459 47.9834C91.2151 47.7526 91.0854 47.4395 91.0854 47.1131C91.0854 46.7867 91.2151 46.4736 91.4459 46.2428C91.6767 46.012 91.9897 45.8823 92.3162 45.8823H92.8254C93.1518 45.8823 93.4649 46.012 93.6957 46.2428C93.9265 46.4736 94.0562 46.7867 94.0562 47.1131C94.0562 47.4395 93.9265 47.7526 93.6957 47.9834C93.4649 48.2142 93.1518 48.3439 92.8254 48.3439ZM94.8723 60.0431H79.0423C78.7159 60.0431 78.4028 59.9134 78.172 59.6826C77.9412 59.4518 77.8115 59.1387 77.8115 58.8123C77.8115 58.4859 77.9412 58.1729 78.172 57.942C78.4028 57.7112 78.7159 57.5816 79.0423 57.5816H94.8723C95.1987 57.5816 95.5118 57.7112 95.7426 57.942C95.9734 58.1729 96.1031 58.4859 96.1031 58.8123C96.1031 59.1387 95.9734 59.4518 95.7426 59.6826C95.5118 59.9134 95.1987 60.0431 94.8723 60.0431ZM94.8723 66.3246H79.0423C78.7159 66.3246 78.4028 66.195 78.172 65.9641C77.9412 65.7333 77.8115 65.4203 77.8115 65.0939C77.8115 64.7674 77.9412 64.4544 78.172 64.2236C78.4028 63.9928 78.7159 63.8631 79.0423 63.8631H94.8723C95.1987 63.8631 95.5118 63.9928 95.7426 64.2236C95.9734 64.4544 96.1031 64.7674 96.1031 65.0939C96.1031 65.4203 95.9734 65.7333 95.7426 65.9641C95.5118 66.195 95.1987 66.3246 94.8723 66.3246ZM94.8723 72.6062H79.0423C78.7159 72.6062 78.4028 72.4765 78.172 72.2457C77.9412 72.0149 77.8115 71.7018 77.8115 71.3754C77.8115 71.049 77.9412 70.7359 78.172 70.5051C78.4028 70.2743 78.7159 70.1446 79.0423 70.1446H94.8723C95.1987 70.1446 95.5118 70.2743 95.7426 70.5051C95.9734 70.7359 96.1031 71.049 96.1031 71.3754C96.1031 71.7018 95.9734 72.0149 95.7426 72.2457C95.5118 72.4765 95.1987 72.6062 94.8723 72.6062ZM94.8723 78.8885H79.0423C78.7159 78.8885 78.4028 78.7588 78.172 78.528C77.9412 78.2972 77.8115 77.9841 77.8115 77.6577C77.8115 77.3313 77.9412 77.0182 78.172 76.7874C78.4028 76.5566 78.7159 76.4269 79.0423 76.4269H94.8723C95.1987 76.4269 95.5118 76.5566 95.7426 76.7874C95.9734 77.0182 96.1031 77.3313 96.1031 77.6577C96.1031 77.9841 95.9734 78.2972 95.7426 78.528C95.5118 78.7588 95.1987 78.8885 94.8723 78.8885ZM74.3292 68.9485C74.0353 68.9491 73.751 68.8437 73.5285 68.6516L59.7285 56.8054L45.9292 68.6516C45.8071 68.7598 45.6646 68.8427 45.5101 68.8954C45.3556 68.9481 45.1922 68.9695 45.0293 68.9584C44.8665 68.9473 44.7075 68.904 44.5615 68.8309C44.4156 68.7577 44.2857 68.6563 44.1793 68.5325C44.0729 68.4087 43.9923 68.265 43.942 68.1097C43.8917 67.9544 43.8728 67.7906 43.8864 67.628C43.9 67.4653 43.9458 67.307 44.0212 67.1622C44.0965 67.0174 44.1999 66.8891 44.3254 66.7846L58.9269 54.2462C59.1501 54.0545 59.4346 53.9491 59.7288 53.9491C60.0231 53.9491 60.3076 54.0545 60.5308 54.2462L75.1315 66.7846C75.322 66.9485 75.4578 67.1667 75.5206 67.41C75.5834 67.6533 75.5703 67.91 75.4829 68.1456C75.3956 68.3812 75.2382 68.5844 75.032 68.7279C74.8257 68.8715 74.5805 68.9484 74.3292 68.9485Z" fill="#6EB2E3"/>
<path d="M71.9883 82.5196H47.4691C47.1426 82.5196 46.8296 82.39 46.5988 82.1592C46.368 81.9283 46.2383 81.6153 46.2383 81.2889V65.7073C46.2383 65.3809 46.368 65.0679 46.5988 64.837C46.8296 64.6062 47.1426 64.4766 47.4691 64.4766C47.7955 64.4766 48.1085 64.6062 48.3393 64.837C48.5701 65.0679 48.6998 65.3809 48.6998 65.7073V80.0581H71.9883C72.3147 80.0581 72.6278 80.1878 72.8586 80.4186C73.0894 80.6494 73.219 80.9624 73.219 81.2889C73.219 81.6153 73.0894 81.9283 72.8586 82.1592C72.6278 82.39 72.3147 82.5196 71.9883 82.5196Z" fill="#6EB2E3"/>
<path d="M71.9862 82.5196C71.6598 82.5196 71.3467 82.39 71.1159 82.1592C70.8851 81.9283 70.7554 81.6153 70.7554 81.2889V65.7073C70.7554 65.3809 70.8851 65.0679 71.1159 64.837C71.3467 64.6062 71.6598 64.4766 71.9862 64.4766C72.3126 64.4766 72.6257 64.6062 72.8565 64.837C73.0873 65.0679 73.217 65.3809 73.217 65.7073V81.2889C73.217 81.6153 73.0873 81.9283 72.8565 82.1592C72.6257 82.39 72.3126 82.5196 71.9862 82.5196ZM63.7185 82.5189C63.3921 82.5189 63.0791 82.3892 62.8482 82.1584C62.6174 81.9276 62.4878 81.6145 62.4878 81.2881V71.2881H56.9654V81.2881C56.9654 81.6145 56.8358 81.9276 56.605 82.1584C56.3741 82.3892 56.0611 82.5189 55.7347 82.5189C55.4083 82.5189 55.0952 82.3892 54.8644 82.1584C54.6336 81.9276 54.5039 81.6145 54.5039 81.2881V70.0573C54.5039 69.7309 54.6336 69.4179 54.8644 69.187C55.0952 68.9562 55.4083 68.8266 55.7347 68.8266H63.7185C64.0449 68.8266 64.358 68.9562 64.5888 69.187C64.8196 69.4179 64.9493 69.7309 64.9493 70.0573V81.2881C64.9493 81.6145 64.8196 81.9276 64.5888 82.1584C64.358 82.3892 64.0449 82.5189 63.7185 82.5189Z" fill="#6EB2E3"/>
<path d="M69.9989 65.2306C69.6725 65.2306 69.3595 65.1009 69.1286 64.8701C68.8978 64.6393 68.7682 64.3263 68.7682 63.9998V56.8014H67.5374V60.8322C67.5374 61.1586 67.4077 61.4716 67.1769 61.7024C66.9461 61.9332 66.633 62.0629 66.3066 62.0629C65.9802 62.0629 65.6671 61.9332 65.4363 61.7024C65.2055 61.4716 65.0759 61.1586 65.0759 60.8322V55.5706C65.0759 55.2442 65.2055 54.9311 65.4363 54.7003C65.6671 54.4695 65.9802 54.3398 66.3066 54.3398H69.9989C70.3253 54.3398 70.6384 54.4695 70.8692 54.7003C71.1 54.9311 71.2297 55.2442 71.2297 55.5706V63.9998C71.2297 64.3263 71.1 64.6393 70.8692 64.8701C70.6384 65.1009 70.3253 65.2306 69.9989 65.2306ZM59.7274 67.9845C57.3859 67.9845 55.4805 66.1191 55.4805 63.826C55.4805 61.5329 57.3859 59.6675 59.7274 59.6675C62.0689 59.6675 63.9743 61.5329 63.9743 63.826C63.9743 66.1191 62.0697 67.9845 59.7274 67.9845ZM59.7274 62.1291C58.7435 62.1291 57.942 62.8898 57.942 63.826C57.942 64.7621 58.7435 65.5229 59.7274 65.5229C60.7112 65.5229 61.5128 64.7614 61.5128 63.826C61.5128 62.8906 60.712 62.1291 59.7274 62.1291Z" fill="#6EB2E3"/>
<path d="M95.4185 86.1059H44.5815C42.8366 86.1041 41.1636 85.4101 39.9297 84.1762C38.6958 82.9423 38.0018 81.2694 38 79.5244V48.5605C38.0018 46.8156 38.6958 45.1426 39.9297 43.9087C41.1636 42.6748 42.8366 41.9808 44.5815 41.979H95.4185C97.1634 41.9808 98.8364 42.6748 100.07 43.9087C101.304 45.1426 101.998 46.8156 102 48.5605V79.5244C101.998 81.2694 101.304 82.9423 100.07 84.1762C98.8364 85.4101 97.1634 86.1041 95.4185 86.1059ZM44.5815 44.4405C43.4892 44.4418 42.442 44.8762 41.6696 45.6486C40.8972 46.421 40.4628 47.4682 40.4615 48.5605V79.5244C40.4628 80.6167 40.8972 81.6639 41.6696 82.4363C42.442 83.2087 43.4892 83.6432 44.5815 83.6444H95.4185C96.5108 83.6432 97.558 83.2087 98.3304 82.4363C99.1028 81.6639 99.5372 80.6167 99.5385 79.5244V48.5605C99.5372 47.4682 99.1028 46.421 98.3304 45.6486C97.558 44.8762 96.5108 44.4418 95.4185 44.4405H44.5815ZM82.0369 98.0205H57.96C57.3705 98.0189 56.8056 97.784 56.3888 97.3672C55.9719 96.9503 55.737 96.3854 55.7354 95.7959V92.769C55.737 92.1795 55.9719 91.6146 56.3888 91.1978C56.8056 90.7809 57.3705 90.546 57.96 90.5444H82.0369C82.6264 90.546 83.1913 90.7809 83.6082 91.1978C84.025 91.6146 84.2599 92.1795 84.2615 92.769V95.7936C84.2605 96.3835 84.0259 96.949 83.609 97.3664C83.1921 97.7837 82.6268 98.0189 82.0369 98.0205ZM58.2 95.559H81.8V93.0082H58.2V95.559Z" fill="#6EB2E3"/>
<path d="M80.5708 93.0083C80.4188 93.0082 80.268 92.98 80.1262 92.9253C78.4524 92.2787 76.9623 91.2325 75.7856 89.8779C74.6089 88.5233 73.7815 86.9015 73.3754 85.1537C73.3382 84.9961 73.3325 84.8326 73.3585 84.6727C73.3846 84.5128 73.442 84.3596 73.5274 84.222C73.6129 84.0843 73.7246 83.9649 73.8563 83.8705C73.988 83.7762 74.137 83.7087 74.2948 83.6721C74.4526 83.6354 74.6161 83.6303 74.7759 83.6569C74.9357 83.6836 75.0886 83.7416 75.226 83.8275C75.3633 83.9134 75.4823 84.0256 75.5762 84.1576C75.6701 84.2896 75.737 84.4389 75.7731 84.5968C76.0884 85.9537 76.7308 87.2129 77.6444 88.2644C78.5581 89.316 79.7151 90.1281 81.0146 90.6299C81.2824 90.7336 81.5055 90.9276 81.6452 91.1785C81.785 91.4293 81.8327 91.7211 81.78 92.0033C81.7273 92.2856 81.5776 92.5406 81.3568 92.7241C81.136 92.9076 80.8579 93.0082 80.5708 93.0083ZM59.4262 93.0083C59.139 93.0084 58.8608 92.9079 58.6399 92.7245C58.4189 92.541 58.269 92.286 58.2163 92.0037C58.1635 91.7214 58.2111 91.4295 58.3509 91.1786C58.4906 90.9277 58.7138 90.7336 58.9816 90.6299C60.2813 90.1282 61.4384 89.3162 62.3522 88.2646C63.266 87.213 63.9085 85.9538 64.2239 84.5968C64.26 84.4389 64.3269 84.2896 64.4208 84.1576C64.5146 84.0256 64.6337 83.9134 64.771 83.8275C64.9084 83.7416 65.0613 83.6836 65.2211 83.6569C65.3809 83.6303 65.5444 83.6354 65.7022 83.6721C65.86 83.7087 66.009 83.7762 66.1407 83.8705C66.2724 83.9649 66.3841 84.0843 66.4695 84.222C66.5549 84.3596 66.6123 84.5128 66.6384 84.6727C66.6645 84.8326 66.6588 84.9961 66.6216 85.1537C66.2155 86.9013 65.388 88.523 64.2111 89.8772C63.0343 91.2314 61.5439 92.2771 59.87 92.923C59.7286 92.9786 59.5781 93.0075 59.4262 93.0083Z" fill="#6EB2E3"/>
<defs>
<clipPath id="clip0_13_4616">
<rect width="140" height="140" fill="white"/>
</clipPath>
</defs>
</svg>
