<svg width="140" height="140" viewBox="0 0 140 140" fill="none" xmlns="http://www.w3.org/2000/svg">
<g clip-path="url(#clip0_13_4625)">
<circle cx="70" cy="70" r="69.5" stroke="#6AC0E3"/>
<circle cx="70.0007" cy="69.9999" r="59.6667" stroke="#6AC0E3" stroke-width="2"/>
</g>
<path d="M69.9984 49.8564C59.5436 49.8564 51.0371 58.363 51.0371 68.8177C51.0371 79.2725 59.5436 87.779 69.9984 87.779C80.4532 87.779 88.9597 79.2725 88.9597 68.8177C88.9597 58.363 80.4532 49.8564 69.9984 49.8564ZM69.9984 85.4089C60.8496 85.4089 53.4073 77.9666 53.4073 68.8177C53.4073 59.6689 60.8496 52.2266 69.9984 52.2266C79.1472 52.2266 86.5895 59.6689 86.5895 68.8177C86.5895 77.9666 79.1472 85.4089 69.9984 85.4089Z" fill="#6AC0E3"/>
<path d="M69.9983 54.5967C62.1566 54.5967 55.7773 60.976 55.7773 68.8176C55.7773 76.6593 62.1566 83.0386 69.9983 83.0386C77.84 83.0386 84.2193 76.6593 84.2193 68.8176C84.2193 60.976 77.84 54.5967 69.9983 54.5967ZM69.9983 81.8535C62.8108 81.8535 56.9624 76.0052 56.9624 68.8176C56.9624 61.6301 62.8108 55.7818 69.9983 55.7818C77.1858 55.7818 83.0342 61.6301 83.0342 68.8176C83.0342 76.0052 77.1858 81.8535 69.9983 81.8535Z" fill="#6AC0E3"/>
<path d="M73.2905 67.9172C73.8048 67.1599 74.1058 66.2462 74.1058 65.2638C74.1058 62.6495 71.9798 60.5235 69.3655 60.5235V59.9309C69.3655 59.6038 69.1 59.3384 68.7729 59.3384C68.4458 59.3384 68.1804 59.6038 68.1804 59.9309V60.5235H65.8102V59.9309C65.8102 59.6038 65.5448 59.3384 65.2177 59.3384C64.8906 59.3384 64.6251 59.6038 64.6251 59.9309V60.5412C64.0125 60.5875 63.5254 61.0852 63.5254 61.7085C63.5254 62.3046 63.9662 62.7988 64.5398 62.8818V74.7575C63.9662 74.8404 63.5254 75.3334 63.5254 75.9307C63.5254 76.5552 64.0125 77.053 64.6251 77.098V77.7083C64.6251 78.0354 64.8906 78.3009 65.2177 78.3009C65.5448 78.3009 65.8102 78.0354 65.8102 77.7083V77.1158H68.1804V77.7083C68.1804 78.0354 68.4458 78.3009 68.7729 78.3009C69.1 78.3009 69.3655 78.0354 69.3655 77.7083V77.1158H71.7356C74.3499 77.1158 76.476 74.9897 76.476 72.3755C76.476 70.3075 75.1392 68.5642 73.2905 67.9172ZM71.7356 65.2626C71.7356 66.5697 70.6726 67.6328 69.3655 67.6328H66.9953V62.8924H69.3655C70.6714 62.8924 71.7356 63.9555 71.7356 65.2626ZM71.7356 74.7432H66.9953V70.0029H69.3655H71.7356C73.0428 70.0029 74.1058 71.0659 74.1058 72.3731C74.1058 73.6802 73.0416 74.7432 71.7356 74.7432Z" fill="#6AC0E3"/>
<path d="M93.9073 42.9853C92.5409 41.8619 90.7633 41.4139 89.0367 41.7564C87.4593 42.0669 85.8393 42.2245 84.2205 42.2245C79.3854 42.2245 74.6913 40.8309 70.6466 38.1929C70.2531 37.9357 69.7459 37.9357 69.3525 38.1929C65.3078 40.8309 60.6137 42.2245 55.7785 42.2245C54.1597 42.2245 52.5397 42.0669 50.9636 41.7564C49.2345 41.4139 47.4581 41.8631 46.0929 42.9853C44.717 44.1159 43.9277 45.7857 43.9277 47.568V75.9294C43.9277 84.0567 48.4441 91.3627 55.7122 94.9974L69.4686 101.876C69.6357 101.959 69.817 102 69.9983 102C70.1796 102 70.3622 101.959 70.5281 101.876L84.2845 94.9974C91.555 91.3627 96.0713 84.0555 96.0713 75.9282V47.568C96.0713 45.7857 95.282 44.1159 93.9073 42.9853ZM93.7011 75.9282C93.7011 83.1513 89.6873 89.6455 83.2262 92.8761L69.9995 99.49L56.7728 92.8761C50.3118 89.6467 46.2979 83.1525 46.2979 75.9282V47.568C46.2979 46.4979 46.7707 45.4953 47.5979 44.8163C48.2343 44.2937 49.0188 44.0152 49.8247 44.0152C50.0499 44.0152 50.2786 44.0377 50.5049 44.0815C52.2316 44.4228 54.0057 44.5947 55.7785 44.5947C60.8199 44.5947 65.7202 43.2117 69.9995 40.5879C74.2788 43.2117 79.1792 44.5947 84.2205 44.5947C85.9934 44.5947 87.7674 44.4217 89.4941 44.0815C90.5299 43.8777 91.587 44.1467 92.4011 44.8163C93.2283 45.4953 93.7011 46.4979 93.7011 47.568V75.9282Z" fill="#6AC0E3"/>
<defs>
<clipPath id="clip0_13_4625">
<rect width="140" height="140" fill="white"/>
</clipPath>
</defs>
</svg>
