<svg width="140" height="140" viewBox="0 0 140 140" fill="none" xmlns="http://www.w3.org/2000/svg">
<g clip-path="url(#clip0_13_4607)">
<circle cx="70" cy="70" r="69.5" stroke="#6AC0E3"/>
<circle cx="70.0007" cy="70.0002" r="59.6667" stroke="#6AC0E3" stroke-width="2"/>
</g>
<path d="M43.3333 45.4668H60.4C60.6829 45.4668 60.9542 45.3544 61.1542 45.1544C61.3543 44.9544 61.4667 44.6831 61.4667 44.4002C61.4667 44.1173 61.3543 43.846 61.1542 43.6459C60.9542 43.4459 60.6829 43.3335 60.4 43.3335H43.3333C43.0504 43.3335 42.7791 43.4459 42.5791 43.6459C42.379 43.846 42.2667 44.1173 42.2667 44.4002C42.2667 44.6831 42.379 44.9544 42.5791 45.1544C42.7791 45.3544 43.0504 45.4668 43.3333 45.4668ZM96.6667 47.6002H83.8667C83.5838 47.6002 83.3124 47.7125 83.1124 47.9126C82.9124 48.1126 82.8 48.3839 82.8 48.6668C82.8 48.9497 82.9124 49.221 83.1124 49.4211C83.3124 49.6211 83.5838 49.7335 83.8667 49.7335H96.6667C96.9496 49.7335 97.2209 49.6211 97.4209 49.4211C97.6209 49.221 97.7333 48.9497 97.7333 48.6668C97.7333 48.3839 97.6209 48.1126 97.4209 47.9126C97.2209 47.7125 96.9496 47.6002 96.6667 47.6002ZM96.6667 51.8668H83.8667C83.5838 51.8668 83.3124 51.9792 83.1124 52.1792C82.9124 52.3793 82.8 52.6506 82.8 52.9335C82.8 53.2164 82.9124 53.4877 83.1124 53.6877C83.3124 53.8878 83.5838 54.0002 83.8667 54.0002H96.6667C96.9496 54.0002 97.2209 53.8878 97.4209 53.6877C97.6209 53.4877 97.7333 53.2164 97.7333 52.9335C97.7333 52.6506 97.6209 52.3793 97.4209 52.1792C97.2209 51.9792 96.9496 51.8668 96.6667 51.8668ZM43.3333 49.7335H60.4C60.6829 49.7335 60.9542 49.6211 61.1542 49.4211C61.3543 49.221 61.4667 48.9497 61.4667 48.6668C61.4667 48.3839 61.3543 48.1126 61.1542 47.9126C60.9542 47.7125 60.6829 47.6002 60.4 47.6002H43.3333C43.0504 47.6002 42.7791 47.7125 42.5791 47.9126C42.379 48.1126 42.2667 48.3839 42.2667 48.6668C42.2667 48.9497 42.379 49.221 42.5791 49.4211C42.7791 49.6211 43.0504 49.7335 43.3333 49.7335ZM43.3333 54.0002H54C54.2829 54.0002 54.5542 53.8878 54.7542 53.6877C54.9543 53.4877 55.0667 53.2164 55.0667 52.9335C55.0667 52.6506 54.9543 52.3793 54.7542 52.1792C54.5542 51.9792 54.2829 51.8668 54 51.8668H43.3333C43.0504 51.8668 42.7791 51.9792 42.5791 52.1792C42.379 52.3793 42.2667 52.6506 42.2667 52.9335C42.2667 53.2164 42.379 53.4877 42.5791 53.6877C42.7791 53.8878 43.0504 54.0002 43.3333 54.0002ZM65.2235 88.9442L60.1952 85.9276L58.3285 83.8562C58.1875 83.7104 58.0076 83.6082 57.8101 83.5618V81.8402C58.6878 81.1263 59.396 80.2265 59.8837 79.2057C60.3714 78.1849 60.6264 77.0685 60.6304 75.9372V73.2428L61.7845 67.8967C61.8838 67.3604 61.8747 66.8097 61.7578 66.277C61.6409 65.7442 61.4186 65.2403 61.104 64.7948C60.7912 64.3482 60.3923 63.9687 59.9306 63.6785C59.469 63.3884 58.954 63.1934 58.416 63.1052L51.2352 61.9063C50.2078 61.7314 49.1526 61.9615 48.2913 62.5482C47.43 63.135 46.8297 64.0328 46.6165 65.053C45.7466 65.3029 45.0056 65.8769 44.546 66.6567C44.0864 67.4365 43.9433 68.3628 44.1461 69.245L45.2427 73.2471V75.933C45.2427 78.3159 46.3563 80.4236 48.0629 81.8359V83.5618C47.868 83.6076 47.6904 83.7082 47.5509 83.8519L45.7099 85.8978L40.6368 88.942C39.8345 89.4293 39.1707 90.1143 38.709 90.9316C38.2473 91.7489 38.0032 92.6711 38 93.6098V99.8668C38 100.15 38.1124 100.421 38.3124 100.621C38.5125 100.821 38.7838 100.933 39.0667 100.933C39.3496 100.933 39.6209 100.821 39.8209 100.621C40.021 100.421 40.1333 100.15 40.1333 99.8668V93.6098C40.1333 92.4535 40.7499 91.3655 41.7397 90.7724L46.1216 88.142L48.4619 91.069C48.5558 91.186 48.6733 91.282 48.8067 91.3507C48.9401 91.4194 49.0864 91.4594 49.2363 91.4679L49.296 91.47C49.5788 91.4689 49.8499 91.3571 50.0512 91.1586L51.8581 89.3516V99.8668C51.8581 100.15 51.9705 100.421 52.1706 100.621C52.3706 100.821 52.6419 100.933 52.9248 100.933C53.2077 100.933 53.479 100.821 53.679 100.621C53.8791 100.421 53.9915 100.15 53.9915 99.8668V89.3111L55.8368 91.1564C55.936 91.2554 56.0538 91.3339 56.1834 91.3873C56.313 91.4408 56.4518 91.4681 56.592 91.4679L56.6517 91.4658C56.8017 91.4578 56.9482 91.4181 57.0817 91.3493C57.2152 91.2805 57.3326 91.1843 57.4261 91.0668L59.76 88.1484L64.1291 90.7703C65.1168 91.3676 65.7333 92.4535 65.7333 93.6098V99.8668C65.7333 100.15 65.8457 100.421 66.0457 100.621C66.2458 100.821 66.5171 100.933 66.8 100.933C67.0829 100.933 67.3542 100.821 67.5542 100.621C67.7543 100.421 67.8667 100.15 67.8667 99.8668V93.6098C67.8667 91.709 66.8533 89.9191 65.2235 88.9442ZM46.5013 67.5703C46.6322 67.4083 46.7976 67.2777 46.9855 67.188C47.1734 67.0983 47.379 67.0518 47.5872 67.0519C48.176 67.0519 48.6539 66.493 48.6539 65.9042C48.6542 65.6261 48.715 65.3514 48.832 65.0991C48.949 64.8468 49.1194 64.623 49.3314 64.443C49.5434 64.2631 49.792 64.1313 50.0599 64.0569C50.3278 63.9824 50.6087 63.9671 50.8832 64.0119L58.064 65.2108C58.323 65.2533 58.5709 65.3473 58.793 65.4873C59.015 65.6273 59.2068 65.8104 59.3568 66.0258C59.5058 66.2346 59.6122 66.4708 59.6696 66.7209C59.7271 66.9709 59.7346 67.2299 59.6917 67.4828L58.9941 70.7084L58.5696 70.1794V69.0338C58.5696 68.7509 58.4572 68.4796 58.2572 68.2795C58.0571 68.0795 57.7858 67.9671 57.5029 67.9671H48.368C48.0851 67.9671 47.8138 68.0795 47.6138 68.2795C47.4137 68.4796 47.3013 68.7509 47.3013 69.0338V70.1815L46.7872 70.8215L46.2176 68.7436C46.1755 68.5392 46.1792 68.3281 46.2282 68.1252C46.2773 67.9224 46.3705 67.7329 46.5013 67.5703ZM47.3781 75.933V73.4946L49.2021 71.2226C49.3538 71.033 49.4365 70.7976 49.4368 70.5548V70.0983H56.4384V70.5548C56.4384 70.798 56.5216 71.0348 56.6752 71.2226L58.4971 73.486V75.933C58.4971 79.0007 56.0032 81.4924 52.9376 81.4924C49.872 81.4924 47.3781 79.0007 47.3781 75.933ZM52.9397 83.6279C53.9083 83.6279 54.8256 83.4274 55.6789 83.101V84.2743L52.9419 85.5778L50.1984 84.2722V83.1031C51.0539 83.4274 51.9712 83.6279 52.9397 83.6279ZM49.3835 88.8055L47.7771 86.7959L48.6069 85.8743L51.1179 87.0711L49.3835 88.8055ZM56.5003 88.8055L54.7659 87.0711L57.2768 85.8722L58.1088 86.798L56.5003 88.8055Z" fill="#6AC0E3"/>
<path d="M43.3376 92.7753C43.2432 92.6718 43.1293 92.5879 43.0024 92.5284C42.8756 92.4688 42.7383 92.4349 42.5983 92.4285C42.4584 92.422 42.3185 92.4432 42.1867 92.4908C42.055 92.5384 41.9339 92.6115 41.8304 92.706C41.7269 92.8004 41.6429 92.9142 41.5834 93.0411C41.5239 93.1679 41.49 93.3052 41.4835 93.4452C41.4771 93.5852 41.4983 93.725 41.5459 93.8568C41.5935 93.9885 41.6666 94.1096 41.761 94.2132L42.672 95.2116C43.2309 95.8238 43.5381 96.6153 43.5381 97.4452V99.8665C43.5381 100.149 43.6505 100.421 43.8505 100.621C44.0506 100.821 44.3219 100.933 44.6048 100.933C44.8877 100.933 45.159 100.821 45.359 100.621C45.5591 100.421 45.6714 100.149 45.6714 99.8665V97.443C45.6714 96.0798 45.1658 94.7764 44.2485 93.7716L43.3376 92.7753ZM62.5248 92.7753L61.6138 93.7737C60.6963 94.776 60.1885 96.0863 60.1909 97.4452V99.8665C60.1909 100.149 60.3033 100.421 60.5033 100.621C60.7034 100.821 60.9747 100.933 61.2576 100.933C61.5405 100.933 61.8118 100.821 62.0118 100.621C62.2119 100.421 62.3242 100.149 62.3242 99.8665V97.443C62.3242 96.6132 62.6314 95.8217 63.1904 95.2094L64.1013 94.211C64.2007 94.1084 64.2785 93.9869 64.33 93.8537C64.3815 93.7205 64.4058 93.5782 64.4013 93.4355C64.3968 93.2927 64.3637 93.1523 64.304 93.0225C64.2442 92.8928 64.159 92.7764 64.0534 92.6802C63.9478 92.584 63.8239 92.51 63.6892 92.4626C63.5544 92.4152 63.4115 92.3954 63.2689 92.4042C63.1264 92.4131 62.987 92.4505 62.8592 92.5143C62.7314 92.578 62.6176 92.6668 62.5248 92.7753ZM99.1242 89.3897L91.9008 84.8948V82.1172C92.6885 81.434 93.3209 80.5901 93.7555 79.6422C94.1901 78.6943 94.4167 77.6644 94.4202 76.6217V75.4804L94.5994 75.1838C95.0873 74.1212 95.3391 72.9654 95.3376 71.7961C95.3376 68.6985 93.5776 66.034 91.0261 64.6622C91.184 64.2825 91.2778 63.8857 91.2778 63.4761C91.2778 61.5006 89.3898 59.8921 87.0666 59.8921C84.7434 59.8921 82.8554 61.5006 82.8554 63.4761C82.8554 63.9326 82.96 64.3764 83.1541 64.7924C80.7328 66.2004 79.0816 68.7966 79.0816 71.7961C79.0816 72.8756 79.297 73.923 79.7088 74.9108V76.6217C79.7088 78.8148 80.6944 80.7646 82.2218 82.1129V84.8926L75.0026 89.3918C74.1215 89.9366 73.3949 90.6982 72.8922 91.604C72.3894 92.5097 72.1274 93.5293 72.1312 94.5652V99.8665C72.1312 100.149 72.2435 100.421 72.4436 100.621C72.6436 100.821 72.9149 100.933 73.1978 100.933C73.4807 100.933 73.752 100.821 73.9521 100.621C74.1521 100.421 74.2645 100.149 74.2645 99.8665V94.5652C74.2645 93.187 74.9621 91.9305 76.1312 91.203L80.9589 88.195C82.6897 89.5888 84.8423 90.3537 87.0645 90.3646C89.2857 90.3542 91.4376 89.59 93.168 88.1972L97.9957 91.2009C99.1648 91.9305 99.8645 93.187 99.8645 94.5673V99.8665C99.8645 100.149 99.9769 100.421 100.177 100.621C100.377 100.821 100.648 100.933 100.931 100.933C101.214 100.933 101.485 100.821 101.685 100.621C101.885 100.421 101.998 100.149 101.998 99.8665V94.5673C101.998 92.4468 100.925 90.5118 99.1242 89.3897ZM85.1104 63.9476C85.031 63.8029 84.9885 63.641 84.9866 63.4761C84.9866 62.691 85.9381 62.0254 87.0645 62.0254C88.1909 62.0254 89.1424 62.691 89.1424 63.4761C89.1419 63.6159 89.1098 63.7537 89.0485 63.8793C89.0165 63.8708 88.9824 63.8708 88.9482 63.8622C88.8437 63.8388 88.7349 63.8281 88.6282 63.8089C88.214 63.7341 87.7946 63.692 87.3738 63.683C87.3162 63.6809 87.2629 63.666 87.2074 63.666L87.1434 63.6724C86.5468 63.6798 85.9528 63.7542 85.3728 63.8942C85.2853 63.9156 85.1978 63.9241 85.1104 63.9476ZM85.5392 66.066C85.7205 66.0126 85.8997 65.9486 86.0832 65.9145C86.4309 65.8484 86.7893 65.81 87.1562 65.8057C87.2672 65.8057 87.376 65.8228 87.4869 65.8292C87.7472 65.842 88.0032 65.8633 88.2528 65.906C88.4234 65.9358 88.592 65.9849 88.7605 66.0297C90.085 66.384 91.2479 67.1821 92.0547 68.2906C92.8616 69.3992 93.2636 70.751 93.1936 72.1204C92.429 71.3895 91.4118 70.9821 90.3541 70.9833C88.2421 70.9833 86.224 70.3284 84.5194 69.0932C84.3481 68.968 84.1432 68.8969 83.9311 68.8892C83.719 68.8815 83.5095 68.9376 83.3295 69.05C83.1496 69.1625 83.0074 69.3263 82.9214 69.5203C82.8354 69.7143 82.8094 69.9296 82.8469 70.1385C82.2477 70.4622 81.7087 70.8865 81.2533 71.3929C81.3366 70.1731 81.7923 69.0082 82.5587 68.0556C83.3252 67.103 84.3655 66.4085 85.5392 66.066ZM81.8421 76.6217V75.4057C81.841 74.5596 82.1194 73.7367 82.634 73.0651C83.1486 72.3935 83.8707 71.9106 84.688 71.6916C86.4306 72.6279 88.378 73.1182 90.3562 73.1188C91.3568 73.1188 92.1546 73.8782 92.2848 74.8425V76.6238C92.2848 79.5038 89.9424 81.8441 87.0645 81.8441C84.1866 81.8441 81.8421 79.4996 81.8421 76.6217ZM82.896 86.9876L83.8517 86.3924C84.0031 86.2953 84.127 86.161 84.2115 86.0022C84.2959 85.8434 84.3381 85.6655 84.3338 85.4857H84.353V83.4441C85.1936 83.779 86.1045 83.9753 87.0624 83.9753C88.0181 83.9753 88.9269 83.779 89.7653 83.4462V85.4857C89.7652 85.6672 89.8113 85.8457 89.8994 86.0043C89.9875 86.163 90.1146 86.2965 90.2688 86.3924L91.2288 86.9897C89.9729 87.7526 88.5315 88.1559 87.0621 88.1556C85.5926 88.1552 84.1515 87.7511 82.896 86.9876Z" fill="#6AC0E3"/>
<path d="M77.7717 92.5491C77.6773 92.4454 77.5634 92.3614 77.4365 92.3017C77.3096 92.2421 77.1722 92.208 77.0322 92.2015C76.7493 92.1883 76.4728 92.288 76.2635 92.4787C76.0541 92.6693 75.9291 92.9354 75.9159 93.2182C75.9027 93.5011 76.0024 93.7776 76.1931 93.9869L77.04 94.9171C77.5456 95.4717 77.8229 96.1885 77.8229 96.9373V99.8664C77.8229 100.149 77.9353 100.421 78.1354 100.621C78.3354 100.821 78.6067 100.933 78.8896 100.933C79.1725 100.933 79.4438 100.821 79.6438 100.621C79.8439 100.421 79.9563 100.149 79.9563 99.8664V96.9373C79.9563 95.6531 79.4805 94.4243 78.6165 93.4792L77.7717 92.5491ZM96.3616 92.5491L95.5168 93.4771C94.6517 94.4218 94.1722 95.6564 94.1728 96.9373V99.8664C94.1728 100.149 94.2852 100.421 94.4852 100.621C94.6853 100.821 94.9566 100.933 95.2395 100.933C95.5224 100.933 95.7937 100.821 95.9937 100.621C96.1938 100.421 96.3061 100.149 96.3061 99.8664V96.9373C96.3061 96.1864 96.5835 95.4696 97.0912 94.9171L97.9381 93.9869C98.1288 93.7779 98.2286 93.5016 98.2156 93.219C98.2026 92.9363 98.0779 92.6704 97.8688 92.4797C97.6597 92.2891 97.3835 92.1892 97.1008 92.2023C96.8182 92.2153 96.5523 92.34 96.3616 92.5491ZM41.2 58.2664H42.2667V63.5997C42.2663 63.811 42.3286 64.0176 42.4458 64.1933C42.563 64.3691 42.7297 64.5061 42.9249 64.587C43.12 64.6679 43.3348 64.689 43.542 64.6477C43.7491 64.6064 43.9394 64.5045 44.0885 64.3549L50.1771 58.2664H62.5333C64.2976 58.2664 65.7333 56.8307 65.7333 55.0664V42.2664C65.7333 40.5021 64.2976 39.0664 62.5333 39.0664H41.2C39.4357 39.0664 38 40.5021 38 42.2664V55.0664C38 56.8307 39.4357 58.2664 41.2 58.2664ZM40.1333 42.2664C40.1333 41.9835 40.2457 41.7122 40.4458 41.5122C40.6458 41.3121 40.9171 41.1997 41.2 41.1997H62.5333C62.8162 41.1997 63.0875 41.3121 63.2876 41.5122C63.4876 41.7122 63.6 41.9835 63.6 42.2664V55.0664C63.6 55.3493 63.4876 55.6206 63.2876 55.8207C63.0875 56.0207 62.8162 56.1331 62.5333 56.1331H49.7333C49.4504 56.1335 49.1791 56.2454 48.9781 56.4445L44.4 61.0248V57.1997C44.4 56.9168 44.2876 56.6455 44.0876 56.4455C43.8875 56.2455 43.6162 56.1331 43.3333 56.1331H41.2C40.9171 56.1331 40.6458 56.0207 40.4458 55.8207C40.2457 55.6206 40.1333 55.3493 40.1333 55.0664V42.2664ZM98.8 43.3331H81.7333C79.9691 43.3331 78.5333 44.7688 78.5333 46.5331V55.0664C78.5333 56.8307 79.9691 58.2664 81.7333 58.2664H89.9445L96.0757 62.3539C96.236 62.4617 96.4228 62.5235 96.6158 62.5325C96.8087 62.5415 97.0005 62.4975 97.1701 62.4051C97.3404 62.3145 97.4827 62.1792 97.5819 62.0139C97.6812 61.8485 97.7335 61.6592 97.7333 61.4664V58.2664H98.8C100.564 58.2664 102 56.8307 102 55.0664V46.5331C102 44.7688 100.564 43.3331 98.8 43.3331ZM99.8667 55.0664C99.8667 55.3493 99.7543 55.6206 99.5543 55.8207C99.3542 56.0207 99.0829 56.1331 98.8 56.1331H96.6667C96.3838 56.1331 96.1125 56.2455 95.9124 56.4455C95.7124 56.6455 95.6 56.9168 95.6 57.1997V59.4717L90.8576 56.3123C90.6828 56.1951 90.4771 56.1327 90.2667 56.1331H81.7333C81.4504 56.1331 81.1791 56.0207 80.9791 55.8207C80.779 55.6206 80.6667 55.3493 80.6667 55.0664V46.5331C80.6667 46.2502 80.779 45.9789 80.9791 45.7788C81.1791 45.5788 81.4504 45.4664 81.7333 45.4664H98.8C99.0829 45.4664 99.3542 45.5788 99.5543 45.7788C99.7543 45.9789 99.8667 46.2502 99.8667 46.5331V55.0664Z" fill="#6AC0E3"/>
<defs>
<clipPath id="clip0_13_4607">
<rect width="140" height="140" fill="white"/>
</clipPath>
</defs>
</svg>
