<svg width="140" height="140" viewBox="0 0 140 140" fill="none" xmlns="http://www.w3.org/2000/svg">
<g clip-path="url(#clip0_13_4652)">
<circle cx="70" cy="70" r="69.5" stroke="#6AC0E3"/>
<circle cx="70.0007" cy="69.9999" r="59.6667" stroke="#6AC0E3" stroke-width="2"/>
</g>
<g clip-path="url(#clip1_13_4652)">
<path d="M101.614 56.7415L90.539 48.688C90.7712 48.0586 90.814 47.375 90.6622 46.7215C90.5105 46.0681 90.1707 45.4733 89.6849 45.0107C89.1992 44.548 88.5886 44.2377 87.9285 44.1179C87.2684 43.9982 86.5878 44.0743 85.9704 44.3368C84.0698 42.3349 81.7817 40.7408 79.2453 39.6515C76.709 38.5623 73.9774 38.0006 71.217 38.0007H67.8296C63.7379 38.0088 59.8098 39.6082 56.8762 42.4606C52.9874 41.731 48.9663 42.4739 45.5951 44.5449C42.2238 46.6159 39.7434 49.867 38.6365 53.6655C37.5295 57.4641 37.8751 61.5387 39.606 65.0965C41.337 68.6544 44.3295 71.4412 48.0014 72.9148V96.0617C48.0013 96.1848 48.0255 96.3067 48.0727 96.4204C48.1199 96.5341 48.1891 96.6374 48.2764 96.7242L53.2763 101.724C53.3631 101.811 53.4664 101.881 53.5801 101.928C53.6937 101.975 53.8156 101.999 53.9387 101.999C54.0618 101.999 54.1837 101.975 54.2974 101.928C54.4111 101.881 54.5144 101.811 54.6012 101.724L59.6011 96.7242C59.6883 96.6374 59.7575 96.5341 59.8047 96.4204C59.8519 96.3067 59.8762 96.1848 59.8761 96.0617V93.5618C59.8762 93.4387 59.8519 93.3168 59.8047 93.2031C59.7575 93.0894 59.6883 92.9862 59.6011 92.8993L57.7649 91.0619L59.6011 89.2244C59.6882 89.1375 59.7573 89.0342 59.8044 88.9205C59.8515 88.8068 59.8758 88.685 59.8758 88.5619C59.8758 88.4389 59.8515 88.317 59.8044 88.2033C59.7573 88.0897 59.6882 87.9864 59.6011 87.8994L57.7649 86.062L59.6011 84.2245C59.6882 84.1376 59.7573 84.0343 59.8044 83.9206C59.8515 83.807 59.8758 83.6851 59.8758 83.5621C59.8758 83.439 59.8515 83.3171 59.8044 83.2035C59.7573 83.0898 59.6882 82.9865 59.6011 82.8996L57.7649 81.0621L59.6011 79.2247C59.6883 79.1378 59.7575 79.0346 59.8047 78.9209C59.8519 78.8072 59.8762 78.6853 59.8761 78.5622V72.9148C62.6369 71.8019 65.0317 69.9397 66.7907 67.5383C68.5496 65.1369 69.6026 62.2918 69.8308 59.3239C70.7498 59.5249 71.6855 59.64 72.6258 59.6677V92.4993C72.6258 92.748 72.7245 92.9864 72.9003 93.1622C73.0761 93.338 73.3146 93.4368 73.5632 93.4368H101.063C101.311 93.4368 101.55 93.338 101.725 93.1622C101.901 92.9864 102 92.748 102 92.4993V57.5002C102 57.3523 101.965 57.2065 101.898 57.0746C101.831 56.9428 101.733 56.8286 101.614 56.7415ZM88.8753 47.5005C88.8753 47.8095 88.7837 48.1116 88.612 48.3685C88.4403 48.6255 88.1963 48.8258 87.9108 48.944C87.6253 49.0623 87.3111 49.0932 87.0081 49.0329C86.705 48.9726 86.4266 48.8238 86.2081 48.6053C85.9895 48.3868 85.8407 48.1084 85.7804 47.8053C85.7201 47.5022 85.7511 47.1881 85.8694 46.9026C85.9876 46.6171 86.1879 46.373 86.4448 46.2013C86.7018 46.0297 87.0039 45.938 87.3129 45.938C87.7271 45.9387 88.1241 46.1035 88.417 46.3964C88.7098 46.6893 88.8747 47.0863 88.8753 47.5005ZM58.0011 78.1734L55.7762 80.3996C55.6891 80.4866 55.62 80.5899 55.5729 80.7035C55.5258 80.8172 55.5015 80.9391 55.5015 81.0621C55.5015 81.1852 55.5258 81.307 55.5729 81.4207C55.62 81.5344 55.6891 81.6376 55.7762 81.7246L57.6124 83.5621L55.7762 85.3995C55.6891 85.4865 55.62 85.5897 55.5729 85.7034C55.5258 85.8171 55.5015 85.9389 55.5015 86.062C55.5015 86.185 55.5258 86.3069 55.5729 86.4206C55.62 86.5343 55.6891 86.6375 55.7762 86.7245L57.6124 88.5619L55.7762 90.3994C55.6891 90.4863 55.62 90.5896 55.5729 90.7033C55.5258 90.8169 55.5015 90.9388 55.5015 91.0619C55.5015 91.1849 55.5258 91.3068 55.5729 91.4204C55.62 91.5341 55.6891 91.6374 55.7762 91.7243L58.0011 93.9505V95.673L53.9387 99.7354L49.8763 95.673V73.5373C52.5394 74.2373 55.3381 74.2373 58.0011 73.5373V78.1734ZM53.9387 72.1873C50.2092 72.1873 46.6325 70.7058 43.9953 68.0686C41.3581 65.4315 39.8766 61.8547 39.8766 58.1252C39.8766 54.3957 41.3581 50.8189 43.9953 48.1818C46.6325 45.5446 50.2092 44.0631 53.9387 44.0631C54.4188 44.0632 54.8986 44.0874 55.3762 44.1356C54.6607 45.061 54.0514 46.0639 53.56 47.1255C53.5475 47.1517 53.5375 47.1792 53.525 47.2067C52.538 47.3073 51.6219 47.7655 50.9495 48.4949C50.277 49.2243 49.8946 50.1745 49.8743 51.1664C49.854 52.1583 50.1973 53.1234 50.8394 53.8796C51.4816 54.6359 52.3782 55.1311 53.3602 55.2719C54.3423 55.4128 55.3419 55.1895 56.1707 54.6442C56.9995 54.0989 57.6002 53.2692 57.8595 52.3116C58.1188 51.354 58.0188 50.3346 57.5784 49.4456C57.138 48.5566 56.3876 47.8594 55.4687 47.4855C56.0107 46.4115 56.6916 45.4134 57.4936 44.5168C60.8044 45.3789 63.6874 47.4183 65.6026 50.2532C67.5177 53.088 68.3338 56.5238 67.8978 59.9171C67.4619 63.3104 65.8039 66.4283 63.2343 68.687C60.6647 70.9457 57.3599 72.1902 53.9387 72.1873ZM54.57 53.3441C54.0345 53.5151 53.4538 53.4734 52.9484 53.2275C52.4429 52.9816 52.0516 52.5505 51.8557 52.0236C51.6597 51.4968 51.6742 50.9147 51.8962 50.3983C52.1181 49.8819 52.5304 49.4708 53.0475 49.2504C53.0475 49.3267 53.0413 49.4029 53.0413 49.4792C53.036 50.9159 53.5834 52.2997 54.57 53.3441ZM55.9612 52.0829C55.2884 51.3854 54.9136 50.4533 54.9162 49.4842C54.9162 49.4217 54.9162 49.3592 54.9162 49.2992C55.4091 49.5461 55.7902 49.9703 55.9831 50.4867C56.1761 51.0031 56.1664 51.5733 55.9562 52.0829H55.9612ZM69.8583 57.404C69.7088 54.1994 68.5976 51.1142 66.6695 48.5502C64.7414 45.9862 62.0858 44.0624 59.0486 43.0294C61.5238 40.996 64.6263 39.8817 67.8296 39.8757H71.217C73.6978 39.8756 76.1531 40.3751 78.4366 41.3445C80.7201 42.3139 82.7849 43.7333 84.5079 45.518C84.1855 45.9725 83.9787 46.4986 83.9053 47.0509C83.8319 47.6032 83.8942 48.1651 84.0867 48.688L73.012 56.7415C72.8925 56.8286 72.7952 56.9428 72.728 57.0746C72.6609 57.2065 72.6259 57.3523 72.6258 57.5002V57.7915C71.6923 57.759 70.7648 57.6291 69.8583 57.404ZM100.125 91.5618H74.5007V57.9777L85.1917 50.2029C85.7962 50.679 86.5434 50.9378 87.3129 50.9378C88.0824 50.9378 88.8295 50.679 89.4341 50.2029L100.125 57.9777V91.5618Z" fill="#6AC0E3"/>
<path d="M87.8987 62.9438C87.7325 62.8103 87.5257 62.7375 87.3125 62.7375C87.0993 62.7375 86.8925 62.8103 86.7262 62.9438L77.9765 69.9574C77.7824 70.1129 77.658 70.3391 77.6307 70.5863C77.6034 70.8335 77.6754 71.0814 77.8308 71.2755C77.9863 71.4696 78.2125 71.594 78.4597 71.6213C78.7069 71.6486 78.9548 71.5766 79.1489 71.4211L79.9589 70.7711V78.8247C79.9589 79.0733 80.0577 79.3117 80.2335 79.4875C80.4093 79.6634 80.6478 79.7621 80.8964 79.7621H93.7286C93.9772 79.7621 94.2156 79.6634 94.3915 79.4875C94.5673 79.3117 94.666 79.0733 94.666 78.8247V70.7711L95.476 71.4211C95.6701 71.5766 95.918 71.6486 96.1652 71.6213C96.4124 71.594 96.6386 71.4696 96.7941 71.2755C96.9496 71.0814 97.0216 70.8335 96.9943 70.5863C96.967 70.3391 96.8426 70.1129 96.6485 69.9574L87.8987 62.9438ZM88.25 77.8872H86.375V75.6997C86.375 75.4511 86.4738 75.2126 86.6496 75.0368C86.8254 74.861 87.0638 74.7623 87.3125 74.7623C87.5611 74.7623 87.7996 74.861 87.9754 75.0368C88.1512 75.2126 88.25 75.4511 88.25 75.6997V77.8872ZM92.7911 77.8872H90.1249V75.6997C90.1249 74.9538 89.8286 74.2385 89.3012 73.711C88.7737 73.1836 88.0584 72.8873 87.3125 72.8873C86.5666 72.8873 85.8512 73.1836 85.3238 73.711C84.7964 74.2385 84.5001 74.9538 84.5001 75.6997V77.8872H81.8339V69.2624L87.3125 64.875L92.7911 69.2674V77.8872ZM93.7286 81.6371H80.8964C80.6478 81.6371 80.4093 81.7358 80.2335 81.9117C80.0577 82.0875 79.9589 82.3259 79.9589 82.5746V86.3245C79.9589 86.5731 80.0577 86.8115 80.2335 86.9874C80.4093 87.1632 80.6478 87.2619 80.8964 87.2619H93.7286C93.9772 87.2619 94.2156 87.1632 94.3915 86.9874C94.5673 86.8115 94.666 86.5731 94.666 86.3245V82.5746C94.666 82.3259 94.5673 82.0875 94.3915 81.9117C94.2156 81.7358 93.9772 81.6371 93.7286 81.6371ZM92.7911 85.387H81.8339V83.512H92.7911V85.387Z" fill="#6AC0E3"/>
</g>
<defs>
<clipPath id="clip0_13_4652">
<rect width="140" height="140" fill="white"/>
</clipPath>
<clipPath id="clip1_13_4652">
<rect width="64" height="64" fill="white" transform="translate(38 38)"/>
</clipPath>
</defs>
</svg>
