<svg width="140" height="140" viewBox="0 0 140 140" fill="none" xmlns="http://www.w3.org/2000/svg">
<g clip-path="url(#clip0_13_4661)">
<circle cx="70" cy="70" r="69.5" stroke="#6AC0E3"/>
<circle cx="70.0007" cy="69.9999" r="59.6667" stroke="#6AC0E3" stroke-width="2"/>
</g>
<path d="M72.1205 91.7509L70.9988 92.8726V87.2878C70.9988 87.0227 70.8935 86.7684 70.706 86.5809C70.5185 86.3934 70.2642 86.288 69.999 86.288C69.7338 86.288 69.4795 86.3934 69.292 86.5809C69.1046 86.7684 68.9992 87.0227 68.9992 87.2878V92.8726L67.8775 91.7509C67.6889 91.5687 67.4364 91.468 67.1742 91.4703C66.9121 91.4725 66.6613 91.5777 66.4759 91.763C66.2906 91.9484 66.1854 92.1992 66.1832 92.4613C66.1809 92.7234 66.2817 92.976 66.4638 93.1646L69.2892 95.9899C69.382 96.083 69.4924 96.1569 69.6138 96.2073C69.7353 96.2577 69.8655 96.2837 69.997 96.2837C70.1285 96.2837 70.2587 96.2577 70.3802 96.2073C70.5016 96.1569 70.612 96.083 70.7048 95.9899L73.5302 93.1646C73.7124 92.976 73.8131 92.7234 73.8108 92.4613C73.8086 92.1992 73.7034 91.9484 73.5181 91.763C73.3327 91.5777 73.0819 91.4725 72.8198 91.4703C72.5576 91.468 72.3051 91.5687 72.1165 91.7509H72.1205ZM99.9585 57.9222L72.6904 40.498C71.8863 39.9865 70.953 39.7148 70 39.7148C69.047 39.7148 68.1137 39.9865 67.3096 40.498L54.0025 49.0061V45.2969C54.0025 44.5015 53.6865 43.7386 53.124 43.1761C52.5615 42.6136 51.7986 42.2976 51.0031 42.2976H47.004C46.2085 42.2976 45.4456 42.6136 44.8831 43.1761C44.3206 43.7386 44.0046 44.5015 44.0046 45.2969V55.3908L40.0395 57.9222C39.393 58.3331 38.865 58.9057 38.5077 59.5833C38.1504 60.2609 37.9763 61.0201 38.0026 61.7857C38.0288 62.5513 38.2546 63.2968 38.6574 63.9483C39.0603 64.5999 39.6263 65.1349 40.2994 65.5006C40.8625 65.809 41.4872 65.9881 42.1281 66.0248C42.7691 66.0615 43.4101 65.9548 44.0046 65.7125V95.2861C44.0046 96.6119 44.5313 97.8834 45.4688 98.8209C46.4063 99.7583 47.6778 100.285 49.0036 100.285H90.9944C92.3202 100.285 93.5917 99.7583 94.5292 98.8209C95.4667 97.8834 95.9934 96.6119 95.9934 95.2861V65.7045C96.4966 65.9193 97.036 66.0367 97.583 66.0504C98.3237 66.049 99.0521 65.8606 99.7006 65.5026C100.374 65.1369 100.94 64.6019 101.343 63.9503C101.745 63.2988 101.971 62.5533 101.997 61.7877C102.024 61.0221 101.85 60.2629 101.492 59.5853C101.135 58.9077 100.607 58.3351 99.9605 57.9242L99.9585 57.9222ZM46.0042 45.2969C46.0042 45.0318 46.1095 44.7775 46.297 44.59C46.4845 44.4025 46.7388 44.2972 47.004 44.2972H51.0031C51.2683 44.2972 51.5226 44.4025 51.7101 44.59C51.8976 44.7775 52.0029 45.0318 52.0029 45.2969V50.2819L46.0042 54.113V45.2969ZM93.9938 95.2861C93.9938 96.0816 93.6778 96.8445 93.1153 97.407C92.5528 97.9694 91.7899 98.2854 90.9944 98.2854H49.0036C48.2081 98.2854 47.4452 97.9694 46.8827 97.407C46.3202 96.8445 46.0042 96.0816 46.0042 95.2861V64.5648L69.4591 49.508C69.62 49.4051 69.807 49.3504 69.998 49.3504C70.189 49.3504 70.376 49.4051 70.5369 49.508L93.9938 64.5648V95.2861ZM98.7408 63.7469C98.3628 63.9576 97.9345 64.061 97.5021 64.0458C97.0696 64.0306 96.6496 63.8976 96.2873 63.661L71.6207 47.8264C71.1365 47.5176 70.5742 47.3535 70 47.3535C69.4258 47.3535 68.8635 47.5176 68.3794 47.8264L43.7107 63.661C43.3476 63.8965 42.9276 64.0294 42.4951 64.0457C42.0626 64.0619 41.6337 63.9609 41.254 63.7533C40.8742 63.5457 40.5577 63.2392 40.3379 62.8664C40.1181 62.4935 40.0033 62.0682 40.0055 61.6354C40.005 61.2311 40.1067 60.8333 40.301 60.4789C40.4954 60.1244 40.7762 59.8248 41.1173 59.6078L68.3854 42.1936C68.8671 41.8864 69.4266 41.7232 69.998 41.7232C70.5694 41.7232 71.1289 41.8864 71.6107 42.1936L98.8807 59.6078C99.2348 59.8315 99.5241 60.1439 99.72 60.514C99.9158 60.8841 100.011 61.299 99.9973 61.7175C99.9831 62.136 99.8597 62.5435 99.6393 62.8996C99.4188 63.2556 99.1091 63.5477 98.7408 63.7469ZM70.9988 80.8652H68.9992C68.4689 80.8652 67.9603 80.6546 67.5853 80.2796C67.2103 79.9046 66.9997 79.396 66.9997 78.8657C66.9997 78.6005 66.8943 78.3462 66.7068 78.1587C66.5193 77.9712 66.265 77.8659 65.9999 77.8659C65.7347 77.8659 65.4804 77.9712 65.2929 78.1587C65.1054 78.3462 65.0001 78.6005 65.0001 78.8657C65.0001 79.9263 65.4214 80.9435 66.1714 81.6935C66.9214 82.4435 67.9386 82.8648 68.9992 82.8648V83.8646C68.9992 84.1297 69.1046 84.384 69.292 84.5715C69.4795 84.759 69.7338 84.8644 69.999 84.8644C70.2642 84.8644 70.5185 84.759 70.706 84.5715C70.8935 84.384 70.9988 84.1297 70.9988 83.8646V82.8648C72.0594 82.8648 73.0766 82.4435 73.8266 81.6935C74.5766 80.9435 74.9979 79.9263 74.9979 78.8657C74.9979 77.805 74.5766 76.7878 73.8266 76.0378C73.0766 75.2879 72.0594 74.8665 70.9988 74.8665H68.9992C68.4689 74.8665 67.9603 74.6559 67.5853 74.2809C67.2103 73.9059 66.9997 73.3973 66.9997 72.867C66.9997 72.3366 67.2103 71.828 67.5853 71.4531C67.9603 71.0781 68.4689 70.8674 68.9992 70.8674H70.9988C71.5291 70.8674 72.0377 71.0781 72.4127 71.4531C72.7877 71.828 72.9984 72.3366 72.9984 72.867C72.9984 73.1321 73.1037 73.3864 73.2912 73.5739C73.4787 73.7614 73.733 73.8667 73.9981 73.8667C74.2633 73.8667 74.5176 73.7614 74.7051 73.5739C74.8926 73.3864 74.9979 73.1321 74.9979 72.867C74.9979 71.8063 74.5766 70.7891 73.8266 70.0391C73.0766 69.2892 72.0594 68.8678 70.9988 68.8678V67.868C70.9988 67.6029 70.8935 67.3486 70.706 67.1611C70.5185 66.9736 70.2642 66.8683 69.999 66.8683C69.7338 66.8683 69.4795 66.9736 69.292 67.1611C69.1046 67.3486 68.9992 67.6029 68.9992 67.868V68.8678C67.9386 68.8678 66.9214 69.2892 66.1714 70.0391C65.4214 70.7891 65.0001 71.8063 65.0001 72.867C65.0001 73.9276 65.4214 74.9448 66.1714 75.6948C66.9214 76.4448 67.9386 76.8661 68.9992 76.8661H70.9988C71.5291 76.8661 72.0377 77.0768 72.4127 77.4518C72.7877 77.8267 72.9984 78.3353 72.9984 78.8657C72.9984 79.396 72.7877 79.9046 72.4127 80.2796C72.0377 80.6546 71.5291 80.8652 70.9988 80.8652ZM57.0018 75.8663C56.9976 78.5545 57.83 81.1774 59.3836 83.3712C60.9371 85.565 63.1349 87.2211 65.6719 88.1097C65.7971 88.1582 65.9309 88.1811 66.0651 88.1769C66.1993 88.1727 66.3313 88.1414 66.4533 88.0851C66.5752 88.0287 66.6845 87.9484 66.7746 87.8488C66.8648 87.7493 66.934 87.6326 66.9781 87.5057C67.0221 87.3789 67.0402 87.2444 67.0312 87.1104C67.0222 86.9764 66.9862 86.8456 66.9255 86.7258C66.8648 86.606 66.7806 86.4996 66.6779 86.4131C66.5752 86.3265 66.4562 86.2616 66.3278 86.2221C63.8828 85.3562 61.8225 83.654 60.5109 81.4162C59.1994 79.1785 58.721 76.5491 59.1602 73.9928C59.5995 71.4365 60.9282 69.1177 62.9115 67.4461C64.8949 65.7745 67.4052 64.8577 69.999 64.8577C72.5928 64.8577 75.1031 65.7745 77.0865 67.4461C79.0698 69.1177 80.3985 71.4365 80.8378 73.9928C81.277 76.5491 80.7986 79.1785 79.4871 81.4162C78.1755 83.654 76.1152 85.3562 73.6702 86.2221C73.4474 86.2999 73.2594 86.4541 73.1393 86.6572C73.0193 86.8604 72.975 87.0995 73.0142 87.3322C73.0535 87.5649 73.1738 87.7762 73.3539 87.9287C73.5339 88.0813 73.7621 88.1652 73.9981 88.1656C74.1098 88.1654 74.2206 88.1465 74.3261 88.1097C76.5737 87.3161 78.5598 85.9198 80.0671 84.0734C81.5745 82.227 82.5451 80.0016 82.8728 77.6407C83.2005 75.2797 82.8726 72.8741 81.925 70.687C80.9775 68.4999 79.4467 66.6155 77.5002 65.2398C75.5536 63.8642 73.2663 63.0503 70.8883 62.8872C68.5103 62.7241 66.1333 63.2181 64.0172 64.3151C61.9011 65.4121 60.1274 67.0699 58.8901 69.1072C57.6528 71.1445 56.9995 73.4827 57.0018 75.8663Z" fill="#6AC0E3"/>
<defs>
<clipPath id="clip0_13_4661">
<rect width="140" height="140" fill="white"/>
</clipPath>
</defs>
</svg>
