<svg width="140" height="140" viewBox="0 0 140 140" fill="none" xmlns="http://www.w3.org/2000/svg">
<g clip-path="url(#clip0_13_4634)">
<circle cx="70" cy="70" r="69.5" stroke="#6AC0E3"/>
<circle cx="70.0007" cy="69.9999" r="59.6667" stroke="#6AC0E3" stroke-width="2"/>
</g>
<g clip-path="url(#clip1_13_4634)">
<path d="M97.131 42.0354H94.2048V40.6037C94.2048 39.9132 93.9305 39.2509 93.4422 38.7626C92.9539 38.2743 92.2916 38 91.601 38H68.7888C68.0976 38 67.4345 38.2741 66.9449 38.7621C66.4554 39.2502 66.1793 39.9125 66.1772 40.6037V42.0354H63.2589C62.687 42.0354 62.1208 42.1485 61.5929 42.3683C61.065 42.5881 60.5857 42.9102 60.1829 43.316C59.78 43.7218 59.4614 44.2033 59.2454 44.7328C59.0294 45.2623 58.9204 45.8293 58.9245 46.4012V64.588H39.3218C39.1132 64.588 38.9131 64.6709 38.7656 64.8184C38.618 64.9659 38.5352 65.166 38.5352 65.3746V96.0924C38.5352 96.3011 38.618 96.5011 38.7656 96.6487C38.9131 96.7962 39.1132 96.8791 39.3218 96.8791H56.4545V100.427H52.5214C52.3128 100.427 52.1127 100.51 51.9652 100.657C51.8176 100.805 51.7348 101.005 51.7348 101.213C51.7348 101.422 51.8176 101.622 51.9652 101.77C52.1127 101.917 52.3128 102 52.5214 102H70.4722C70.6809 102 70.8809 101.917 71.0285 101.77C71.176 101.622 71.2589 101.422 71.2589 101.213C71.2589 101.005 71.176 100.805 71.0285 100.657C70.8809 100.51 70.6809 100.427 70.4722 100.427H66.5391V99.6401H97.131C98.2731 99.6422 99.3696 99.1927 100.182 98.3896C100.993 97.5865 101.455 96.495 101.465 95.353V46.4012C101.47 45.8293 101.36 45.2623 101.144 44.7328C100.929 44.2033 100.61 43.7218 100.207 43.316C99.8041 42.9102 99.3249 42.5881 98.797 42.3683C98.2691 42.1485 97.7029 42.0354 97.131 42.0354ZM67.7584 40.6037C67.7604 40.3297 67.8708 40.0676 68.0653 39.8746C68.2598 39.6816 68.5227 39.5732 68.7967 39.5733H91.6089C91.8822 39.5733 92.1443 39.6818 92.3376 39.8751C92.5308 40.0683 92.6394 40.3304 92.6394 40.6037V44.1593C92.6394 44.4326 92.5308 44.6947 92.3376 44.888C92.1443 45.0812 91.8822 45.1898 91.6089 45.1898H68.7967C68.5227 45.1898 68.2598 45.0815 68.0653 44.8884C67.8708 44.6954 67.7604 44.4333 67.7584 44.1593V40.6037ZM82.9088 66.1613V91.6794H40.1084V66.1613H82.9088ZM40.1084 93.2527H82.9088V95.3058H40.1084V93.2527ZM58.0278 96.8791H64.9894V100.427H58.0278V96.8791ZM99.8921 95.353C99.8911 95.7146 99.8188 96.0724 99.6795 96.406C99.5402 96.7396 99.3365 97.0426 99.0801 97.2975C98.8238 97.5524 98.5197 97.7544 98.1852 97.8918C97.8508 98.0292 97.4926 98.0994 97.131 98.0983H66.5627V96.8791H83.6954C83.9041 96.8791 84.1041 96.7962 84.2517 96.6487C84.3992 96.5011 84.4821 96.3011 84.4821 96.0924V87.6598H95.778C95.9867 87.6598 96.1867 87.5769 96.3343 87.4294C96.4818 87.2819 96.5647 87.0818 96.5647 86.8732C96.5647 86.6645 96.4818 86.4644 96.3343 86.3169C96.1867 86.1694 95.9867 86.0865 95.778 86.0865H84.4821V74.2871H95.778C95.9867 74.2871 96.1867 74.2042 96.3343 74.0567C96.4818 73.9092 96.5647 73.7091 96.5647 73.5005C96.5647 73.2919 96.4818 73.0918 96.3343 72.9443C96.1867 72.7967 95.9867 72.7139 95.778 72.7139H84.4821V65.3746C84.4821 65.166 84.3992 64.9659 84.2517 64.8184C84.1041 64.6709 83.9041 64.588 83.6954 64.588H60.4978V46.4012C60.4978 45.6689 60.7887 44.9666 61.3065 44.4488C61.8243 43.931 62.5266 43.6401 63.2589 43.6401H66.1851V44.1908C66.1872 44.882 66.4633 45.5443 66.9528 46.0324C67.4424 46.5204 68.1054 46.7945 68.7967 46.7945H91.6089C92.2995 46.7945 92.9617 46.5202 93.45 46.0319C93.9383 45.5436 94.2126 44.8813 94.2126 44.1908V43.6401H97.1389C97.8698 43.6422 98.5701 43.934 99.0862 44.4516C99.6023 44.9692 99.8921 45.6703 99.8921 46.4012V95.353Z" fill="#6AC0E3"/>
<path d="M95.7772 59.2861H77.1814C76.9727 59.2861 76.7726 59.3689 76.6251 59.5165C76.4776 59.664 76.3947 59.8641 76.3947 60.0727C76.3947 60.2813 76.4776 60.4814 76.6251 60.6289C76.7726 60.7764 76.9727 60.8593 77.1814 60.8593H95.7772C95.9858 60.8593 96.1859 60.7764 96.3335 60.6289C96.481 60.4814 96.5638 60.2813 96.5638 60.0727C96.5638 59.8641 96.481 59.664 96.3335 59.5165C96.1859 59.3689 95.9858 59.2861 95.7772 59.2861ZM74.3023 54.3225L68.2374 60.3873V57.3431C68.2374 57.1345 68.1545 56.9344 68.007 56.7869C67.8595 56.6393 67.6594 56.5565 67.4508 56.5565C67.2421 56.5565 67.0421 56.6393 66.8945 56.7869C66.747 56.9344 66.6641 57.1345 66.6641 57.3431V62.2831C66.6634 62.4398 66.7094 62.5931 66.7962 62.7234C66.8831 62.8537 67.007 62.9552 67.1519 63.0147C67.247 63.0523 67.3485 63.071 67.4508 63.0697C67.5543 63.0703 67.6569 63.0505 67.7528 63.0114C67.8486 62.9722 67.9358 62.9145 68.0093 62.8416L75.4114 55.4316C75.5403 55.2811 75.6077 55.0875 75.6 54.8896C75.5924 54.6916 75.5103 54.5038 75.3702 54.3637C75.2301 54.2236 75.0423 54.1415 74.8443 54.1339C74.6464 54.1262 74.4528 54.1936 74.3023 54.3225ZM51.4272 83.7895C51.5223 83.8271 51.6238 83.8458 51.7261 83.8446C51.8296 83.8452 51.9322 83.8253 52.0281 83.7862C52.1239 83.747 52.2111 83.6894 52.2846 83.6165L59.6868 76.2064C59.8156 76.0559 59.883 75.8624 59.8753 75.6644C59.8677 75.4664 59.7856 75.2786 59.6455 75.1385C59.5054 74.9984 59.3176 74.9164 59.1196 74.9087C58.9217 74.9011 58.7281 74.9684 58.5776 75.0973L52.5127 81.1622V78.1258C52.5127 77.9172 52.4298 77.7171 52.2823 77.5696C52.1348 77.422 51.9347 77.3392 51.7261 77.3392C51.5175 77.3392 51.3174 77.422 51.1699 77.5696C51.0223 77.7171 50.9395 77.9172 50.9395 78.1258V83.0579C50.9387 83.2146 50.9847 83.3679 51.0716 83.4982C51.1585 83.6286 51.2823 83.73 51.4272 83.7895Z" fill="#6AC0E3"/>
<path d="M54.4403 88.761C56.4433 88.761 58.4013 88.1668 60.0665 87.0537C61.7317 85.9406 63.0293 84.3585 63.7951 82.5077C64.5609 80.6569 64.7604 78.6205 64.3685 76.6562C63.9766 74.6919 63.0108 72.8881 61.5934 71.4728C60.176 70.0576 58.3706 69.0947 56.4057 68.7058C54.4409 68.3169 52.4048 68.5197 50.5552 69.2883C48.7055 70.057 47.1255 71.3571 46.015 73.024C44.9044 74.6909 44.3133 76.6498 44.3164 78.6528C44.3133 79.9824 44.5732 81.2996 45.081 82.5284C45.5889 83.7572 46.3347 84.8734 47.2757 85.8129C48.2166 86.7523 49.334 87.4965 50.5636 88.0024C51.7932 88.5084 53.1107 88.7662 54.4403 88.761ZM54.4403 70.0864C56.1308 70.0864 57.7834 70.5875 59.1892 71.5264C60.595 72.4653 61.6909 73.7998 62.3386 75.3613C62.9862 76.9228 63.1565 78.6412 62.8278 80.2995C62.4991 81.9577 61.6863 83.4813 60.4921 84.6777C59.2978 85.8742 57.7757 86.6898 56.1181 87.0215C54.4605 87.3532 52.7417 87.1861 51.179 86.5413C49.6163 85.8966 48.2798 84.8031 47.3384 83.399C46.3969 81.9949 45.8928 80.3433 45.8897 78.6528C45.8834 77.5274 46.1002 76.412 46.5275 75.3709C46.9548 74.3298 47.5842 73.3836 48.3792 72.5871C49.1743 71.7906 50.1192 71.1595 51.1596 70.7303C52.1999 70.3011 53.3149 70.0823 54.4403 70.0864Z" fill="#6AC0E3"/>
</g>
<defs>
<clipPath id="clip0_13_4634">
<rect width="140" height="140" fill="white"/>
</clipPath>
<clipPath id="clip1_13_4634">
<rect width="64" height="64" fill="white" transform="translate(38 38)"/>
</clipPath>
</defs>
</svg>
