<svg width="140" height="140" viewBox="0 0 140 140" fill="none" xmlns="http://www.w3.org/2000/svg">
<g clip-path="url(#clip0_13_4643)">
<circle cx="70" cy="70" r="69.5" stroke="#6AC0E3"/>
<circle cx="70.0007" cy="69.9999" r="59.6667" stroke="#6AC0E3" stroke-width="2"/>
</g>
<g clip-path="url(#clip1_13_4643)">
<path d="M55.0666 38C45.6565 38 38 45.6565 38 55.0666C38 64.4767 45.6565 72.1332 55.0666 72.1332C64.4767 72.1332 72.1332 64.4767 72.1332 55.0666C72.1332 45.6565 64.4767 38 55.0666 38ZM55.0666 69.9999C46.832 69.9999 40.1333 63.3012 40.1333 55.0666C40.1333 46.832 46.832 40.1333 55.0666 40.1333C63.3012 40.1333 69.9999 46.832 69.9999 55.0666C69.9999 63.3012 63.3012 69.9999 55.0666 69.9999Z" fill="#6AC0E3"/>
<path d="M84.9338 67.8667C75.5237 67.8667 67.8672 75.5232 67.8672 84.9333C67.8672 94.3434 75.5237 102 84.9338 102C94.3439 102 102 94.3434 102 84.9333C102 75.5232 94.3439 67.8667 84.9338 67.8667ZM84.9338 99.8666C76.6992 99.8666 70.0005 93.1679 70.0005 84.9333C70.0005 76.6987 76.6992 70 84.9338 70C93.1684 70 99.8671 76.6987 99.8671 84.9333C99.8671 93.1679 93.1684 99.8666 84.9338 99.8666Z" fill="#6AC0E3"/>
<path d="M55.0675 42.2666C48.0094 42.2666 42.2676 48.0084 42.2676 55.0665C42.2676 62.1247 48.0094 67.8665 55.0675 67.8665C62.1256 67.8665 67.8675 62.1247 67.8675 55.0665C67.8675 48.0084 62.1256 42.2666 55.0675 42.2666ZM55.0675 66.7998C48.5982 66.7998 43.3342 61.5359 43.3342 55.0665C43.3342 48.5972 48.5982 43.3333 55.0675 43.3333C61.5368 43.3333 66.8008 48.5972 66.8008 55.0665C66.8008 61.5359 61.5368 66.7998 55.0675 66.7998Z" fill="#6AC0E3"/>
<path d="M58.0286 54.255C58.4916 53.5734 58.7625 52.751 58.7625 51.8668C58.7625 49.5137 56.8489 47.6001 54.4959 47.6001V47.0668C54.4959 46.7724 54.2569 46.5334 53.9625 46.5334C53.6681 46.5334 53.4292 46.7724 53.4292 47.0668V47.6001H51.2959V47.0668C51.2959 46.7724 51.0569 46.5334 50.7625 46.5334C50.4681 46.5334 50.2292 46.7724 50.2292 47.0668V47.615C49.6777 47.6556 49.2383 48.1046 49.2383 48.6668C49.2383 49.2044 49.6361 49.6492 50.1524 49.7228V60.4107C49.6351 60.4843 49.2383 60.9291 49.2383 61.4667C49.2383 62.0289 49.6777 62.4769 50.2292 62.5185V63.0667C50.2292 63.3611 50.4681 63.6 50.7625 63.6C51.0569 63.6 51.2959 63.3611 51.2959 63.0667V62.5334H53.4292V63.0667C53.4292 63.3611 53.6681 63.6 53.9625 63.6C54.2569 63.6 54.4959 63.3611 54.4959 63.0667V62.5334H56.6292C58.9822 62.5334 60.8958 60.6198 60.8958 58.2667C60.8948 56.4065 59.6916 54.8385 58.0286 54.255ZM56.6281 51.8668C56.6281 53.0433 55.6713 54.0001 54.4948 54.0001H52.3615V49.7334H54.4948C55.6713 49.7334 56.6281 50.6902 56.6281 51.8668ZM56.6281 60.4001H52.3615V56.1334H54.4948H56.6281C57.8046 56.1334 58.7614 57.0902 58.7614 58.2667C58.7614 59.4433 57.8046 60.4001 56.6281 60.4001Z" fill="#6AC0E3"/>
<path d="M84.9328 72.1331C77.8747 72.1331 72.1328 77.8749 72.1328 84.933C72.1328 91.9911 77.8747 97.733 84.9328 97.733C91.9909 97.733 97.7327 91.9911 97.7327 84.933C97.7327 77.8749 91.9909 72.1331 84.9328 72.1331ZM84.9328 96.6663C78.4635 96.6663 73.1995 91.4023 73.1995 84.933C73.1995 78.4637 78.4635 73.1997 84.9328 73.1997C91.4021 73.1997 96.666 78.4637 96.666 84.933C96.666 91.4023 91.4021 96.6663 84.9328 96.6663Z" fill="#6AC0E3"/>
<path d="M86.7616 77.4661H86V76.3994C86 75.8106 85.5232 75.3328 84.9333 75.3328C84.3434 75.3328 83.8666 75.8106 83.8666 76.3994V77.4661H83.105C81.0037 77.4661 79.2949 79.1749 79.2949 81.2751V82.1893C79.2949 84.2906 81.0048 85.9994 83.105 85.9994H86.7616C87.6864 85.9994 88.4384 86.7514 88.4384 87.6762V88.5903C88.4384 89.514 87.6864 90.266 86.7616 90.266H83.105C82.1802 90.266 81.4282 89.514 81.4282 88.5903V87.6762C81.4282 87.0874 80.9514 86.6095 80.3616 86.6095C79.7717 86.6095 79.2949 87.0874 79.2949 87.6762V88.5903C79.2949 90.6906 81.0048 92.3994 83.105 92.3994H83.8666V93.466C83.8666 94.0548 84.3434 94.5327 84.9333 94.5327C85.5232 94.5327 86 94.0548 86 93.466V92.3994H86.7616C88.8629 92.3994 90.5717 90.6906 90.5717 88.5903V87.6762C90.5717 85.5749 88.8618 83.8661 86.7616 83.8661H83.105C82.1802 83.8661 81.4282 83.1141 81.4282 82.1893V81.2751C81.4282 80.3514 82.1802 79.5994 83.105 79.5994H86.7616C87.6864 79.5994 88.4384 80.3514 88.4384 81.2751V82.1893C88.4384 82.7781 88.9151 83.2559 89.505 83.2559C90.0949 83.2559 90.5717 82.7781 90.5717 82.1893V81.2751C90.5717 79.1749 88.8629 77.4661 86.7616 77.4661Z" fill="#6AC0E3"/>
<path d="M82.5876 60.0008L84.5375 61.9517C84.6911 62.1042 84.9215 62.1512 85.1188 62.0669C85.3183 61.9848 85.4484 61.7896 85.4484 61.5741V57.9602V55.5485V55.0483C85.4484 54.1661 84.7305 53.4483 83.8484 53.4483H79.0548C78.7604 53.4483 78.5215 53.6872 78.5215 53.9816C78.5215 54.276 78.7604 54.5149 79.0548 54.5149H83.8484C84.1417 54.5149 84.3817 54.7539 84.3817 55.0483V55.5485V57.9602V60.2856L83.3417 59.2456C82.7177 58.6226 81.7044 58.6216 81.0783 59.2456C80.4543 59.8696 80.4543 60.884 81.0783 61.508L84.85 65.2797C85.1615 65.5912 85.5721 65.7469 85.9817 65.7469C86.3913 65.7469 86.802 65.5912 87.1135 65.2797L90.8841 61.509C91.186 61.2072 91.3524 60.805 91.3524 60.3773C91.3524 59.9506 91.186 59.5485 90.8841 59.2456C90.2612 58.6216 89.2446 58.6216 88.6217 59.2456L87.5817 60.2856V57.9602V55.5485V55.0483C87.5817 52.9896 85.9071 51.3149 83.8484 51.3149H79.0548C78.7604 51.3149 78.5215 51.5539 78.5215 51.8483C78.5215 52.1427 78.7604 52.3816 79.0548 52.3816H83.8484C85.3193 52.3816 86.5151 53.5784 86.5151 55.0483V55.5485V57.9602V61.5741C86.5151 61.7896 86.6452 61.9848 86.8447 62.0669C87.0441 62.1501 87.2724 62.1042 87.426 61.9517L89.3758 60.0008C89.5774 59.8002 89.9284 59.8002 90.13 60.0008C90.2313 60.1021 90.2857 60.2354 90.2857 60.3784C90.2857 60.5213 90.2302 60.6546 90.13 60.756L86.3593 64.5277C86.1513 64.7357 85.8132 64.7346 85.6052 64.5277L81.8335 60.756C81.6255 60.548 81.6255 60.2098 81.8335 60.0018C82.0319 59.8002 82.3828 59.7992 82.5876 60.0008Z" fill="#6AC0E3"/>
<path d="M76.9142 54.5161C77.2086 54.5161 77.4475 54.2772 77.4475 53.9828V51.8495C77.4475 51.5551 77.2086 51.3162 76.9142 51.3162C76.6198 51.3162 76.3809 51.5551 76.3809 51.8495V53.9828C76.3809 54.2783 76.6198 54.5161 76.9142 54.5161Z" fill="#6AC0E3"/>
<path d="M74.7794 54.5161C75.0738 54.5161 75.3128 54.2772 75.3128 53.9828V51.8495C75.3128 51.5551 75.0738 51.3162 74.7794 51.3162C74.485 51.3162 74.2461 51.5551 74.2461 51.8495V53.9828C74.2461 54.2783 74.485 54.5161 74.7794 54.5161Z" fill="#6AC0E3"/>
<path d="M57.4123 80.0374L55.4614 78.0865C55.3089 77.9339 55.0795 77.8881 54.8801 77.9713C54.6806 78.0534 54.5505 78.2486 54.5505 78.4641V82.0779V84.4896V84.9899C54.5505 85.872 55.2683 86.5899 56.1505 86.5899H60.944C61.2384 86.5899 61.4774 86.351 61.4774 86.0566C61.4774 85.7622 61.2384 85.5232 60.944 85.5232H56.1505C55.8561 85.5232 55.6171 85.2843 55.6171 84.9899V84.4896V82.0779V79.7515L56.6571 80.7915C57.2619 81.3963 58.3168 81.3952 58.9195 80.7915C59.5435 80.1675 59.5435 79.1531 58.9195 78.5291L55.1489 74.7574C54.5451 74.1537 53.4902 74.1526 52.8854 74.7574L49.1137 78.5291C48.4908 79.152 48.4908 80.1675 49.1137 80.7915C49.7377 81.4155 50.7531 81.4144 51.3771 80.7915L52.4171 79.7515V82.0768V84.4886V84.9888C52.4171 87.0475 54.0918 88.7221 56.1505 88.7221H60.944C61.2384 88.7221 61.4774 88.4832 61.4774 88.1888C61.4774 87.8944 61.2384 87.6555 60.944 87.6555H56.1505C54.6806 87.6555 53.4838 86.4587 53.4838 84.9888V84.4886V82.0768V78.463C53.4838 78.2475 53.3537 78.0523 53.1542 77.9702C52.9547 77.8859 52.7254 77.9329 52.5729 78.0854L50.623 80.0363C50.4214 80.2379 50.0705 80.2368 49.8689 80.0363C49.6609 79.8283 49.6609 79.4902 49.8689 79.2822L53.6406 75.5105C53.8433 75.3099 54.1931 75.3099 54.3947 75.5105L58.1664 79.2822C58.3744 79.4902 58.3744 79.8283 58.1664 80.0363C57.967 80.239 57.6139 80.239 57.4123 80.0374Z" fill="#6AC0E3"/>
<path d="M63.0861 85.522C62.7917 85.522 62.5527 85.7609 62.5527 86.0553V88.1886C62.5527 88.483 62.7917 88.722 63.0861 88.722C63.3805 88.722 63.6194 88.483 63.6194 88.1886V86.0553C63.6194 85.7598 63.3805 85.522 63.0861 85.522Z" fill="#6AC0E3"/>
<path d="M65.2189 85.522C64.9245 85.522 64.6855 85.7609 64.6855 86.0553V88.1886C64.6855 88.483 64.9245 88.722 65.2189 88.722C65.5133 88.722 65.7522 88.483 65.7522 88.1886V86.0553C65.7522 85.7598 65.5133 85.522 65.2189 85.522Z" fill="#6AC0E3"/>
</g>
<defs>
<clipPath id="clip0_13_4643">
<rect width="140" height="140" fill="white"/>
</clipPath>
<clipPath id="clip1_13_4643">
<rect width="64" height="64" fill="white" transform="translate(38 38)"/>
</clipPath>
</defs>
</svg>
