<svg width="24" height="24" viewBox="0 0 24 24" fill="none" xmlns="http://www.w3.org/2000/svg">
<path d="M0.791849 4.00051C0.578124 4.00282 0.37426 4.09326 0.225619 4.25162C0.0769781 4.40999 -0.00428735 4.62319 0.000174494 4.84387V19.1622C-0.00280166 19.3833 0.0801591 19.5963 0.230452 19.7539C0.380745 19.9113 0.586105 20 0.800206 20C1.0143 20 1.21947 19.9113 1.36996 19.7539C1.52025 19.5963 1.60321 19.3833 1.60024 19.1622V17.2347H22.4V19.1622H22.3998C22.3968 19.3833 22.4797 19.5963 22.63 19.7539C22.7805 19.9113 22.9857 20 23.1998 20C23.4139 20 23.6192 19.9113 23.7695 19.7539C23.9198 19.5963 24.0028 19.3833 23.9998 19.1622V10.9013C24.0043 10.6777 23.921 10.4618 23.7686 10.3029C23.6163 10.144 23.4079 10.0557 23.1914 10.058C22.9779 10.0603 22.774 10.1507 22.6252 10.3091C22.4766 10.4674 22.3955 10.6807 22.3998 10.9013V11.7274H17.3332C17.3054 11.7259 17.2775 11.7259 17.2498 11.7274C17.0372 11.7382 16.8376 11.8359 16.6952 11.9991C16.5525 12.1621 16.4785 12.377 16.4896 12.5966C16.5006 12.8159 16.5958 13.0218 16.7541 13.1686C16.9124 13.3157 17.1208 13.3915 17.3332 13.3795H22.3998V15.5824H1.60006V13.3795H14.6665C14.8806 13.3826 15.0871 13.297 15.2396 13.1417C15.3922 12.9864 15.4781 12.7746 15.4781 12.5535C15.4781 12.3322 15.3922 12.1204 15.2396 11.9651C15.0871 11.8098 14.8806 11.7242 14.6665 11.7274H1.60006V4.8434C1.60453 4.61981 1.52101 4.40391 1.36866 4.245C1.21632 4.08606 1.00818 3.99774 0.791673 4.00004L0.791849 4.00051ZM4.17518 6.77117C3.2431 6.77117 2.4003 7.51312 2.4003 8.5093V10.3508L2.40012 10.351C2.4003 10.5699 2.48456 10.7801 2.63449 10.9349C2.7846 11.0898 2.98809 11.1768 3.20015 11.177H9.06673C9.27897 11.1768 9.48247 11.0898 9.63239 10.9349C9.7825 10.78 9.86677 10.5699 9.86677 10.351V8.50949C9.86677 7.51331 9.02378 6.77136 8.09189 6.77136H4.17527L4.17518 6.77117ZM4.17518 8.42329H8.0918C8.24321 8.42329 8.26683 8.48852 8.26683 8.50931V9.5247H4.00013V8.50931C4.00013 8.48852 4.02375 8.42329 4.17516 8.42329H4.17518Z" fill="white"/>
</svg>
