<svg width="26" height="26" viewBox="0 0 26 26" fill="none" xmlns="http://www.w3.org/2000/svg">
<mask id="path-1-outside-1_26_5087" maskUnits="userSpaceOnUse" x="0" y="0" width="26" height="26" fill="black">
<rect fill="white" width="26" height="26"/>
<path fill-rule="evenodd" clip-rule="evenodd" d="M23.5878 14.143V4.14271C23.5784 4.09566 23.5784 4.04711 23.5878 3.99991C23.5885 2.94588 23.042 1.96886 22.1487 1.42681C21.2553 0.88475 20.1462 0.857278 19.2277 1.35432C18.3092 1.85155 17.7161 2.8004 17.6658 3.85328L17.6613 3.85428C17.256 3.96327 16.8975 4.20467 16.6417 4.54098C16.386 4.87731 16.2472 5.28982 16.2468 5.7142C16.2467 5.82787 16.2912 5.93702 16.3706 6.01737C16.4502 6.09773 16.5579 6.14293 16.6704 6.14277H19.635C19.7473 6.14293 19.8552 6.09773 19.9346 6.01737C20.014 5.93702 20.0587 5.82787 20.0585 5.7142C20.058 5.26655 19.9037 4.83309 19.6219 4.48809C19.3402 4.14309 18.9487 3.90785 18.5145 3.82282C18.5749 3.08101 19.0118 2.42409 19.6681 2.08797C20.3244 1.7518 21.1061 1.78462 21.7328 2.17452C22.3594 2.56441 22.7411 3.2555 22.7408 3.99997C22.7502 4.04718 22.7502 4.09573 22.7408 4.14277V14.1426L2.41177 14.1428C1.95005 14.1428 1.51742 14.3713 1.25336 14.7548C0.989484 15.1382 0.927447 15.6281 1.08742 16.0665C1.2474 16.5048 1.60903 16.8362 2.05606 16.9541L2.05821 16.9544C2.34177 18.3627 3.62159 23.4284 7.35307 23.4284H18.6471C22.3785 23.4284 23.6582 18.3627 23.942 16.9544L23.9439 16.9541C24.391 16.8362 24.7526 16.5048 24.9126 16.0665C25.0726 15.6281 25.0105 15.1382 24.7466 14.7548C24.4826 14.3713 24.05 14.1428 23.5882 14.1428L23.5878 14.143ZM19.1239 5.28571H17.1813C17.292 5.02957 17.4973 4.82718 17.7533 4.72188C18.0094 4.61658 18.2959 4.61658 18.5518 4.72188C18.8079 4.82718 19.0131 5.02958 19.1239 5.28571ZM18.6468 22.5713H7.35272C4.45673 22.5713 3.27189 18.4836 2.93709 16.9999H23.0628C22.7296 18.4834 21.5477 22.5713 18.6468 22.5713ZM23.588 16.1427H2.41193C2.10008 16.1427 1.84729 15.8869 1.84729 15.5713C1.84729 15.2558 2.10008 15 2.41193 15H23.588C23.8998 15 24.1526 15.2558 24.1526 15.5713C24.1526 15.8869 23.8998 16.1427 23.588 16.1427ZM9.11736 24.1429H7.28216C7.04857 24.1434 6.85947 24.335 6.85947 24.5714C6.85947 24.8078 7.04856 24.9995 7.28216 25H9.11736C9.35096 24.9995 9.54006 24.8078 9.54006 24.5714C9.54006 24.335 9.35097 24.1434 9.11736 24.1429ZM16.8821 24.1429H18.7173C18.9509 24.1434 19.14 24.335 19.14 24.5714C19.14 24.8078 18.9509 24.9995 18.7173 25H16.8821C16.6485 24.9995 16.4594 24.8078 16.4594 24.5714C16.4594 24.335 16.6485 24.1434 16.8821 24.1429ZM3.11777 13.7144C3.2301 13.7146 3.33797 13.6694 3.41738 13.589C3.49679 13.5087 3.54145 13.3995 3.54129 13.2859C3.54096 12.3346 3.93139 11.4259 4.61894 10.7774C5.30665 10.1288 6.2298 9.79869 7.16752 9.86581C8.10523 9.93294 8.97311 10.3913 9.56371 11.1314C10.0519 11.7408 10.318 12.5014 10.3176 13.2859C10.3176 13.5226 10.5072 13.7144 10.7411 13.7144C10.9751 13.7144 11.1647 13.5226 11.1647 13.2859C11.165 12.6234 11.0131 11.97 10.7213 11.3772C10.9731 11.2691 11.2439 11.2136 11.5175 11.2143C12.0603 11.2148 12.5808 11.4331 12.9646 11.8215C13.3485 12.2099 13.5642 12.7366 13.5645 13.2859C13.5645 13.5226 13.7541 13.7144 13.988 13.7144C14.222 13.7144 14.4115 13.5226 14.4115 13.2859C14.4106 12.5094 14.1053 11.7651 13.5629 11.2162C13.0202 10.6672 12.2848 10.3583 11.5175 10.3572C11.0834 10.3562 10.6548 10.4548 10.2638 10.6458C9.53542 9.70293 8.45032 9.11129 7.27141 9.01422C6.09249 8.91712 4.9273 9.3236 4.05777 10.135C3.18824 10.9465 2.69391 12.0889 2.69425 13.2859C2.69408 13.3995 2.73859 13.5087 2.81816 13.5891C2.89757 13.6694 3.00527 13.7146 3.11777 13.7144V13.7144ZM17.7292 7.42848V10.9999C17.7292 11.2366 17.5396 11.4284 17.3057 11.4284C17.0718 11.4284 16.8822 11.2366 16.8822 10.9999V7.42848C16.8822 7.19176 17.0718 6.99991 17.3057 6.99991C17.5396 6.99991 17.7292 7.19176 17.7292 7.42848ZM18.9998 9.71414C19.1121 9.71414 19.2198 9.6691 19.2992 9.58875C19.3787 9.50839 19.4233 9.39924 19.4233 9.28557V7.42848C19.4233 7.19176 19.2337 6.99991 18.9998 6.99991C18.7659 6.99991 18.5763 7.19176 18.5763 7.42848V9.28557C18.5763 9.39924 18.6208 9.50839 18.7002 9.58875C18.7796 9.6691 18.8875 9.71414 18.9998 9.71414ZM18.9998 13.4286C18.7659 13.4286 18.5763 13.2367 18.5763 13V11.1429C18.5763 10.9062 18.7659 10.7143 18.9998 10.7143C19.2337 10.7143 19.4233 10.9062 19.4233 11.1429V13C19.4233 13.2367 19.2337 13.4286 18.9998 13.4286Z"/>
</mask>
<path fill-rule="evenodd" clip-rule="evenodd" d="M23.5878 14.143V4.14271C23.5784 4.09566 23.5784 4.04711 23.5878 3.99991C23.5885 2.94588 23.042 1.96886 22.1487 1.42681C21.2553 0.88475 20.1462 0.857278 19.2277 1.35432C18.3092 1.85155 17.7161 2.8004 17.6658 3.85328L17.6613 3.85428C17.256 3.96327 16.8975 4.20467 16.6417 4.54098C16.386 4.87731 16.2472 5.28982 16.2468 5.7142C16.2467 5.82787 16.2912 5.93702 16.3706 6.01737C16.4502 6.09773 16.5579 6.14293 16.6704 6.14277H19.635C19.7473 6.14293 19.8552 6.09773 19.9346 6.01737C20.014 5.93702 20.0587 5.82787 20.0585 5.7142C20.058 5.26655 19.9037 4.83309 19.6219 4.48809C19.3402 4.14309 18.9487 3.90785 18.5145 3.82282C18.5749 3.08101 19.0118 2.42409 19.6681 2.08797C20.3244 1.7518 21.1061 1.78462 21.7328 2.17452C22.3594 2.56441 22.7411 3.2555 22.7408 3.99997C22.7502 4.04718 22.7502 4.09573 22.7408 4.14277V14.1426L2.41177 14.1428C1.95005 14.1428 1.51742 14.3713 1.25336 14.7548C0.989484 15.1382 0.927447 15.6281 1.08742 16.0665C1.2474 16.5048 1.60903 16.8362 2.05606 16.9541L2.05821 16.9544C2.34177 18.3627 3.62159 23.4284 7.35307 23.4284H18.6471C22.3785 23.4284 23.6582 18.3627 23.942 16.9544L23.9439 16.9541C24.391 16.8362 24.7526 16.5048 24.9126 16.0665C25.0726 15.6281 25.0105 15.1382 24.7466 14.7548C24.4826 14.3713 24.05 14.1428 23.5882 14.1428L23.5878 14.143ZM19.1239 5.28571H17.1813C17.292 5.02957 17.4973 4.82718 17.7533 4.72188C18.0094 4.61658 18.2959 4.61658 18.5518 4.72188C18.8079 4.82718 19.0131 5.02958 19.1239 5.28571ZM18.6468 22.5713H7.35272C4.45673 22.5713 3.27189 18.4836 2.93709 16.9999H23.0628C22.7296 18.4834 21.5477 22.5713 18.6468 22.5713ZM23.588 16.1427H2.41193C2.10008 16.1427 1.84729 15.8869 1.84729 15.5713C1.84729 15.2558 2.10008 15 2.41193 15H23.588C23.8998 15 24.1526 15.2558 24.1526 15.5713C24.1526 15.8869 23.8998 16.1427 23.588 16.1427ZM9.11736 24.1429H7.28216C7.04857 24.1434 6.85947 24.335 6.85947 24.5714C6.85947 24.8078 7.04856 24.9995 7.28216 25H9.11736C9.35096 24.9995 9.54006 24.8078 9.54006 24.5714C9.54006 24.335 9.35097 24.1434 9.11736 24.1429ZM16.8821 24.1429H18.7173C18.9509 24.1434 19.14 24.335 19.14 24.5714C19.14 24.8078 18.9509 24.9995 18.7173 25H16.8821C16.6485 24.9995 16.4594 24.8078 16.4594 24.5714C16.4594 24.335 16.6485 24.1434 16.8821 24.1429ZM3.11777 13.7144C3.2301 13.7146 3.33797 13.6694 3.41738 13.589C3.49679 13.5087 3.54145 13.3995 3.54129 13.2859C3.54096 12.3346 3.93139 11.4259 4.61894 10.7774C5.30665 10.1288 6.2298 9.79869 7.16752 9.86581C8.10523 9.93294 8.97311 10.3913 9.56371 11.1314C10.0519 11.7408 10.318 12.5014 10.3176 13.2859C10.3176 13.5226 10.5072 13.7144 10.7411 13.7144C10.9751 13.7144 11.1647 13.5226 11.1647 13.2859C11.165 12.6234 11.0131 11.97 10.7213 11.3772C10.9731 11.2691 11.2439 11.2136 11.5175 11.2143C12.0603 11.2148 12.5808 11.4331 12.9646 11.8215C13.3485 12.2099 13.5642 12.7366 13.5645 13.2859C13.5645 13.5226 13.7541 13.7144 13.988 13.7144C14.222 13.7144 14.4115 13.5226 14.4115 13.2859C14.4106 12.5094 14.1053 11.7651 13.5629 11.2162C13.0202 10.6672 12.2848 10.3583 11.5175 10.3572C11.0834 10.3562 10.6548 10.4548 10.2638 10.6458C9.53542 9.70293 8.45032 9.11129 7.27141 9.01422C6.09249 8.91712 4.9273 9.3236 4.05777 10.135C3.18824 10.9465 2.69391 12.0889 2.69425 13.2859C2.69408 13.3995 2.73859 13.5087 2.81816 13.5891C2.89757 13.6694 3.00527 13.7146 3.11777 13.7144V13.7144ZM17.7292 7.42848V10.9999C17.7292 11.2366 17.5396 11.4284 17.3057 11.4284C17.0718 11.4284 16.8822 11.2366 16.8822 10.9999V7.42848C16.8822 7.19176 17.0718 6.99991 17.3057 6.99991C17.5396 6.99991 17.7292 7.19176 17.7292 7.42848ZM18.9998 9.71414C19.1121 9.71414 19.2198 9.6691 19.2992 9.58875C19.3787 9.50839 19.4233 9.39924 19.4233 9.28557V7.42848C19.4233 7.19176 19.2337 6.99991 18.9998 6.99991C18.7659 6.99991 18.5763 7.19176 18.5763 7.42848V9.28557C18.5763 9.39924 18.6208 9.50839 18.7002 9.58875C18.7796 9.6691 18.8875 9.71414 18.9998 9.71414ZM18.9998 13.4286C18.7659 13.4286 18.5763 13.2367 18.5763 13V11.1429C18.5763 10.9062 18.7659 10.7143 18.9998 10.7143C19.2337 10.7143 19.4233 10.9062 19.4233 11.1429V13C19.4233 13.2367 19.2337 13.4286 18.9998 13.4286Z" fill="white"/>
<path d="M23.5878 4.14271H23.7878V4.12286L23.7839 4.1034L23.5878 4.14271ZM23.5878 14.143H23.3878V14.455L23.6713 14.3247L23.5878 14.143ZM23.5878 3.99991L23.7839 4.03908L23.7878 4.01975L23.7878 4.00003L23.5878 3.99991ZM22.1487 1.42681L22.2524 1.25582L22.2524 1.25582L22.1487 1.42681ZM19.2277 1.35432L19.1325 1.17842L19.1325 1.17844L19.2277 1.35432ZM17.6658 3.85328L17.7097 4.0484L17.8583 4.01498L17.8656 3.86282L17.6658 3.85328ZM17.6613 3.85428L17.6174 3.65898L17.6094 3.66114L17.6613 3.85428ZM16.6417 4.54098L16.4825 4.41991L16.4825 4.41992L16.6417 4.54098ZM16.2468 5.7142L16.4468 5.71449L16.4468 5.71435L16.2468 5.7142ZM16.3706 6.01737L16.2283 6.15796L16.2285 6.1581L16.3706 6.01737ZM16.6704 6.14277L16.6704 5.94277L16.6701 5.94277L16.6704 6.14277ZM19.635 6.14277L19.6353 5.94277H19.635V6.14277ZM19.9346 6.01737L19.7924 5.87679L19.7924 5.8768L19.9346 6.01737ZM20.0585 5.7142L19.8585 5.71442L19.8585 5.71448L20.0585 5.7142ZM19.6219 4.48809L19.7768 4.36159L19.7768 4.36158L19.6219 4.48809ZM18.5145 3.82282L18.3152 3.8066L18.3007 3.98475L18.4761 4.0191L18.5145 3.82282ZM19.6681 2.08797L19.7593 2.26598L19.7593 2.26597L19.6681 2.08797ZM21.7328 2.17452L21.6271 2.34433L21.6271 2.34433L21.7328 2.17452ZM22.7408 3.99997L22.5408 3.99988L22.5408 4.01971L22.5446 4.03915L22.7408 3.99997ZM22.7408 4.14277L22.5447 4.10346L22.5408 4.12292V4.14277H22.7408ZM22.7408 14.1426L22.7408 14.3426L22.9408 14.3426V14.1426H22.7408ZM2.41177 14.1428L2.41177 14.3428L2.41177 14.3428L2.41177 14.1428ZM1.25336 14.7548L1.08863 14.6414L1.08861 14.6414L1.25336 14.7548ZM1.08742 16.0665L0.89954 16.135L0.899547 16.1351L1.08742 16.0665ZM2.05606 16.9541L2.00507 17.1475L2.01508 17.1501L2.0253 17.1517L2.05606 16.9541ZM2.05821 16.9544L2.25427 16.915L2.22675 16.7783L2.08897 16.7568L2.05821 16.9544ZM23.942 16.9544L23.9087 16.7572L23.7731 16.7801L23.7459 16.9149L23.942 16.9544ZM23.9439 16.9541L23.9772 17.1513L23.9861 17.1498L23.9949 17.1475L23.9439 16.9541ZM24.9126 16.0665L25.1005 16.1351L25.1005 16.135L24.9126 16.0665ZM24.7466 14.7548L24.9114 14.6414L24.9114 14.6414L24.7466 14.7548ZM23.5882 14.1428V13.9428H23.5445L23.5047 13.9611L23.5882 14.1428ZM17.1813 5.28571L16.9977 5.20638L16.877 5.48571H17.1813V5.28571ZM19.1239 5.28571V5.48571H19.4284L19.3074 5.20628L19.1239 5.28571ZM17.7533 4.72188L17.6772 4.5369L17.6772 4.53692L17.7533 4.72188ZM18.5518 4.72188L18.4757 4.90684L18.4757 4.90685L18.5518 4.72188ZM2.93709 16.9999V16.7999H2.68694L2.742 17.0439L2.93709 16.9999ZM23.0628 16.9999L23.2579 17.0437L23.3127 16.7999H23.0628V16.9999ZM7.28216 24.1429L7.28216 23.9429L7.28173 23.9429L7.28216 24.1429ZM9.11736 24.1429L9.11779 23.9429H9.11736V24.1429ZM7.28216 25L7.28173 25.2H7.28216V25ZM9.11736 25L9.11736 25.2L9.11779 25.2L9.11736 25ZM18.7173 24.1429L18.7177 23.9429H18.7173V24.1429ZM16.8821 24.1429L16.8821 23.9429L16.8817 23.9429L16.8821 24.1429ZM18.7173 25L18.7173 25.2L18.7177 25.2L18.7173 25ZM16.8821 25L16.8817 25.2H16.8821V25ZM3.41738 13.589L3.27512 13.4485L3.27512 13.4485L3.41738 13.589ZM3.11777 13.7144L3.11807 13.5144L2.91777 13.5141V13.7144H3.11777ZM3.54129 13.2859L3.34129 13.2859L3.34129 13.2861L3.54129 13.2859ZM4.61894 10.7774L4.48172 10.6319L4.4817 10.6319L4.61894 10.7774ZM7.16752 9.86581L7.1818 9.66632L7.18179 9.66632L7.16752 9.86581ZM9.56371 11.1314L9.40739 11.2562L9.40762 11.2565L9.56371 11.1314ZM10.3176 13.2859L10.1176 13.2858V13.2859H10.3176ZM11.1647 13.2859L10.9647 13.2858V13.2859H11.1647ZM10.7213 11.3772L10.6424 11.1934L10.4488 11.2766L10.5418 11.4655L10.7213 11.3772ZM11.5175 11.2143L11.5171 11.4143L11.5174 11.4143L11.5175 11.2143ZM12.9646 11.8215L12.8224 11.9621L12.8224 11.9621L12.9646 11.8215ZM13.5645 13.2859L13.7645 13.2859L13.7645 13.2857L13.5645 13.2859ZM14.4115 13.2859L14.6115 13.2859L14.6115 13.2856L14.4115 13.2859ZM13.5629 11.2162L13.7051 11.0756L13.7051 11.0756L13.5629 11.2162ZM11.5175 10.3572L11.5171 10.5572L11.5172 10.5572L11.5175 10.3572ZM10.2638 10.6458L10.1056 10.7681L10.2052 10.897L10.3516 10.8255L10.2638 10.6458ZM7.27141 9.01422L7.25499 9.21355L7.25499 9.21355L7.27141 9.01422ZM4.05777 10.135L3.92132 9.9888L3.92132 9.9888L4.05777 10.135ZM2.69425 13.2859L2.89425 13.2862L2.89425 13.2858L2.69425 13.2859ZM2.81816 13.5891L2.96042 13.4485L2.96027 13.4483L2.81816 13.5891ZM3.11777 13.7144L3.11807 13.9144L3.31777 13.9142V13.7144H3.11777ZM19.2992 9.58875L19.4415 9.72933L19.4415 9.72933L19.2992 9.58875ZM18.7002 9.58875L18.8425 9.44817L18.8425 9.44817L18.7002 9.58875ZM23.3878 4.14271V14.143H23.7878V4.14271H23.3878ZM23.3917 3.96073C23.3771 4.03376 23.3771 4.10898 23.3917 4.18202L23.7839 4.1034C23.7797 4.08235 23.7797 4.06047 23.7839 4.03908L23.3917 3.96073ZM22.0449 1.59779C22.8778 2.10318 23.3884 3.01495 23.3878 3.99978L23.7878 4.00003C23.7885 2.87681 23.2062 1.83455 22.2524 1.25582L22.0449 1.59779ZM19.3229 1.53022C20.1789 1.067 21.2123 1.09257 22.0449 1.59779L22.2524 1.25582C21.2984 0.676932 20.1136 0.647556 19.1325 1.17842L19.3229 1.53022ZM17.8656 3.86282C17.9126 2.87908 18.4666 1.99373 19.3229 1.5302L19.1325 1.17844C18.1517 1.70936 17.5196 2.72172 17.466 3.84373L17.8656 3.86282ZM17.7052 4.04941L17.7097 4.0484L17.6219 3.65815L17.6175 3.65915L17.7052 4.04941ZM16.8009 4.66205C17.0301 4.36073 17.351 4.14484 17.7133 4.04742L17.6094 3.66114C17.161 3.7817 16.7649 4.04861 16.4825 4.41991L16.8009 4.66205ZM16.4468 5.71435C16.4471 5.33343 16.5717 4.96343 16.8009 4.66204L16.4825 4.41992C16.2002 4.7912 16.0472 5.24622 16.0468 5.71404L16.4468 5.71435ZM16.5129 5.87679C16.4708 5.83427 16.4468 5.77588 16.4468 5.71449L16.0468 5.7139C16.0466 5.87985 16.1115 6.03977 16.2283 6.15796L16.5129 5.87679ZM16.6701 5.94277C16.6117 5.94285 16.5551 5.91943 16.5127 5.87665L16.2285 6.1581C16.3453 6.27603 16.5041 6.34301 16.6707 6.34277L16.6701 5.94277ZM19.635 5.94277H16.6704V6.34277H19.635V5.94277ZM19.7924 5.8768C19.7503 5.91938 19.6936 5.94285 19.6353 5.94277L19.6347 6.34277C19.8011 6.34301 19.9601 6.27608 20.0769 6.15795L19.7924 5.8768ZM19.8585 5.71448C19.8586 5.77568 19.8345 5.83413 19.7924 5.87679L20.0769 6.15796C20.1935 6.03991 20.2588 5.88005 20.2585 5.71391L19.8585 5.71448ZM19.467 4.6146C19.7195 4.92376 19.8581 5.31256 19.8585 5.71442L20.2585 5.71397C20.258 5.22055 20.0879 4.74243 19.7768 4.36159L19.467 4.6146ZM18.4761 4.0191C18.8642 4.09509 19.2145 4.30543 19.467 4.6146L19.7768 4.36158C19.4658 3.98076 19.0333 3.72061 18.5529 3.62655L18.4761 4.0191ZM19.5769 1.90996C18.8583 2.278 18.3811 2.99653 18.3152 3.8066L18.7138 3.83905C18.7687 3.16549 19.1653 2.57019 19.7593 2.26598L19.5769 1.90996ZM21.8384 2.0047C21.1522 1.57776 20.2958 1.54174 19.5769 1.90996L19.7593 2.26597C20.353 1.96187 21.06 1.99148 21.6271 2.34433L21.8384 2.0047ZM22.9408 4.00006C22.9411 3.18717 22.5244 2.4315 21.8384 2.0047L21.6271 2.34433C22.1945 2.69733 22.5411 3.32383 22.5408 3.99988L22.9408 4.00006ZM22.9369 4.18208C22.9515 4.10905 22.9515 4.03382 22.9369 3.9608L22.5446 4.03915C22.5489 4.06055 22.5489 4.08242 22.5447 4.10346L22.9369 4.18208ZM22.9408 14.1426V4.14277H22.5408V14.1426H22.9408ZM2.41177 14.3428L22.7408 14.3426L22.7408 13.9426L2.41177 13.9428L2.41177 14.3428ZM1.41809 14.8683C1.6452 14.5384 2.0165 14.3428 2.41177 14.3428V13.9428C1.8836 13.9428 1.38965 14.2042 1.08863 14.6414L1.41809 14.8683ZM1.27531 15.9979C1.13746 15.6202 1.19104 15.1981 1.41811 14.8682L1.08861 14.6414C0.787928 15.0783 0.717433 15.636 0.89954 16.135L1.27531 15.9979ZM2.10705 16.7607C1.72406 16.6597 1.41309 16.3754 1.2753 15.9979L0.899547 16.1351C1.08171 16.6342 1.49401 17.0128 2.00507 17.1475L2.10705 16.7607ZM2.08897 16.7568L2.08682 16.7565L2.0253 17.1517L2.02745 17.1521L2.08897 16.7568ZM7.35307 23.2284C5.59396 23.2284 4.39414 22.0382 3.58645 20.6205C2.78032 19.2056 2.39456 17.6117 2.25427 16.915L1.86214 16.9939C2.00541 17.7054 2.40135 19.3485 3.2389 20.8185C4.07487 22.2858 5.38071 23.6284 7.35307 23.6284V23.2284ZM18.6471 23.2284H7.35307V23.6284H18.6471V23.2284ZM23.7459 16.9149C23.6055 17.6117 23.2197 19.2056 22.4136 20.6205C21.606 22.0382 20.4062 23.2284 18.6471 23.2284V23.6284C20.6194 23.6284 21.9252 22.2858 22.7612 20.8185C23.5987 19.3485 23.9947 17.7055 24.138 16.9939L23.7459 16.9149ZM23.9107 16.7569L23.9087 16.7572L23.9752 17.1517L23.9772 17.1513L23.9107 16.7569ZM24.7247 15.9979C24.5869 16.3754 24.2759 16.6597 23.893 16.7607L23.9949 17.1475C24.506 17.0128 24.9183 16.6342 25.1005 16.1351L24.7247 15.9979ZM24.5819 14.8682C24.809 15.1981 24.8625 15.6201 24.7247 15.9979L25.1005 16.135C25.2826 15.636 25.2121 15.0783 24.9114 14.6414L24.5819 14.8682ZM23.5882 14.3428C23.9835 14.3428 24.3548 14.5384 24.5819 14.8683L24.9114 14.6414C24.6104 14.2042 24.1164 13.9428 23.5882 13.9428V14.3428ZM23.6713 14.3247L23.6718 14.3245L23.5047 13.9611L23.5043 13.9613L23.6713 14.3247ZM17.1813 5.48571H19.1239V5.08571H17.1813V5.48571ZM17.6772 4.53692C17.3725 4.66225 17.1289 4.90279 16.9977 5.20638L17.3649 5.36504C17.4551 5.15634 17.6221 4.99211 17.8293 4.90684L17.6772 4.53692ZM18.6279 4.53692C18.3232 4.41156 17.982 4.41158 17.6772 4.5369L17.8293 4.90685C18.0367 4.82158 18.2685 4.8216 18.4757 4.90684L18.6279 4.53692ZM19.3074 5.20628C19.1761 4.90284 18.9327 4.66225 18.6279 4.5369L18.4757 4.90685C18.6831 4.99211 18.85 5.15632 18.9403 5.36514L19.3074 5.20628ZM7.35272 22.7713H18.6468V22.3713H7.35272V22.7713ZM2.742 17.0439C2.91097 17.7927 3.29624 19.2088 4.01144 20.4423C4.7236 21.6706 5.79629 22.7713 7.35272 22.7713V22.3713C6.01317 22.3713 5.04543 21.4282 4.35748 20.2417C3.67255 19.0604 3.29801 17.6907 3.13219 16.9558L2.742 17.0439ZM23.0628 16.7999H2.93709V17.1999H23.0628V16.7999ZM18.6468 22.7713C20.2056 22.7713 21.2788 21.6706 21.9907 20.4422C22.7056 19.2086 23.0898 17.7925 23.2579 17.0437L22.8677 16.956C22.7027 17.6908 22.3292 19.0604 21.6447 20.2416C20.9571 21.428 19.9889 22.3713 18.6468 22.3713V22.7713ZM2.41193 16.3427H23.588V15.9427H2.41193V16.3427ZM1.64729 15.5713C1.64729 15.9951 1.98739 16.3427 2.41193 16.3427V15.9427C2.21276 15.9427 2.04729 15.7787 2.04729 15.5713H1.64729ZM2.41193 14.8C1.9874 14.8 1.64729 15.1476 1.64729 15.5713H2.04729C2.04729 15.364 2.21277 15.2 2.41193 15.2V14.8ZM23.588 14.8H2.41193V15.2H23.588V14.8ZM24.3526 15.5713C24.3526 15.1476 24.0125 14.8 23.588 14.8V15.2C23.7871 15.2 23.9526 15.364 23.9526 15.5713H24.3526ZM23.588 16.3427C24.0125 16.3427 24.3526 15.9951 24.3526 15.5713H23.9526C23.9526 15.7787 23.7871 15.9427 23.588 15.9427V16.3427ZM7.28216 24.3429H9.11736V23.9429H7.28216V24.3429ZM7.05947 24.5714C7.05947 24.4431 7.16146 24.3431 7.28259 24.3429L7.28173 23.9429C6.93567 23.9436 6.65947 24.2269 6.65947 24.5714H7.05947ZM7.28259 24.8C7.16146 24.7997 7.05947 24.6997 7.05947 24.5714H6.65947C6.65947 24.9159 6.93567 25.1993 7.28173 25.2L7.28259 24.8ZM9.11736 24.8H7.28216V25.2H9.11736V24.8ZM9.34006 24.5714C9.34006 24.6997 9.23807 24.7997 9.11694 24.8L9.11779 25.2C9.46386 25.1993 9.74006 24.9159 9.74006 24.5714H9.34006ZM9.11694 24.3429C9.23807 24.3431 9.34006 24.4431 9.34006 24.5714H9.74006C9.74006 24.2269 9.46386 23.9436 9.11779 23.9429L9.11694 24.3429ZM18.7173 23.9429H16.8821V24.3429H18.7173V23.9429ZM19.34 24.5714C19.34 24.2269 19.0638 23.9436 18.7177 23.9429L18.7169 24.3429C18.838 24.3431 18.94 24.4431 18.94 24.5714H19.34ZM18.7177 25.2C19.0638 25.1993 19.34 24.9159 19.34 24.5714H18.94C18.94 24.6997 18.838 24.7997 18.7169 24.8L18.7177 25.2ZM16.8821 25.2H18.7173V24.8H16.8821V25.2ZM16.2594 24.5714C16.2594 24.9159 16.5356 25.1993 16.8817 25.2L16.8825 24.8C16.7614 24.7997 16.6594 24.6997 16.6594 24.5714H16.2594ZM16.8817 23.9429C16.5356 23.9436 16.2594 24.2269 16.2594 24.5714H16.6594C16.6594 24.4431 16.7614 24.3431 16.8825 24.3429L16.8817 23.9429ZM3.27512 13.4485C3.23303 13.491 3.17639 13.5145 3.11807 13.5144L3.11747 13.9144C3.28381 13.9147 3.4429 13.8477 3.55963 13.7296L3.27512 13.4485ZM3.34129 13.2861C3.34138 13.3473 3.31728 13.4058 3.27512 13.4485L3.55963 13.7296C3.67629 13.6116 3.74153 13.4517 3.74129 13.2856L3.34129 13.2861ZM4.4817 10.6319C3.7538 11.3185 3.34094 12.28 3.34129 13.2859L3.74129 13.2858C3.74098 12.3893 4.10898 11.5334 4.75617 10.9229L4.4817 10.6319ZM7.18179 9.66632C6.18791 9.59519 5.20991 9.94515 4.48172 10.6319L4.75616 10.9229C5.4034 10.3125 6.27168 10.0022 7.15324 10.0653L7.18179 9.66632ZM9.72004 11.0067C9.09489 10.2233 8.17567 9.73747 7.1818 9.66632L7.15323 10.0653C8.03479 10.1284 8.85134 10.5594 9.40739 11.2562L9.72004 11.0067ZM10.5176 13.2859C10.518 12.4562 10.2366 11.6515 9.7198 11.0064L9.40762 11.2565C9.86722 11.8302 10.1179 12.5465 10.1176 13.2858L10.5176 13.2859ZM10.7411 13.5144C10.6199 13.5144 10.5176 13.4144 10.5176 13.2859H10.1176C10.1176 13.6308 10.3945 13.9144 10.7411 13.9144V13.5144ZM10.9647 13.2859C10.9647 13.4144 10.8624 13.5144 10.7411 13.5144V13.9144C11.0878 13.9144 11.3647 13.6308 11.3647 13.2859H10.9647ZM10.5418 11.4655C10.8201 12.0308 10.965 12.6539 10.9647 13.2858L11.3647 13.286C11.365 12.5929 11.2061 11.9092 10.9007 11.2889L10.5418 11.4655ZM11.518 11.0143C11.217 11.0136 10.9192 11.0745 10.6424 11.1934L10.8002 11.561C11.027 11.4636 11.2708 11.4137 11.5171 11.4143L11.518 11.0143ZM13.1069 11.6809C12.6857 11.2548 12.1142 11.0149 11.5177 11.0143L11.5174 11.4143C12.0064 11.4148 12.4758 11.6114 12.8224 11.9621L13.1069 11.6809ZM13.7645 13.2857C13.7641 12.6843 13.5279 12.107 13.1069 11.6809L12.8224 11.9621C13.169 12.3128 13.3642 12.7889 13.3645 13.286L13.7645 13.2857ZM13.988 13.5144C13.8668 13.5144 13.7645 13.4144 13.7645 13.2859H13.3645C13.3645 13.6308 13.6414 13.9144 13.988 13.9144V13.5144ZM14.2115 13.2859C14.2115 13.4144 14.1093 13.5144 13.988 13.5144V13.9144C14.3346 13.9144 14.6115 13.6308 14.6115 13.2859H14.2115ZM13.4206 11.3567C13.9259 11.8681 14.2106 12.5619 14.2115 13.2861L14.6115 13.2856C14.6105 12.457 14.2848 11.6622 13.7051 11.0756L13.4206 11.3567ZM11.5172 10.5572C12.2308 10.5583 12.9152 10.8455 13.4206 11.3568L13.7051 11.0756C13.1252 10.4889 12.3388 10.1584 11.5178 10.1572L11.5172 10.5572ZM10.3516 10.8255C10.7151 10.6479 11.1136 10.5562 11.5171 10.5572L11.518 10.1572C11.0533 10.1561 10.5944 10.2617 10.176 10.4661L10.3516 10.8255ZM7.25499 9.21355C8.37743 9.30597 9.41123 9.86931 10.1056 10.7681L10.4221 10.5235C9.65962 9.53656 8.52321 8.91662 7.28782 8.81489L7.25499 9.21355ZM4.19422 10.2812C5.02282 9.50801 6.1326 9.1211 7.25499 9.21355L7.28782 8.8149C6.05238 8.71314 4.83178 9.13918 3.92132 9.9888L4.19422 10.2812ZM2.89425 13.2858C2.89392 12.1439 3.36554 11.0546 4.19423 10.2812L3.92132 9.9888C3.01094 10.8384 2.49389 12.0339 2.49425 13.2859L2.89425 13.2858ZM2.96027 13.4483C2.91821 13.4059 2.89416 13.3475 2.89425 13.2862L2.49425 13.2856C2.49401 13.4516 2.55896 13.6115 2.67605 13.7298L2.96027 13.4483ZM3.11747 13.5144C3.05903 13.5145 3.00253 13.4911 2.96042 13.4485L2.6759 13.7296C2.79261 13.8477 2.95152 13.9147 3.11807 13.9144L3.11747 13.5144ZM2.91777 13.7144V13.7144H3.31777V13.7144H2.91777ZM17.9292 10.9999V7.42848H17.5292V10.9999H17.9292ZM17.3057 11.6284C17.6523 11.6284 17.9292 11.3448 17.9292 10.9999H17.5292C17.5292 11.1284 17.427 11.2284 17.3057 11.2284V11.6284ZM16.6822 10.9999C16.6822 11.3448 16.9591 11.6284 17.3057 11.6284V11.2284C17.1845 11.2284 17.0822 11.1284 17.0822 10.9999H16.6822ZM16.6822 7.42848V10.9999H17.0822V7.42848H16.6822ZM17.3057 6.79991C16.9591 6.79991 16.6822 7.08355 16.6822 7.42848H17.0822C17.0822 7.29998 17.1845 7.19991 17.3057 7.19991V6.79991ZM17.9292 7.42848C17.9292 7.08355 17.6523 6.79991 17.3057 6.79991V7.19991C17.427 7.19991 17.5292 7.29998 17.5292 7.42848H17.9292ZM19.157 9.44816C19.115 9.49066 19.0585 9.51414 18.9998 9.51414V9.91414C19.1658 9.91414 19.3247 9.84755 19.4415 9.72933L19.157 9.44816ZM19.2233 9.28557C19.2233 9.34697 19.1991 9.40551 19.157 9.44817L19.4415 9.72933C19.5582 9.61127 19.6233 9.4515 19.6233 9.28557H19.2233ZM19.2233 7.42848V9.28557H19.6233V7.42848H19.2233ZM18.9998 7.19991C19.121 7.19991 19.2233 7.29998 19.2233 7.42848H19.6233C19.6233 7.08355 19.3464 6.79991 18.9998 6.79991V7.19991ZM18.7763 7.42848C18.7763 7.29998 18.8786 7.19991 18.9998 7.19991V6.79991C18.6532 6.79991 18.3763 7.08355 18.3763 7.42848H18.7763ZM18.7763 9.28557V7.42848H18.3763V9.28557H18.7763ZM18.8425 9.44817C18.8004 9.40565 18.7763 9.34717 18.7763 9.28557H18.3763C18.3763 9.4513 18.4411 9.61113 18.5579 9.72933L18.8425 9.44817ZM18.9998 9.51414C18.9411 9.51414 18.8844 9.4906 18.8425 9.44817L18.5579 9.72933C18.6748 9.84761 18.8339 9.91414 18.9998 9.91414V9.51414ZM18.3763 13C18.3763 13.3449 18.6532 13.6286 18.9998 13.6286V13.2286C18.8786 13.2286 18.7763 13.1285 18.7763 13H18.3763ZM18.3763 11.1429V13H18.7763V11.1429H18.3763ZM18.9998 10.5143C18.6532 10.5143 18.3763 10.798 18.3763 11.1429H18.7763C18.7763 11.0144 18.8786 10.9143 18.9998 10.9143V10.5143ZM19.6233 11.1429C19.6233 10.798 19.3464 10.5143 18.9998 10.5143V10.9143C19.121 10.9143 19.2233 11.0144 19.2233 11.1429H19.6233ZM19.6233 13V11.1429H19.2233V13H19.6233ZM18.9998 13.6286C19.3464 13.6286 19.6233 13.3449 19.6233 13H19.2233C19.2233 13.1285 19.121 13.2286 18.9998 13.2286V13.6286Z" fill="white" mask="url(#path-1-outside-1_26_5087)"/>
</svg>
