<svg width="18" height="18" viewBox="0 0 18 18" fill="none" xmlns="http://www.w3.org/2000/svg">
<path d="M9.84481 9.56238H4.78296C4.6283 9.56238 4.50175 9.68893 4.50175 9.8436V10.406C4.50175 10.5607 4.6283 10.6872 4.78296 10.6872H9.84481C9.99947 10.6872 10.126 10.5607 10.126 10.406V9.8436C10.126 9.68893 9.99947 9.56238 9.84481 9.56238ZM13.2194 6.18782H4.78296C4.6283 6.18782 4.50175 6.31437 4.50175 6.46903V7.03146C4.50175 7.18613 4.6283 7.31267 4.78296 7.31267H13.2194C13.374 7.31267 13.5006 7.18613 13.5006 7.03146V6.46903C13.5006 6.31437 13.374 6.18782 13.2194 6.18782ZM9.00117 1.12598C4.03072 1.12598 0.00233295 4.3986 0.00233295 8.43753C0.00233295 10.1107 0.701852 11.6434 1.86186 12.8772C1.3381 14.2622 0.248395 15.4362 0.230819 15.4503C-0.00118221 15.6964 -0.0644553 16.0549 0.0691212 16.3642C0.202698 16.6736 0.508517 16.8739 0.845974 16.8739C3.0078 16.8739 4.71266 15.9705 5.73557 15.2464C6.75146 15.5663 7.84819 15.7491 9.00117 15.7491C13.9716 15.7491 18 12.4765 18 8.43753C18 4.3986 13.9716 1.12598 9.00117 1.12598ZM9.00117 14.6242C8.00637 14.6242 7.02213 14.4731 6.07655 14.1743L5.54224 14.0056L5.08527 14.329C4.27678 14.9019 3.02889 15.5698 1.4787 15.721C1.90052 15.1902 2.52622 14.3008 2.91289 13.2744L3.16247 12.6171L2.68089 12.1039C1.66501 11.0282 1.12719 9.75923 1.12719 8.43753C1.12719 5.02781 4.65993 2.25083 9.00117 2.25083C13.3424 2.25083 16.8751 5.02781 16.8751 8.43753C16.8751 11.8472 13.3424 14.6242 9.00117 14.6242Z" fill="#8668E3"/>
</svg>
