<svg width="18" height="18" viewBox="0 0 18 18" fill="none" xmlns="http://www.w3.org/2000/svg">
<path d="M6 10.5C5.7875 10.5 5.60925 10.428 5.46525 10.284C5.32175 10.1405 5.25 9.9625 5.25 9.75C5.25 9.5375 5.32175 9.35925 5.46525 9.21525C5.60925 9.07175 5.7875 9 6 9C6.2125 9 6.39075 9.07175 6.53475 9.21525C6.67825 9.35925 6.75 9.5375 6.75 9.75C6.75 9.9625 6.67825 10.1405 6.53475 10.284C6.39075 10.428 6.2125 10.5 6 10.5ZM9 10.5C8.7875 10.5 8.6095 10.428 8.466 10.284C8.322 10.1405 8.25 9.9625 8.25 9.75C8.25 9.5375 8.322 9.35925 8.466 9.21525C8.6095 9.07175 8.7875 9 9 9C9.2125 9 9.39075 9.07175 9.53475 9.21525C9.67825 9.35925 9.75 9.5375 9.75 9.75C9.75 9.9625 9.67825 10.1405 9.53475 10.284C9.39075 10.428 9.2125 10.5 9 10.5ZM12 10.5C11.7875 10.5 11.6095 10.428 11.466 10.284C11.322 10.1405 11.25 9.9625 11.25 9.75C11.25 9.5375 11.322 9.35925 11.466 9.21525C11.6095 9.07175 11.7875 9 12 9C12.2125 9 12.3905 9.07175 12.534 9.21525C12.678 9.35925 12.75 9.5375 12.75 9.75C12.75 9.9625 12.678 10.1405 12.534 10.284C12.3905 10.428 12.2125 10.5 12 10.5ZM3.75 16.5C3.3375 16.5 2.98425 16.3532 2.69025 16.0597C2.39675 15.7657 2.25 15.4125 2.25 15V4.5C2.25 4.0875 2.39675 3.7345 2.69025 3.441C2.98425 3.147 3.3375 3 3.75 3H4.5V2.23125C4.5 2.01875 4.57175 1.84375 4.71525 1.70625C4.85925 1.56875 5.0375 1.5 5.25 1.5C5.4625 1.5 5.64075 1.57175 5.78475 1.71525C5.92825 1.85925 6 2.0375 6 2.25V3H12V2.23125C12 2.01875 12.072 1.84375 12.216 1.70625C12.3595 1.56875 12.5375 1.5 12.75 1.5C12.9625 1.5 13.1405 1.57175 13.284 1.71525C13.428 1.85925 13.5 2.0375 13.5 2.25V3H14.25C14.6625 3 15.0158 3.147 15.3098 3.441C15.6033 3.7345 15.75 4.0875 15.75 4.5V15C15.75 15.4125 15.6033 15.7657 15.3098 16.0597C15.0158 16.3532 14.6625 16.5 14.25 16.5H3.75ZM3.75 15H14.25V7.5H3.75V15Z" fill="#8668E3"/>
</svg>
