<svg width="16" height="16" viewBox="0 0 16 16" fill="none" xmlns="http://www.w3.org/2000/svg">
<path fill-rule="evenodd" clip-rule="evenodd" d="M10.707 3H14.5L15 3.5V12.5L14.5 13H1.5L1 12.5V3.5L1.5 3H5.293L6.146 2.146L6.5 2H9.5L9.854 2.146L10.707 3V3ZM2 12H14V4H10.5L10.146 3.854L9.293 3H6.707L5.854 3.854L5.5 4H2V12ZM3.5 5C3.36739 5 3.24021 5.05268 3.14645 5.14645C3.05268 5.24022 3 5.3674 3 5.5C3 5.63261 3.05268 5.75979 3.14645 5.85356C3.24021 5.94733 3.36739 6 3.5 6C3.63261 6 3.75979 5.94733 3.85355 5.85356C3.94732 5.75979 4 5.63261 4 5.5C4 5.3674 3.94732 5.24022 3.85355 5.14645C3.75979 5.05268 3.63261 5 3.5 5ZM8 6C8.53043 6 9.03914 6.21072 9.41421 6.58579C9.78929 6.96086 10 7.46957 10 8C10 8.53044 9.78929 9.03914 9.41421 9.41422C9.03914 9.78929 8.53043 10 8 10C7.46957 10 6.96086 9.78929 6.58579 9.41422C6.21071 9.03914 6 8.53044 6 8C6 7.46957 6.21071 6.96086 6.58579 6.58579C6.96086 6.21072 7.46957 6 8 6V6ZM8 5C7.20435 5 6.44129 5.31607 5.87868 5.87868C5.31607 6.44129 5 7.20435 5 8C5 8.79565 5.31607 9.55872 5.87868 10.1213C6.44129 10.6839 7.20435 11 8 11C8.79565 11 9.55871 10.6839 10.1213 10.1213C10.6839 9.55872 11 8.79565 11 8C11 7.20435 10.6839 6.44129 10.1213 5.87868C9.55871 5.31607 8.79565 5 8 5Z" fill="white"/>
</svg>
