<svg width="36" height="36" viewBox="0 0 36 36" fill="none" xmlns="http://www.w3.org/2000/svg">
<path d="M10.5 7H13.5V16H10.5V13H4.5C3.67157 13 3 12.3284 3 11.5C3 10.6716 3.67157 10 4.5 10H10.5V7Z" fill="white"/>
<path d="M31.5 10L15.75 10V13L31.5 13C32.3284 13 33 12.3284 33 11.5C33 10.6716 32.3284 10 31.5 10Z" fill="white"/>
<path d="M4.5 22C3.67157 22 3 22.6716 3 23.5C3 24.3284 3.67157 25 4.5 25H20.25V22H4.5Z" fill="white"/>
<path d="M31.5 22L25.5 22L25.5 19H22.5V28H25.5V25L31.5 25C32.3284 25 33 24.3284 33 23.5C33 22.6716 32.3284 22 31.5 22Z" fill="white"/>
</svg>
