<svg width="24" height="24" viewBox="0 0 24 24" fill="none" xmlns="http://www.w3.org/2000/svg">
<path fill-rule="evenodd" clip-rule="evenodd" d="M7.08523 7.08536C8.39665 5.77394 10.1492 5.04861 12.0041 5.04861C13.859 5.04861 15.6115 5.77394 16.9229 7.08536C18.2344 8.39678 18.9597 10.1493 18.9597 12.0042C18.9597 13.8591 18.2344 15.6116 16.9229 16.9231L16.918 16.9279C15.603 18.2319 13.8629 18.9598 12.0041 18.9598C10.1492 18.9598 8.39665 18.2345 7.08523 16.9231C5.7738 15.6116 5.04847 13.8591 5.04847 12.0042C5.04847 10.1493 5.7738 8.39678 7.08523 7.08536ZM12.0041 8.31762C11.0154 8.31762 10.0946 8.69908 9.39677 9.3969C8.69895 10.0947 8.31749 11.0155 8.31749 12.0042C8.31749 12.9929 8.69895 13.9137 9.39677 14.6115C10.0946 15.3093 11.0154 15.6908 12.0041 15.6908C12.9877 15.6908 13.9029 15.3128 14.6138 14.6091C15.3101 13.9116 15.6907 12.9918 15.6907 12.0042C15.6907 11.0155 15.3092 10.0947 14.6114 9.3969C13.9136 8.69908 12.9928 8.31762 12.0041 8.31762Z" fill="white"/>
<path d="M18.5244 6.53803C19.1262 6.53803 19.6141 6.05016 19.6141 5.44836C19.6141 4.84655 19.1262 4.35868 18.5244 4.35868C17.9226 4.35868 17.4347 4.84655 17.4347 5.44836C17.4347 6.05016 17.9226 6.53803 18.5244 6.53803Z" fill="white"/>
<path fill-rule="evenodd" clip-rule="evenodd" d="M0 5.0996C0 2.28981 2.28981 0 5.09961 0H18.9004C21.7102 0 24 2.28981 24 5.0996V18.9004C24 21.7187 21.7187 24 18.9004 24H5.09961C2.28981 24 0 21.7102 0 18.9004V5.0996ZM5.09961 3.26901C4.09524 3.26901 3.26901 4.09524 3.26901 5.0996V18.9004C3.26901 19.9048 4.09524 20.731 5.09961 20.731H18.9004C19.9133 20.731 20.731 19.9133 20.731 18.9004V5.0996C20.731 4.09524 19.9048 3.26901 18.9004 3.26901H5.09961Z" fill="white"/>
</svg>
