<svg width="16" height="16" viewBox="0 0 16 16" fill="none" xmlns="http://www.w3.org/2000/svg">
<path fill-rule="evenodd" clip-rule="evenodd" d="M7.46615 0.73335C9.19948 0.53335 10.8661 1.13335 12.1328 2.26668C13.3328 3.33335 13.9995 4.86668 13.9995 6.46668C13.9995 7.66668 13.6661 8.80002 12.9328 9.80002L9.53281 14.5333C9.19948 15.0667 8.59948 15.3334 7.99948 15.3334C7.39948 15.3334 6.79948 15.0667 6.53281 14.6L3.13281 9.86668C2.13281 8.53335 1.79948 6.93335 2.13281 5.33335C2.59948 2.86668 4.79948 0.93335 7.46615 0.73335ZM10.2662 6.4667C10.2662 7.71854 9.25134 8.73337 7.9995 8.73337C6.74765 8.73337 5.73283 7.71854 5.73283 6.4667C5.73283 5.21485 6.74765 4.20003 7.9995 4.20003C9.25134 4.20003 10.2662 5.21485 10.2662 6.4667Z" fill="#8668E3"/>
</svg>
