<svg width="24" height="24" viewBox="0 0 24 24" fill="none" xmlns="http://www.w3.org/2000/svg">
<path d="M0.837255 2.00062C0.398874 2.00062 0.000199335 2.36709 0 2.76987V21.2307C0 21.6335 0.398864 22 0.837255 22H23.1622C23.5757 22.0025 23.9606 21.6811 23.9995 21.3028C24.0006 21.2787 23.9995 16.6152 23.9995 16.6152C23.9995 16.2125 23.6006 15.846 23.1622 15.846H6.69769V9.43597C6.70392 9.02962 6.30291 8.65583 5.86044 8.65583C5.41816 8.65583 5.01695 9.02963 5.02318 9.43597V16.487C5.00663 16.5743 5.00663 16.6641 5.02318 16.7513V20.461H1.67441V19.4355H2.51167C2.95394 19.4413 3.36078 19.0728 3.36078 18.6663C3.36078 18.2599 2.95393 17.8913 2.51167 17.897H1.67441V16.1023H2.51167C2.95394 16.108 3.36078 15.7396 3.36078 15.333C3.36078 14.9267 2.95393 14.5581 2.51167 14.5638H1.67441V12.769H2.51167C2.95394 12.7747 3.36058 12.4061 3.36058 11.9998C3.36058 11.5934 2.95393 11.225 2.51167 11.2305H1.67441V9.43576H2.51167C2.95394 9.44149 3.36078 9.07305 3.36078 8.66651C3.36078 8.26017 2.95393 7.89154 2.51167 7.89727H1.67441V6.10251H2.51167C2.95394 6.10823 3.36078 5.7398 3.36078 5.33326C3.36078 4.92691 2.95393 4.55829 2.51167 4.56401H1.67441V3.5385H5.02318V6.87175C5.01695 7.2781 5.41796 7.6519 5.86044 7.6519C6.30271 7.6519 6.70392 7.2781 6.69769 6.87175V2.76925C6.69769 2.36647 6.29883 2 5.86044 2L0.837255 2.00062ZM6.69769 17.3847H22.325V20.4614H21.2088V19.6922C21.2182 19.2815 20.81 18.9026 20.3628 18.9071C19.9215 18.9112 19.5252 19.2869 19.5343 19.6922V20.4614H17.5809V19.6922C17.5903 19.2815 17.182 18.9026 16.7349 18.9071C16.2936 18.9112 15.8972 19.2869 15.9064 19.6922V20.4614H13.953V19.6922C13.9623 19.2815 13.5541 18.9026 13.1069 18.9071C12.6656 18.9112 12.2693 19.2869 12.2785 19.6922V20.4614H10.325V19.6922C10.3344 19.2815 9.92617 18.9026 9.4792 18.9071C9.0379 18.9112 8.64155 19.2869 8.65072 19.6922V20.4614H6.69729L6.69769 17.3847Z" fill="white"/>
</svg>
