<svg width="36" height="36" viewBox="0 0 36 36" fill="none" xmlns="http://www.w3.org/2000/svg">
<path fill-rule="evenodd" clip-rule="evenodd" d="M23.5706 25.8206C21.4112 27.4999 18.6974 28.5 15.75 28.5C8.70837 28.5 3 22.7916 3 15.75C3 8.70837 8.70837 3 15.75 3C22.7916 3 28.5 8.70837 28.5 15.75C28.5 18.6974 27.4999 21.4112 25.8206 23.5706L31.875 29.625C32.4963 30.2463 32.4963 31.2537 31.875 31.875C31.2537 32.4963 30.2463 32.4963 29.625 31.875L23.5706 25.8206ZM25.5 15.75C25.5 21.1348 21.1348 25.5 15.75 25.5C10.3652 25.5 6 21.1348 6 15.75C6 10.3652 10.3652 6 15.75 6C21.1348 6 25.5 10.3652 25.5 15.75Z" fill="white"/>
</svg>
