<svg width="24" height="24" viewBox="0 0 24 24" fill="none" xmlns="http://www.w3.org/2000/svg">
<path d="M2.51239 10.749C8.41795 8.20876 12.3559 6.5341 14.3263 5.72499C19.9521 3.41482 21.1211 3.01352 21.883 3.00013C22.0506 2.99736 22.4253 3.03836 22.668 3.23279C22.873 3.39697 22.9294 3.61876 22.9563 3.77442C22.9833 3.93008 23.0169 4.28467 22.9902 4.56174C22.6854 7.72419 21.3662 15.3986 20.6951 18.9406C20.4111 20.4394 19.852 20.9419 19.3107 20.9911C18.1343 21.098 17.2409 20.2235 16.1015 19.4861C14.3186 18.3323 13.3113 17.614 11.5807 16.488C9.58058 15.1868 10.8772 14.4716 12.017 13.3028C12.3153 12.9969 17.4986 8.34235 17.5989 7.92011C17.6115 7.8673 17.6231 7.67045 17.5046 7.56651C17.3862 7.46257 17.2114 7.49812 17.0852 7.52638C16.9064 7.56645 14.0581 9.42509 8.54035 13.1023C7.73187 13.6504 6.99958 13.9174 6.34347 13.9035C5.62016 13.888 4.2288 13.4997 3.19447 13.1678C1.92583 12.7606 0.91753 12.5454 1.00533 11.8539C1.05106 11.4938 1.55341 11.1255 2.51239 10.749Z" fill="white"/>
</svg>
