<svg width="24" height="24" viewBox="0 0 24 24" fill="none" xmlns="http://www.w3.org/2000/svg">
<path d="M17.176 0.912979L16.5668 0H12.8801V8.22277L12.8676 16.2546C12.8739 16.3143 12.8801 16.3799 12.8801 16.4396C12.8801 18.4505 11.1593 20.0915 9.03653 20.0915C6.91375 20.0915 5.19291 18.4565 5.19291 16.4396C5.19291 14.4286 6.91375 12.7877 9.03653 12.7877C9.47616 12.7877 9.90323 12.8652 10.2989 12.9965V8.98657C9.89067 8.92094 9.46988 8.88513 9.03653 8.88513C4.65908 8.8911 1.0918 12.2805 1.0918 16.4455C1.0918 20.6106 4.65908 24 9.04281 24C13.4265 24 16.9938 20.6106 16.9938 16.4455V6.89209C18.5828 8.40179 20.6365 9.87568 22.91 10.3471V6.24764C20.4418 5.20935 17.9861 2.14222 17.176 0.912979Z" fill="white"/>
</svg>
