<svg width="24" height="24" viewBox="0 0 24 24" fill="none" xmlns="http://www.w3.org/2000/svg">
<path fill-rule="evenodd" clip-rule="evenodd" d="M19.7 4.1625C17.6375 2.1 14.8875 1 12 1C5.95 1 1 5.95 1 12C1 13.925 1.55001 15.85 2.51251 17.5L1 23L6.77502 21.4875C8.42502 22.3125 10.2125 22.8625 12 22.8625C18.05 22.8625 23 17.9125 23 11.8625C23 8.975 21.7625 6.225 19.7 4.1625ZM12 21.075C10.35 21.075 8.70001 20.6625 7.32501 19.8375L7.04999 19.7L3.61249 20.6625L4.57501 17.3625L4.29999 16.95C3.33749 15.4375 2.92499 13.7875 2.92499 12.1375C2.92499 7.1875 7.05 3.0625 12 3.0625C14.475 3.0625 16.675 4.025 18.4625 5.675C20.25 7.4625 21.075 9.6625 21.075 12.1375C21.075 16.95 17.0875 21.075 12 21.075ZM16.95 14.2C16.675 14.0625 15.3 13.375 15.025 13.375C14.75 13.2375 14.6125 13.2375 14.475 13.5125C14.3375 13.7875 13.7875 14.3375 13.65 14.6125C13.5125 14.75 13.375 14.75 13.1 14.75C12.825 14.6125 12 14.3375 10.9 13.375C10.075 12.6875 9.52501 11.725 9.38751 11.45C9.25001 11.175 9.38752 11.0375 9.52502 10.9C9.66252 10.7625 9.8 10.625 9.9375 10.4875C10.075 10.35 10.075 10.2125 10.2125 10.075C10.35 9.9375 10.2125 9.8 10.2125 9.6625C10.2125 9.525 9.66251 8.15 9.38751 7.6C9.25001 7.1875 8.97502 7.1875 8.83752 7.1875C8.70002 7.1875 8.56248 7.1875 8.28748 7.1875C8.14998 7.1875 7.87498 7.1875 7.59998 7.4625C7.32498 7.7375 6.63751 8.425 6.63751 9.8C6.63751 11.175 7.59999 12.4125 7.73749 12.6875C7.87499 12.825 9.66248 15.7125 12.4125 16.8125C14.75 17.775 15.1625 17.5 15.7125 17.5C16.2625 17.5 17.3625 16.8125 17.5 16.2625C17.775 15.575 17.775 15.025 17.6375 15.025C17.5 14.3375 17.225 14.3375 16.95 14.2Z" fill="white"/>
</svg>
