<svg width="24" height="24" viewBox="0 0 24 24" fill="none" xmlns="http://www.w3.org/2000/svg">
<path d="M22.45 6.42857C22.175 5.42857 21.4875 4.71429 20.525 4.42857C18.875 4 11.8625 4 11.8625 4C11.8625 4 4.98751 4 3.20001 4.42857C2.23751 4.71429 1.55 5.42857 1.275 6.42857C0.999996 8.28572 1 12 1 12C1 12 1 15.7143 1.4125 17.5714C1.6875 18.5714 2.375 19.2857 3.3375 19.5714C4.9875 20 12 20 12 20C12 20 18.875 20 20.6625 19.5714C21.625 19.2857 22.3125 18.5714 22.5875 17.5714C23 15.7143 23 12 23 12C23 12 23 8.28572 22.45 6.42857ZM9.79999 15.4286V8.57143L15.575 12L9.79999 15.4286Z" fill="white"/>
</svg>
