<svg width="93" height="74" viewBox="0 0 93 74" fill="none" xmlns="http://www.w3.org/2000/svg">
<path fill-rule="evenodd" clip-rule="evenodd" d="M51.5585 14.4304C51.5587 14.4299 51.5588 14.4295 50.582 14.215C49.6053 14.0005 49.6054 14.0002 49.6054 14L49.6054 14L49.6051 14.0016L49.603 14.0107L49.5935 14.0522C49.5847 14.0901 49.5709 14.1482 49.552 14.2252C49.514 14.3792 49.4554 14.6084 49.3742 14.9022C49.2116 15.4901 48.9588 16.335 48.6006 17.351C47.883 19.3865 46.7485 22.0915 45.0808 24.7883C41.7873 30.1139 36.5204 35.2583 28.3719 35.41C28.249 35.408 28.1255 35.4069 28.0013 35.4069V35.4135V37.4069V37.4135C28.1255 37.4135 28.249 37.4124 28.3719 37.4104C36.5204 37.562 41.7873 42.7065 45.0808 48.0321C46.7485 50.7289 47.883 53.4339 48.6006 55.4694C48.9588 56.4854 49.2116 57.3303 49.3742 57.9182C49.4554 58.212 49.514 58.4412 49.552 58.5952C49.5709 58.6721 49.5847 58.7303 49.5935 58.7682L49.603 58.8097L49.6051 58.8188L49.6054 58.8204L49.6054 58.8204C49.6054 58.8202 49.6053 58.8199 50.582 58.6054C51.5588 58.3909 51.5587 58.3905 51.5585 58.3899L51.5582 58.3885L51.5572 58.384L51.5538 58.3689L51.5415 58.3153C51.5308 58.2692 51.515 58.2027 51.494 58.1171C51.4518 57.9458 51.3884 57.6982 51.3018 57.385C51.1286 56.7588 50.8623 55.8695 50.4868 54.8044C49.737 52.6777 48.5461 49.8331 46.7818 46.9802C44.5275 43.3348 41.292 39.6128 36.8027 37.4069H93V35.4069H36.816C41.2984 33.2002 44.5297 29.482 46.7818 25.8402C48.5461 22.9873 49.737 20.1427 50.4868 18.016C50.8623 16.9509 51.1286 16.0615 51.3018 15.4354C51.3884 15.1222 51.4518 14.8745 51.494 14.7033C51.515 14.6177 51.5308 14.5512 51.5415 14.5051L51.5538 14.4514L51.5572 14.4364L51.5582 14.4319L51.5585 14.4304Z" fill="#8668E3"/>
<circle cx="37" cy="37" r="36.5" transform="matrix(4.37114e-08 -1 -1 -4.37114e-08 74 74)" stroke="white" stroke-opacity="0.3"/>
</svg>
