<svg width="93" height="74" viewBox="0 0 93 74" fill="none" xmlns="http://www.w3.org/2000/svg">
<path fill-rule="evenodd" clip-rule="evenodd" d="M41.4415 14.4304C41.4413 14.4299 41.4412 14.4295 42.418 14.215C43.3947 14.0005 43.3946 14.0002 43.3946 14L43.3946 14L43.3949 14.0016L43.397 14.0107L43.4065 14.0522C43.4153 14.0901 43.4291 14.1482 43.448 14.2252C43.486 14.3792 43.5446 14.6084 43.6258 14.9022C43.7884 15.4901 44.0412 16.335 44.3994 17.351C45.117 19.3865 46.2515 22.0915 47.9192 24.7883C51.2127 30.1139 56.4796 35.2583 64.6281 35.41C64.751 35.408 64.8745 35.4069 64.9987 35.4069V35.4135V37.4069V37.4135C64.8745 37.4135 64.751 37.4124 64.6281 37.4104C56.4796 37.562 51.2127 42.7065 47.9192 48.0321C46.2515 50.7289 45.117 53.4339 44.3994 55.4694C44.0412 56.4854 43.7884 57.3303 43.6258 57.9182C43.5446 58.212 43.486 58.4412 43.448 58.5952C43.4291 58.6721 43.4153 58.7303 43.4065 58.7682L43.397 58.8097L43.3949 58.8188L43.3946 58.8204L43.3946 58.8204C43.3946 58.8202 43.3947 58.8199 42.418 58.6054C41.4412 58.3909 41.4413 58.3905 41.4415 58.3899L41.4418 58.3885L41.4428 58.384L41.4462 58.3689L41.4585 58.3153C41.4692 58.2692 41.485 58.2027 41.506 58.1171C41.5482 57.9458 41.6116 57.6982 41.6982 57.385C41.8714 56.7588 42.1377 55.8695 42.5132 54.8044C43.263 52.6777 44.4539 49.8331 46.2182 46.9802C48.4725 43.3348 51.708 39.6128 56.1973 37.4069H0V35.4069H56.184C51.7016 33.2002 48.4703 29.482 46.2182 25.8402C44.4539 22.9873 43.263 20.1427 42.5132 18.016C42.1377 16.9509 41.8714 16.0615 41.6982 15.4354C41.6116 15.1222 41.5482 14.8745 41.506 14.7033C41.485 14.6177 41.4692 14.5512 41.4585 14.5051L41.4462 14.4514L41.4428 14.4364L41.4418 14.4319L41.4415 14.4304Z" fill="#8668E3"/>
<circle cx="56" cy="37" r="36.5" transform="rotate(-90 56 37)" stroke="white" stroke-opacity="0.3"/>
</svg>
