<svg width="171" height="56" viewBox="0 0 171 56" fill="none" xmlns="http://www.w3.org/2000/svg">
<path d="M55.7372 0V56H0V0H55.7372ZM54.6447 1.0983H1.09315V54.9023H54.6447V1.0983Z" fill="url(#paint0_linear_3_5441)"/>
<path d="M15.3011 45.0203H10.9297V43.922V10.981H15.3011V43.9225H40.7126C43.8165 43.9225 44.8092 41.3714 44.8092 41.3714V43.9225V45.0208H15.3011V45.0203ZM44.8092 36.2356V35.1373V32.5862C44.8092 32.5862 43.8165 35.1373 40.7126 35.1373H27.3229V24.1572H35.248C38.3519 24.1572 39.3446 26.7083 39.3446 26.7083V24.1572V23.0589V20.5078C39.3446 20.5078 38.3519 23.0589 35.248 23.0589H29.2735H27.3229H26.2297C24.4188 23.0589 22.9508 24.5337 22.9508 26.3532V36.2356H27.3223H44.8092V36.2356ZM27.3229 12.0788H40.7126C43.8165 12.0788 44.8092 14.6299 44.8092 14.6299V12.0788V10.9805H27.3229H22.9514V12.0788V21.9612H27.3229V12.0788Z" fill="url(#paint1_linear_3_5441)"/>
<path d="M70.7363 15.8599H72.0745V25.4328H78.6513V26.5653H70.7363V15.8599Z" fill="white"/>
<path d="M83.0198 15.8599V21.8854C83.0198 23.8939 84.6555 25.5249 86.6721 25.5249C88.6887 25.5249 90.3244 23.8939 90.3244 21.8854V15.8599H91.6667V21.8854C91.6667 24.5185 89.4288 26.6573 86.6731 26.6573C83.9175 26.6573 81.6816 24.5196 81.6816 21.8854V15.8599H83.0198Z" fill="white"/>
<path d="M96.125 15.8599H97.6783L102.704 22.6497L107.741 15.8599H109.184V26.5653H107.906V17.5002L102.603 24.593L97.3139 17.5446V26.5653H96.125V15.8599V15.8599Z" fill="white"/>
<path d="M113.998 15.8599H115.338V26.5653H113.998V15.8599Z" fill="white"/>
<path d="M120.146 15.8599H121.547L128.186 24.803V15.8599H129.34V26.5653H128.002L121.305 17.5343V26.5653H120.146V15.8599Z" fill="white"/>
<path d="M137.337 15.8599H139.101L143.699 26.5653H142.345L141.07 23.5991H135.19L133.879 26.5653H132.615L137.337 15.8599ZM140.623 22.5586L138.166 16.8393L135.647 22.5586H140.623Z" fill="white"/>
<path d="M146.968 15.8599H153.087C155.187 15.8599 156.893 17.436 156.893 19.3773C156.893 21.3176 155.215 22.8937 153.149 22.8937H153.082L157.092 26.5643H155.32L151.455 22.8937H148.309V26.5643H146.967V15.8599H146.968ZM153.148 21.7623C154.474 21.7623 155.554 20.6939 155.554 19.3773C155.554 18.0607 154.446 16.9913 153.085 16.9913H148.309V21.7623H153.148V21.7623Z" fill="white"/>
<path d="M164.095 22.1925L159.439 15.8599H160.977L164.808 21.0787L168.677 15.8599H170.094L165.438 22.1367V26.5643H164.095V22.1925V22.1925Z" fill="white"/>
<path d="M70.7363 34.2646H75.0927V34.8604H71.4404V36.7748H74.6109V37.3705H71.4404V39.3014H75.0927V39.8971H70.7363V34.2646Z" fill="white"/>
<path d="M79.2773 38.2505C79.8353 38.9051 80.7329 39.3478 81.6789 39.3478C82.7289 39.3478 83.4886 38.9362 83.4886 38.3663C83.4886 37.7271 82.6537 37.5006 81.7479 37.2555C80.6742 36.967 79.5007 36.6443 79.5007 35.5738C79.5007 34.7857 80.4158 34.2148 81.6799 34.2148C82.4345 34.2148 83.1787 34.4527 83.7614 34.8561V35.5883C83.2508 35.1384 82.4684 34.8106 81.6799 34.8106C80.8152 34.8106 80.1894 35.1312 80.1894 35.5738C80.1894 36.1106 80.9388 36.3216 81.7911 36.5429C82.9039 36.8315 84.1772 37.1862 84.1772 38.3746C84.1772 39.2847 83.1283 39.9425 81.6789 39.9425C80.7813 39.9425 79.9012 39.5929 79.2773 39.0582V38.2505V38.2505Z" fill="white"/>
<path d="M90.3316 34.8424H88.0566V34.2632H93.3106V34.8424H91.0357V39.8946H90.3316V34.8424Z" fill="white"/>
<path d="M98.8022 34.2646H99.7317L102.15 39.8961H101.437L100.766 38.3354H97.6719L96.9832 39.8961H96.3203L98.8022 34.2646ZM100.532 37.7883L99.2386 34.7797L97.9128 37.7883H100.532Z" fill="white"/>
<path d="M107.429 34.8428H105.154V34.2637H110.408V34.8428H108.133V39.8951H107.429V34.8428V34.8428Z" fill="white"/>
<path d="M114.682 34.2646H119.038V34.8604H115.386V36.7748H118.556V37.3705H115.386V39.3014H119.038V39.8971H114.682V34.2646Z" fill="white"/>
<defs>
<linearGradient id="paint0_linear_3_5441" x1="8.83357" y1="61.1229" x2="47.1702" y2="-4.96866" gradientUnits="userSpaceOnUse">
<stop stop-color="#C04804"/>
<stop offset="1" stop-color="#FFC700"/>
</linearGradient>
<linearGradient id="paint1_linear_3_5441" x1="16.2991" y1="48.1349" x2="39.6029" y2="7.96089" gradientUnits="userSpaceOnUse">
<stop stop-color="#C04804"/>
<stop offset="1" stop-color="#FFC700"/>
</linearGradient>
</defs>
</svg>
