<?xml version="1.0" encoding="utf-8"?><svg viewBox="0 0 36 36" xmlns="http://www.w3.org/2000/svg" xmlns:xlink="http://www.w3.org/1999/xlink"><style>:root>svg{display:none}:root>svg:target{display:block}</style><svg viewBox="0 0 26 26" id="ic-bathroom" xmlns="http://www.w3.org/2000/svg"><mask id="aa" maskUnits="userSpaceOnUse" x="0" y="0" width="26" height="26"><path d="M0 0h26v26H0z"/><path fill-rule="evenodd" clip-rule="evenodd" d="M23.588 14.143v-10a.365.365 0 010-.143 3.006 3.006 0 00-1.44-2.573 2.933 2.933 0 00-2.92-.073 3.002 3.002 0 00-1.562 2.5h-.005c-.405.11-.764.35-1.02.687a1.942 1.942 0 00-.394 1.173.43.43 0 00.124.303c.08.08.187.126.3.126h2.964a.42.42 0 00.3-.126.43.43 0 00.123-.303c0-.447-.154-.88-.436-1.226a1.902 1.902 0 00-1.107-.665 2.142 2.142 0 011.153-1.735 2.095 2.095 0 012.065.087A2.148 2.148 0 0122.74 4c.01.047.01.096 0 .143v10H2.41c-.46 0-.894.228-1.158.612a1.443 1.443 0 00-.166 1.312c.16.438.522.77.97.887h.001c.284 1.409 1.564 6.474 5.295 6.474h11.294c3.732 0 5.011-5.065 5.295-6.474h.002c.447-.118.809-.45.969-.887.16-.439.098-.929-.166-1.312a1.407 1.407 0 00-1.159-.612zm-4.464-8.857H17.18a1.053 1.053 0 011.943 0zm-.477 17.285H7.353c-2.896 0-4.081-4.087-4.416-5.571h20.126c-.333 1.483-1.515 5.571-4.416 5.571zm4.941-6.428H2.412a.568.568 0 01-.565-.572c0-.315.253-.571.565-.571h21.176c.312 0 .565.256.565.571a.568.568 0 01-.565.572zm-14.47 8H7.281a.426.426 0 00-.423.428c0 .237.19.428.423.429h1.835a.426.426 0 00.423-.429.426.426 0 00-.423-.428zm7.764 0h1.835c.234 0 .423.192.423.428 0 .237-.19.428-.423.429h-1.835a.426.426 0 01-.423-.429c0-.236.19-.428.423-.428zM3.118 13.714a.42.42 0 00.3-.125.43.43 0 00.123-.303c0-.951.39-1.86 1.078-2.509a3.363 3.363 0 012.549-.911 3.375 3.375 0 012.396 1.265c.488.61.754 1.37.754 2.155 0 .237.19.428.423.428a.426.426 0 00.424-.428 4.32 4.32 0 00-.444-1.909 2.037 2.037 0 012.243.444c.385.389.6.916.6 1.465 0 .237.19.428.424.428a.426.426 0 00.424-.428 2.95 2.95 0 00-.85-2.07 2.882 2.882 0 00-2.044-.859 2.84 2.84 0 00-1.254.289A4.22 4.22 0 007.27 9.014a4.203 4.203 0 00-3.213 1.121 4.308 4.308 0 00-1.364 3.15.43.43 0 00.124.304.42.42 0 00.3.125zm14.611-6.286V11c0 .237-.19.428-.423.428a.426.426 0 01-.424-.428V7.428c0-.236.19-.428.424-.428.234 0 .423.192.423.428zM19 9.714a.42.42 0 00.3-.125.43.43 0 00.124-.303V7.428A.426.426 0 0019 7a.426.426 0 00-.424.428v1.858a.425.425 0 00.424.428zm0 3.715a.426.426 0 01-.423-.429v-1.857c0-.237.19-.429.424-.429.234 0 .423.192.423.429V13c0 .237-.19.429-.423.429z"/></mask><path fill-rule="evenodd" clip-rule="evenodd" d="M23.588 14.143v-10a.365.365 0 010-.143 3.006 3.006 0 00-1.44-2.573 2.933 2.933 0 00-2.92-.073 3.002 3.002 0 00-1.562 2.5h-.005c-.405.11-.764.35-1.02.687a1.942 1.942 0 00-.394 1.173.43.43 0 00.124.303c.08.08.187.126.3.126h2.964a.42.42 0 00.3-.126.43.43 0 00.123-.303c0-.447-.154-.88-.436-1.226a1.902 1.902 0 00-1.107-.665 2.142 2.142 0 011.153-1.735 2.095 2.095 0 012.065.087A2.148 2.148 0 0122.74 4c.01.047.01.096 0 .143v10H2.41c-.46 0-.894.228-1.158.612a1.443 1.443 0 00-.166 1.312c.16.438.522.77.97.887h.001c.284 1.409 1.564 6.474 5.295 6.474h11.294c3.732 0 5.011-5.065 5.295-6.474h.002c.447-.118.809-.45.969-.887.16-.439.098-.929-.166-1.312a1.407 1.407 0 00-1.159-.612zm-4.464-8.857H17.18a1.053 1.053 0 011.943 0zm-.477 17.285H7.353c-2.896 0-4.081-4.087-4.416-5.571h20.126c-.333 1.483-1.515 5.571-4.416 5.571zm4.941-6.428H2.412a.568.568 0 01-.565-.572c0-.315.253-.571.565-.571h21.176c.312 0 .565.256.565.571a.568.568 0 01-.565.572zm-14.47 8H7.281a.426.426 0 00-.423.428c0 .237.19.428.423.429h1.835a.426.426 0 00.423-.429.426.426 0 00-.423-.428zm7.764 0h1.835c.234 0 .423.192.423.428 0 .237-.19.428-.423.429h-1.835a.426.426 0 01-.423-.429c0-.236.19-.428.423-.428zM3.118 13.714a.42.42 0 00.3-.125.43.43 0 00.123-.303c0-.951.39-1.86 1.078-2.509a3.363 3.363 0 012.549-.911 3.375 3.375 0 012.396 1.265c.488.61.754 1.37.754 2.155 0 .237.19.428.423.428a.426.426 0 00.424-.428 4.32 4.32 0 00-.444-1.909 2.037 2.037 0 012.243.444c.385.389.6.916.6 1.465 0 .237.19.428.424.428a.426.426 0 00.424-.428 2.95 2.95 0 00-.85-2.07 2.882 2.882 0 00-2.044-.859 2.84 2.84 0 00-1.254.289A4.22 4.22 0 007.27 9.014a4.203 4.203 0 00-3.213 1.121 4.308 4.308 0 00-1.364 3.15.43.43 0 00.124.304.42.42 0 00.3.125zm14.611-6.286V11c0 .237-.19.428-.423.428a.426.426 0 01-.424-.428V7.428c0-.236.19-.428.424-.428.234 0 .423.192.423.428zM19 9.714a.42.42 0 00.3-.125.43.43 0 00.124-.303V7.428A.426.426 0 0019 7a.426.426 0 00-.424.428v1.858a.425.425 0 00.424.428zm0 3.715a.426.426 0 01-.423-.429v-1.857c0-.237.19-.429.424-.429.234 0 .423.192.423.429V13c0 .237-.19.429-.423.429z"/><path d="M23.588 4.143h.2v-.02l-.004-.02-.196.04zm0 10h-.2v.312l.283-.13-.083-.182zm0-10.143l.196.04.004-.02V4h-.2zm-1.44-2.573l.104-.171-.103.17zm-2.92-.073l-.096-.176.096.176zm-1.562 2.5l.044.194.148-.033.008-.152-.2-.01zm-.005 0l-.044-.195-.008.002.052.193zm-1.02.687l-.158-.121.159.121zm-.394 1.173h.2-.2zm.124.303l-.143.141.143-.14zm.3.126v-.2.2zm2.964 0v-.2.2zm.3-.126l-.143-.14.143.14zm.123-.303h-.2.2zm-.436-1.226l.155-.126-.155.126zm-1.107-.665l-.2-.016-.014.178.175.034.039-.196zm1.153-1.735l.091.178-.09-.178zm2.065.087l-.106.17.106-.17zM22.74 4h-.2v.02l.004.02.196-.04zm0 .143l-.196-.04-.004.02v.02h.2zm0 10v.2h.2v-.2h-.2zm-20.33 0v.2-.2zm-1.158.612l-.164-.114.164.114zm-.166 1.312l-.187.068.187-.069zm.97.887l-.052.194.01.002.01.002.031-.198zm.001 0l.196-.039-.027-.137-.138-.021-.03.197zm21.884 0l-.033-.197-.136.023-.027.135.196.04zm.002 0l.033.197.01-.001.008-.002-.051-.194zm.969-.887l.188.068-.188-.069zm-.166-1.312l.164-.114-.164.114zm-1.159-.612v-.2h-.044l-.04.018.084.182zM17.18 5.286l-.183-.08-.121.28h.304v-.2zm1.943 0v.2h.304l-.12-.28-.184.08zm-1.37-.564l-.077-.185.076.185zm.798 0l-.076.185.076-.185zM2.937 17v-.2h-.25l.055.244.195-.044zm20.126 0l.195.044.055-.244h-.25v.2zm-15.78 7.143v-.2h-.001v.2zm1.834 0v-.2.2zM7.282 25v.2-.2zm1.835 0v.2-.2zm9.6-.857v-.2.2zm-1.835 0v-.2.2zm1.835.857v.2-.2zm-1.835 0v.2-.2zM3.417 13.589l-.142-.14.142.14zm-.3.125l.001-.2h-.2v.2h.2zm.424-.428h-.2.2zm1.078-2.509l-.137-.145.137.145zm2.549-.911l.014-.2-.014.2zm2.396 1.265l-.157.125.157-.125zm.754 2.155h-.2.2zm.847 0h-.2.2zm-.444-1.909l-.079-.184-.193.084.093.189.18-.089zm.796-.163v.2-.2zm1.448.607l-.143.141.143-.14zm.6 1.465h.2-.2zm.847 0h.2-.2zm-.85-2.07l.143-.14-.142.14zm-2.044-.859v.2-.2zm-1.254.289l-.158.122.1.129.146-.072-.088-.18zM7.27 9.014l-.016.2.016-.2zm-3.213 1.121l-.137-.146.137.146zm-1.364 3.15l.2.001h-.2zm.124.304l.142-.14-.142.14zm.3.125v.2h.2v-.2h-.2zM19.299 9.59l.143.14-.143-.14zm-.599 0l.143-.14-.143.14zm4.688-5.446v10h.4v-10h-.4zm.004-.182a.564.564 0 000 .221l.392-.079a.166.166 0 010-.064l-.392-.078zm-1.347-2.363A2.806 2.806 0 0123.388 4h.4a3.206 3.206 0 00-1.536-2.744l-.207.342zm-2.722-.068a2.733 2.733 0 012.722.068l.207-.342a3.133 3.133 0 00-3.12-.078l.19.352zm-1.457 2.333a2.802 2.802 0 011.457-2.333l-.19-.352a3.202 3.202 0 00-1.667 2.666l.4.019zm-.16.186h.004l-.088-.39h-.005l.088.39zm-.905.613c.23-.301.55-.517.912-.615l-.104-.386c-.448.12-.844.388-1.127.759l.319.242zm-.354 1.052c0-.38.125-.75.354-1.052l-.318-.242a2.142 2.142 0 00-.436 1.294h.4zm.066.163a.23.23 0 01-.066-.163h-.4a.63.63 0 00.181.444l.285-.281zm.157.066a.221.221 0 01-.157-.066l-.285.281a.621.621 0 00.443.185v-.4zm2.965 0H16.67v.4h2.965v-.4zm.157-.066a.22.22 0 01-.157.066v.4a.62.62 0 00.442-.185l-.285-.281zm.066-.163a.23.23 0 01-.066.163l.285.281a.63.63 0 00.181-.444h-.4zm-.391-1.1c.253.31.391.699.392 1.1h.4a2.143 2.143 0 00-.482-1.352l-.31.253zm-.99-.595c.387.076.738.286.99.596l.31-.253a2.102 2.102 0 00-1.224-.735l-.077.392zm1.1-2.109a2.342 2.342 0 00-1.262 1.897l.399.032a1.942 1.942 0 011.045-1.573l-.182-.356zm2.261.095a2.295 2.295 0 00-2.261-.095l.182.356a1.895 1.895 0 011.868.078l.211-.34zM22.941 4c0-.813-.417-1.568-1.103-1.995l-.21.34c.567.352.913.979.913 1.655h.4zm-.004.182a.564.564 0 000-.221l-.392.078a.164.164 0 010 .064l.392.08zm.004 9.96v-10h-.4v10h.4zm-20.53.2h20.33v-.4H2.41v.4zm-.993.526c.227-.33.599-.525.994-.525v-.4c-.528 0-1.022.261-1.323.698l.33.227zm-.143 1.13c-.138-.378-.084-.8.143-1.13l-.33-.227c-.3.437-.37.995-.188 1.494l.375-.137zm.832.763a1.218 1.218 0 01-.832-.763l-.375.137c.182.5.594.878 1.105 1.012l.102-.386zm-.018-.004h-.002l-.062.395h.002l.062-.395zm5.264 6.471c-1.759 0-2.959-1.19-3.767-2.608-.806-1.414-1.191-3.008-1.332-3.705l-.392.079c.143.711.54 2.355 1.377 3.825.836 1.467 2.142 2.81 4.114 2.81v-.4zm11.294 0H7.353v.4h11.294v-.4zm5.099-6.313c-.14.697-.526 2.29-1.332 3.706-.808 1.417-2.008 2.607-3.767 2.607v.4c1.972 0 3.278-1.342 4.114-2.81.838-1.47 1.234-3.113 1.377-3.824l-.392-.08zm.165-.158h-.002l.066.395h.002l-.066-.395zm.814-.76a1.218 1.218 0 01-.832.764l.102.387a1.618 1.618 0 001.105-1.013l-.375-.137zm-.143-1.129c.227.33.28.752.143 1.13l.375.137a1.643 1.643 0 00-.189-1.494l-.33.227zm-.994-.525c.395 0 .767.195.994.525l.33-.227a1.607 1.607 0 00-1.324-.698v.4zm.083-.018l-.166-.364.166.364zm-6.49-8.84h1.943v-.4H17.18v.4zm.496-.948a1.266 1.266 0 00-.68.67l.368.158a.866.866 0 01.464-.458l-.152-.37zm.95 0a1.249 1.249 0 00-.95 0l.152.37a.849.849 0 01.647 0l.152-.37zm.68.67a1.266 1.266 0 00-.68-.67l-.151.37c.207.085.374.25.464.458l.367-.159zM7.353 22.77h11.294v-.4H7.353v.4zm-4.611-5.727c.169.749.554 2.165 1.27 3.398.712 1.229 1.784 2.33 3.34 2.33v-.4c-1.339 0-2.307-.944-2.995-2.13-.684-1.182-1.059-2.551-1.225-3.286l-.39.088zm20.32-.244H2.938v.4h20.126v-.4zm-4.415 5.971c1.559 0 2.632-1.1 3.344-2.329.715-1.233 1.099-2.65 1.267-3.398l-.39-.088c-.165.735-.539 2.104-1.223 3.286-.688 1.186-1.656 2.13-2.998 2.13v.4zM2.412 16.343h21.176v-.4H2.412v.4zm-.765-.772c0 .424.34.772.765.772v-.4a.368.368 0 01-.365-.372h-.4zm.765-.771a.768.768 0 00-.765.771h.4c0-.207.166-.371.365-.371v-.4zm21.176 0H2.412v.4h21.176v-.4zm.765.771a.768.768 0 00-.765-.771v.4c.2 0 .365.164.365.371h.4zm-.765.772a.768.768 0 00.765-.772h-.4a.368.368 0 01-.365.372v.4zm-16.306 8h1.835v-.4H7.282v.4zm-.223.228c0-.128.102-.228.224-.228l-.001-.4a.626.626 0 00-.623.628h.4zm.224.229a.226.226 0 01-.224-.229h-.4c0 .345.277.628.623.629v-.4zm1.834 0H7.282v.4h1.835v-.4zm.223-.229a.226.226 0 01-.223.229v.4a.626.626 0 00.623-.629h-.4zm-.223-.228c.121 0 .223.1.223.228h.4a.626.626 0 00-.622-.628l-.001.4zm9.6-.4h-1.835v.4h1.835v-.4zm.623.628a.626.626 0 00-.622-.628l-.001.4c.121 0 .223.1.223.228h.4zm-.622.629a.626.626 0 00.622-.629h-.4a.226.226 0 01-.223.229v.4zm-1.836 0h1.835v-.4h-1.835v.4zm-.623-.629c0 .345.277.628.623.629v-.4a.226.226 0 01-.223-.229h-.4zm.623-.628a.626.626 0 00-.623.628h.4c0-.128.102-.228.224-.228l-.001-.4zM3.275 13.448a.22.22 0 01-.157.066v.4a.62.62 0 00.442-.184l-.285-.282zm.066-.162a.23.23 0 01-.066.162l.285.282a.63.63 0 00.181-.444h-.4zm1.14-2.654a3.647 3.647 0 00-1.14 2.654h.4c0-.897.368-1.753 1.015-2.363l-.274-.291zm2.7-.966a3.564 3.564 0 00-2.7.966l.275.29a3.164 3.164 0 012.397-.857l.029-.399zm2.539 1.34a3.575 3.575 0 00-2.538-1.34l-.029.4a3.175 3.175 0 012.254 1.19l.313-.25zm.798 2.28c0-.83-.281-1.634-.798-2.28l-.312.25c.46.574.71 1.29.71 2.03h.4zm.223.228a.226.226 0 01-.223-.228h-.4c0 .345.277.628.623.628v-.4zm.224-.228a.226.226 0 01-.224.228v.4a.626.626 0 00.624-.628h-.4zm-.423-1.82c.278.565.423 1.188.423 1.82h.4c0-.693-.159-1.377-.464-1.997l-.36.177zm.976-.452c-.301 0-.599.06-.876.18l.158.367c.227-.097.47-.147.717-.147l.001-.4zm1.589.667a2.238 2.238 0 00-1.59-.667v.4c.49 0 .959.197 1.305.548l.285-.281zm.658 1.605c0-.602-.237-1.179-.658-1.605l-.285.281c.347.35.542.827.543 1.324h.4zm.223.228a.226.226 0 01-.223-.228h-.4c0 .345.276.628.623.628v-.4zm.223-.228a.226.226 0 01-.223.228v.4a.626.626 0 00.623-.628h-.4zm-.79-1.93a2.75 2.75 0 01.79 1.93h.4a3.15 3.15 0 00-.906-2.21l-.284.28zm-1.904-.799a2.682 2.682 0 011.904.8l.284-.281a3.081 3.081 0 00-2.187-.919v.4zm-1.165.268a2.64 2.64 0 011.165-.268l.001-.4a3.04 3.04 0 00-1.342.31l.176.358zM7.255 9.214a4.02 4.02 0 012.85 1.554l.317-.245a4.42 4.42 0 00-3.134-1.708l-.033.399zm-3.06 1.067a4.003 4.003 0 013.06-1.067l.033-.4A4.403 4.403 0 003.92 9.99l.273.292zm-1.3 3.005a4.102 4.102 0 011.3-3.005L3.92 9.99a4.508 4.508 0 00-1.427 3.297h.4zm.065.162a.23.23 0 01-.066-.162h-.4a.63.63 0 00.182.444l.284-.282zm.157.066a.22.22 0 01-.157-.066l-.284.282a.62.62 0 00.442.184v-.4zm-.2.2h.4-.4zM17.93 11V7.428h-.4V11h.4zm-.623.628A.626.626 0 0017.93 11h-.4a.226.226 0 01-.223.228v.4zM16.682 11c0 .345.277.628.624.628v-.4a.226.226 0 01-.224-.228h-.4zm0-3.572V11h.4V7.428h-.4zm.624-.628a.626.626 0 00-.624.628h.4c0-.128.102-.228.224-.228v-.4zm.623.628a.626.626 0 00-.623-.628v.4c.121 0 .223.1.223.228h.4zm1.228 2.02a.22.22 0 01-.157.066v.4a.62.62 0 00.442-.185l-.285-.28zm.066-.162a.23.23 0 01-.066.162l.285.281a.631.631 0 00.181-.443h-.4zm0-1.858v1.858h.4V7.428h-.4zM19 7.2c.121 0 .223.1.223.228h.4A.626.626 0 0019 6.8v.4zm-.224.228c0-.128.103-.228.224-.228v-.4a.626.626 0 00-.624.628h.4zm0 1.858V7.428h-.4v1.858h.4zm.067.162a.231.231 0 01-.067-.162h-.4a.63.63 0 00.182.443l.285-.28zm.157.066a.221.221 0 01-.157-.066l-.285.281a.621.621 0 00.442.185v-.4zM18.376 13c0 .345.277.629.624.629v-.4a.226.226 0 01-.224-.229h-.4zm0-1.857V13h.4v-1.857h-.4zm.624-.629a.626.626 0 00-.624.629h.4c0-.129.103-.229.224-.229v-.4zm.623.629a.626.626 0 00-.623-.629v.4c.121 0 .223.1.223.229h.4zm0 1.857v-1.857h-.4V13h.4zm-.623.629a.626.626 0 00.623-.629h-.4a.226.226 0 01-.223.229v.4z" mask="url(#aa)"/></svg><svg viewBox="0 0 24 24" id="ic-bed" xmlns="http://www.w3.org/2000/svg"><path d="M.792 4a.788.788 0 00-.566.252.841.841 0 00-.226.592v14.318a.841.841 0 00.23.592A.79.79 0 00.8 20a.79.79 0 00.57-.246.841.841 0 00.23-.592v-1.927h20.8v1.927a.841.841 0 00.23.592.79.79 0 00.57.246.79.79 0 00.57-.246.841.841 0 00.23-.592v-8.26a.84.84 0 00-.231-.6.788.788 0 00-.578-.244.789.789 0 00-.566.251.842.842 0 00-.225.592v.826h-5.067a.79.79 0 00-.638.272.843.843 0 00.06 1.17.785.785 0 00.578.21H22.4v2.203H1.6V13.38h13.066a.787.787 0 00.574-.237.84.84 0 00.238-.588.84.84 0 00-.238-.589.787.787 0 00-.574-.238H1.6V4.843a.84.84 0 00-.231-.598A.787.787 0 00.792 4zm3.383 2.771c-.932 0-1.775.742-1.775 1.738v1.842c0 .219.085.43.234.584.15.155.354.242.566.242h5.867a.788.788 0 00.565-.242.84.84 0 00.235-.584V8.509c0-.996-.843-1.738-1.775-1.738H4.175zm0 1.652h3.917c.151 0 .175.066.175.086v1.016H4V8.509c0-.02.024-.086.175-.086z"/></svg><svg viewBox="0 0 18 18" id="ic-calendar" xmlns="http://www.w3.org/2000/svg"><path d="M6 10.5a.726.726 0 01-.535-.216.725.725 0 01-.215-.534.73.73 0 01.215-.535A.728.728 0 016 9a.73.73 0 01.535.215.728.728 0 01.215.535c0 .213-.072.39-.215.534A.726.726 0 016 10.5zm3 0a.724.724 0 01-.534-.216.724.724 0 01-.216-.534c0-.213.072-.39.216-.535A.725.725 0 019 9a.73.73 0 01.535.215.728.728 0 01.215.535c0 .213-.072.39-.215.534A.726.726 0 019 10.5zm3 0a.724.724 0 01-.534-.216.724.724 0 01-.216-.534c0-.213.072-.39.216-.535A.725.725 0 0112 9c.213 0 .39.072.534.215a.726.726 0 01.216.535c0 .213-.072.39-.216.534A.724.724 0 0112 10.5zm-8.25 6c-.413 0-.766-.147-1.06-.44A1.446 1.446 0 012.25 15V4.5c0-.412.147-.765.44-1.059A1.445 1.445 0 013.75 3h.75v-.769c0-.212.072-.387.215-.525A.744.744 0 015.25 1.5a.73.73 0 01.535.215A.728.728 0 016 2.25V3h6v-.769c0-.212.072-.387.216-.525a.742.742 0 01.534-.206c.213 0 .39.072.534.215a.726.726 0 01.216.535V3h.75c.412 0 .766.147 1.06.441.293.294.44.647.44 1.059V15c0 .412-.147.766-.44 1.06a1.45 1.45 0 01-1.06.44H3.75zm0-1.5h10.5V7.5H3.75V15z"/></svg><svg viewBox="0 0 16 16" id="ic-camera" xmlns="http://www.w3.org/2000/svg"><path fill-rule="evenodd" clip-rule="evenodd" d="M10.707 3H14.5l.5.5v9l-.5.5h-13l-.5-.5v-9l.5-.5h3.793l.853-.854L6.5 2h3l.354.146.853.854zM2 12h12V4h-3.5l-.354-.146L9.293 3H6.707l-.853.854L5.5 4H2v8zm1.5-7a.5.5 0 100 1 .5.5 0 000-1zM8 6a2 2 0 110 4 2 2 0 010-4zm0-1a3 3 0 100 6 3 3 0 000-6z"/></svg><svg viewBox="0 0 36 36" id="ic-close" xmlns="http://www.w3.org/2000/svg"><g clip-path="url(#ea)"><path d="M14.697 18L0 3.302 3.302 0 18 14.697 32.697 0l3.302 3.302L21.302 18 36 32.697l-3.302 3.302L18 21.302 3.303 36 0 32.697l14.697-14.698z"/></g><defs><clipPath id="ea"><path d="M0 0h36v36H0z"/></clipPath></defs></svg><svg viewBox="0 0 18 18" id="ic-comments" xmlns="http://www.w3.org/2000/svg"><path d="M9.845 9.562H4.783a.282.282 0 00-.281.282v.562c0 .155.126.281.281.281h5.062a.282.282 0 00.281-.281v-.562a.282.282 0 00-.281-.282zm3.374-3.374H4.783a.282.282 0 00-.281.281v.562c0 .155.126.282.281.282h8.436a.282.282 0 00.282-.282V6.47a.282.282 0 00-.282-.281zM9.001 1.126c-4.97 0-8.999 3.273-8.999 7.312 0 1.673.7 3.205 1.86 4.44C1.338 14.261.248 15.435.23 15.45a.843.843 0 00.615 1.424c2.162 0 3.867-.903 4.89-1.628 1.015.32 2.112.503 3.265.503 4.97 0 8.999-3.273 8.999-7.311 0-4.04-4.028-7.312-8.999-7.312zm0 13.498a9.695 9.695 0 01-2.924-.45l-.535-.168-.457.323c-.808.573-2.056 1.24-3.606 1.392.422-.53 1.047-1.42 1.434-2.447l.25-.657-.482-.513c-1.016-1.076-1.554-2.345-1.554-3.666 0-3.41 3.533-6.187 7.874-6.187 4.341 0 7.874 2.777 7.874 6.187s-3.533 6.186-7.874 6.186z"/></svg><svg viewBox="0 0 24 24" id="ic-email" xmlns="http://www.w3.org/2000/svg"><path d="M4 20c-.55 0-1.021-.196-1.413-.588A1.922 1.922 0 012 18V6c0-.55.196-1.021.588-1.413A1.922 1.922 0 014 4h16c.55 0 1.021.196 1.413.588.392.392.588.863.587 1.412v12c0 .55-.196 1.021-.588 1.413A1.922 1.922 0 0120 20H4zm8-7l8-5V6l-8 5-8-5v2l8 5z"/></svg><svg viewBox="0 0 24 24" id="ic-facebook" xmlns="http://www.w3.org/2000/svg"><path d="M13.531 13.953V24H9.144V13.953H5.5V9.879h3.644V8.396C9.144 2.893 11.33 0 15.952 0c1.418 0 1.772.24 2.548.435v4.03c-.869-.16-1.114-.249-2.016-.249-1.072 0-1.645.32-2.168.95-.523.63-.785 1.722-.785 3.284v1.438H18.5l-1.333 4.073h-3.636v-.008z"/></svg><svg viewBox="0 0 33 32" id="ic-favorite_no" xmlns="http://www.w3.org/2000/svg"><path d="M15.798 9.53l.848 1.357.849-1.357A5.387 5.387 0 0122.1 7c3.03 0 5.546 2.535 5.546 5.667 0 1.37-.623 2.833-1.687 4.311-1.058 1.469-2.489 2.866-3.954 4.087a42.548 42.548 0 01-4.028 2.95c-.55.357-1.009.636-1.327.826l-.003.002a43.107 43.107 0 01-5.36-3.797C9.822 19.82 8.39 18.42 7.333 16.953c-1.066-1.477-1.687-2.932-1.687-4.287C5.646 9.535 8.161 7 11.192 7c1.942 0 3.642.986 4.606 2.53z"/></svg><svg viewBox="0 0 33 32" id="ic-favorite_yes" xmlns="http://www.w3.org/2000/svg"><path d="M21.454 6A6.388 6.388 0 0016 9a6.388 6.388 0 00-5.454-3C6.946 6 4 9 4 12.667 4 19.277 16 26 16 26s12-6.667 12-13.333C28 9 25.055 6 21.454 6z"/></svg><svg viewBox="0 0 36 36" id="ic-filter" xmlns="http://www.w3.org/2000/svg"><path d="M10.5 7h3v9h-3v-3h-6a1.5 1.5 0 010-3h6V7zm21 3H15.75v3H31.5a1.5 1.5 0 000-3zm-27 12a1.5 1.5 0 000 3h15.75v-3H4.5zm27 0h-6v-3h-3v9h3v-3h6a1.5 1.5 0 000-3z"/></svg><svg viewBox="0 0 24 24" id="ic-instagram" xmlns="http://www.w3.org/2000/svg"><path fill-rule="evenodd" clip-rule="evenodd" d="M7.085 7.085a6.922 6.922 0 014.92-2.036c1.854 0 3.606.725 4.918 2.036a6.921 6.921 0 012.037 4.92 6.922 6.922 0 01-2.037 4.918l-.005.005a6.936 6.936 0 01-4.914 2.032 6.922 6.922 0 01-4.919-2.037 6.922 6.922 0 01-2.037-4.919c0-1.855.726-3.607 2.037-4.919zm4.92 1.233c-.99 0-1.91.381-2.608 1.079a3.653 3.653 0 00-1.08 2.607c0 .989.382 1.91 1.08 2.607a3.653 3.653 0 002.607 1.08c.984 0 1.899-.378 2.61-1.082a3.652 3.652 0 001.077-2.605 3.65 3.65 0 00-1.08-2.607 3.653 3.653 0 00-2.607-1.08z"/><path d="M18.524 6.538a1.09 1.09 0 100-2.18 1.09 1.09 0 000 2.18z"/><path fill-rule="evenodd" clip-rule="evenodd" d="M0 5.1C0 2.29 2.29 0 5.1 0h13.8C21.71 0 24 2.29 24 5.1v13.8c0 2.819-2.281 5.1-5.1 5.1H5.1C2.29 24 0 21.71 0 18.9V5.1zm5.1-1.831a1.84 1.84 0 00-1.831 1.83V18.9a1.84 1.84 0 001.83 1.831H18.9a1.829 1.829 0 001.831-1.83V5.1a1.84 1.84 0 00-1.83-1.831H5.1z"/></svg><svg viewBox="0 0 24 24" id="ic-linkedin" xmlns="http://www.w3.org/2000/svg"><g clip-path="url(#ma)"><path d="M5.372 23.997H.396V7.977h4.976v16.02zM2.882 5.792C1.29 5.792 0 4.475 0 2.884a2.882 2.882 0 015.763 0c0 1.59-1.29 2.908-2.881 2.908zm21.113 18.205H19.03V16.2c0-1.858-.038-4.242-2.587-4.242-2.587 0-2.984 2.02-2.984 4.108v7.932H8.49V7.977h4.772v2.186h.07c.664-1.259 2.287-2.587 4.708-2.587 5.034 0 5.961 3.315 5.961 7.622v8.8h-.005z"/></g><defs><clipPath id="ma"><path d="M0 0h24v24H0z"/></clipPath></defs></svg><svg viewBox="0 0 16 16" id="ic-location" xmlns="http://www.w3.org/2000/svg"><path fill-rule="evenodd" clip-rule="evenodd" d="M7.466.733c1.733-.2 3.4.4 4.667 1.534A5.608 5.608 0 0114 6.467c0 1.2-.334 2.333-1.067 3.333l-3.4 4.733c-.334.534-.934.8-1.534.8s-1.2-.266-1.466-.733l-3.4-4.733c-1-1.334-1.334-2.934-1-4.534.466-2.466 2.666-4.4 5.333-4.6zm2.8 5.734a2.267 2.267 0 11-4.533 0 2.267 2.267 0 014.533 0z"/></svg><svg viewBox="0 0 36 36" id="ic-search" xmlns="http://www.w3.org/2000/svg"><path fill-rule="evenodd" clip-rule="evenodd" d="M23.57 25.82a12.695 12.695 0 01-7.82 2.68C8.708 28.5 3 22.792 3 15.75S8.708 3 15.75 3 28.5 8.708 28.5 15.75c0 2.947-1 5.661-2.68 7.82l6.055 6.055a1.591 1.591 0 01-2.25 2.25l-6.054-6.054zm1.93-10.07c0 5.385-4.365 9.75-9.75 9.75S6 21.135 6 15.75 10.365 6 15.75 6s9.75 4.365 9.75 9.75z"/></svg><svg viewBox="0 0 24 24" id="ic-square" xmlns="http://www.w3.org/2000/svg"><path d="M.837 2C.4 2 0 2.368 0 2.77v18.46c0 .404.399.77.837.77h22.325c.414.003.799-.319.838-.697v-4.688c0-.402-.4-.769-.838-.769H6.698v-6.41c.006-.406-.395-.78-.838-.78-.442 0-.843.374-.837.78v7.051a.71.71 0 000 .264v3.71H1.674v-1.025h.838c.442.005.849-.363.849-.77 0-.406-.407-.775-.85-.769h-.837v-1.795h.838c.442.006.849-.362.849-.769 0-.406-.407-.775-.85-.77h-.837V12.77h.838c.442.006.849-.363.849-.77 0-.406-.407-.774-.85-.769h-.837V9.436h.838c.442.005.849-.363.849-.77 0-.406-.407-.774-.85-.769h-.837V6.103h.838c.442.005.849-.363.849-.77 0-.406-.407-.775-.85-.769h-.837V3.538h3.35v3.334c-.007.406.394.78.836.78.443 0 .844-.374.838-.78V2.769c0-.403-.4-.769-.838-.769H.837zm5.86 15.385h15.628v3.076h-1.116v-.769c.01-.41-.399-.79-.846-.785-.441.004-.838.38-.829.785v.77h-1.953v-.77c.01-.41-.399-.79-.846-.785-.441.004-.838.38-.829.785v.77h-1.953v-.77c.01-.41-.399-.79-.846-.785-.441.004-.838.38-.829.785v.77h-1.953v-.77c.01-.41-.399-.79-.846-.785-.441.004-.837.38-.828.785v.77H6.697v-3.077z"/></svg><svg viewBox="0 0 18 17" id="ic-star" xmlns="http://www.w3.org/2000/svg"><path d="M9 0l2.02 6.219h6.54l-5.29 3.843 2.02 6.22L9 12.437 3.71 16.28l2.02-6.219L.44 6.22h6.54L9 0z"/></svg><svg viewBox="0 0 24 24" id="ic-telegram" xmlns="http://www.w3.org/2000/svg"><path d="M2.512 10.749c5.906-2.54 9.844-4.215 11.814-5.024 5.626-2.31 6.795-2.711 7.557-2.725.168-.003.542.038.785.233.205.164.261.386.288.541.027.156.06.51.034.788-.305 3.162-1.624 10.837-2.295 14.379-.284 1.498-.843 2-1.384 2.05-1.177.107-2.07-.767-3.21-1.505-1.782-1.154-2.79-1.872-4.52-2.998-2-1.301-.704-2.016.436-3.185.298-.306 5.482-4.96 5.582-5.383.012-.053.024-.25-.094-.353-.119-.104-.294-.069-.42-.04-.179.04-3.027 1.898-8.545 5.575-.808.548-1.54.815-2.197.801-.723-.015-2.114-.403-3.149-.735-1.268-.407-2.276-.623-2.189-1.314.046-.36.548-.728 1.507-1.105z"/></svg><svg viewBox="0 0 24 24" id="ic-tiktok" xmlns="http://www.w3.org/2000/svg"><path d="M17.176.913L16.566 0H12.88v8.223l-.012 8.032c.006.06.012.125.012.185 0 2.01-1.72 3.651-3.843 3.651s-3.844-1.635-3.844-3.651c0-2.011 1.72-3.652 3.844-3.652.44 0 .866.077 1.262.208v-4.01a7.94 7.94 0 00-1.262-.1c-4.378.005-7.945 3.395-7.945 7.56C1.092 20.61 4.659 24 9.042 24c4.385 0 7.952-3.39 7.952-7.555V6.892c1.589 1.51 3.643 2.984 5.916 3.455v-4.1C20.442 5.21 17.986 2.143 17.176.914z"/></svg><svg viewBox="0 0 24 24" id="ic-whatsapp" xmlns="http://www.w3.org/2000/svg"><path fill-rule="evenodd" clip-rule="evenodd" d="M19.7 4.162C17.637 2.1 14.887 1 12 1 5.95 1 1 5.95 1 12c0 1.925.55 3.85 1.513 5.5L1 23l5.775-1.512c1.65.825 3.438 1.375 5.225 1.375 6.05 0 11-4.95 11-11 0-2.888-1.238-5.638-3.3-7.7zM12 21.075c-1.65 0-3.3-.412-4.675-1.238L7.05 19.7l-3.438.963.963-3.3-.275-.413c-.963-1.512-1.375-3.162-1.375-4.813 0-4.95 4.125-9.075 9.075-9.075 2.475 0 4.675.963 6.462 2.613 1.788 1.788 2.613 3.987 2.613 6.462 0 4.813-3.988 8.938-9.075 8.938zm4.95-6.875c-.275-.137-1.65-.825-1.925-.825-.275-.137-.412-.137-.55.137-.137.275-.688.825-.825 1.1-.138.138-.275.138-.55.138-.275-.137-1.1-.412-2.2-1.375-.825-.688-1.375-1.65-1.512-1.925-.138-.275 0-.412.137-.55l.412-.412c.138-.138.138-.275.276-.413.137-.137 0-.275 0-.412 0-.138-.55-1.513-.825-2.063-.138-.412-.413-.412-.55-.412h-.55c-.138 0-.413 0-.688.275-.275.274-.962.962-.962 2.337 0 1.375.962 2.612 1.1 2.887.137.138 1.924 3.026 4.674 4.126 2.338.962 2.75.687 3.3.687.55 0 1.65-.688 1.788-1.238.275-.687.275-1.237.137-1.237-.137-.688-.412-.688-.687-.825z"/></svg><svg viewBox="0 0 24 24" id="ic-youtube" xmlns="http://www.w3.org/2000/svg"><path d="M22.45 6.429c-.275-1-.962-1.715-1.925-2C18.875 4 11.863 4 11.863 4S4.988 4 3.2 4.429c-.962.285-1.65 1-1.925 2C1 8.286 1 12 1 12s0 3.714.413 5.571c.274 1 .962 1.715 1.924 2C4.987 20 12 20 12 20s6.875 0 8.663-.429c.962-.285 1.65-1 1.924-2C23 15.714 23 12 23 12s0-3.714-.55-5.571zm-12.65 9V8.57L15.575 12 9.8 15.429z"/></svg></svg>